<?xml version="1.0" encoding="utf-8"?>
<!-- Generator: Adobe Illustrator 19.1.0, SVG Export Plug-In . SVG Version: 6.00 Build 0)  -->
<svg version="1.1" id="Layer_1" xmlns="http://www.w3.org/2000/svg" xmlns:xlink="http://www.w3.org/1999/xlink" x="0px" y="0px"
	 viewBox="-8 8 100 100" style="enable-background:new -8 8 100 100;" xml:space="preserve">
<style type="text/css">
	.st0{fill:#3FA9F5;}
	.st1{fill:#0071BC;}
	.st2{fill:#FBB03B;}
	.st3{fill:#FBB03B;stroke:#000000;stroke-linecap:round;stroke-miterlimit:10;}
	.st4{fill:none;stroke:#000000;stroke-linecap:round;stroke-miterlimit:10;}
	.st5{fill:#ED1E79;}
	.st6{fill:#ED1C24;}
	.st7{fill:#ED1C24;stroke:#000000;stroke-miterlimit:10;}
	.st8{fill:#C1272D;}
	.st9{fill:#8C6239;}
	.st10{fill:#FCEE21;}
	.st11{fill:#93278F;}
	.st12{fill:#603813;}
	.st13{stroke:#000000;stroke-linecap:round;stroke-miterlimit:10;}
	.st14{fill:#FBB03B;stroke:#000000;stroke-miterlimit:10;}
	.st15{fill:#F7931E;}
	.st16{fill:#FFFFFF;}
	.st17{fill:#D4145A;}
	.st18{fill:none;stroke:#D4145A;stroke-linecap:round;stroke-linejoin:round;stroke-miterlimit:10;}
</style>
<g id="baby">
	<path class="st0" d="M28.9,67.6c0,5.3-7.2,19.1-7,21c0.2,2,22.4,12.2,25.8,0.9s0-21.7,0-21.7"/>
	<path class="st1" d="M55.9,63.5c9.7-0.8,5.2,7.7-1,5.3C48.6,66.4,55.9,63.5,55.9,63.5z"/>
	<path class="st2" d="M31.9,52.9C29.3,45,15.7,36.7,48.1,30.8C80.4,24.9,52,58.2,52,58.2s13.4,12.5-10.6,13.4S21.3,53.6,31.9,52.9z"
		/>
	<path class="st3" d="M50.5,60.4c0,0,5.6,1.5,5.4-4.8s-6.2-0.8-6.2-0.8"/>
	<path class="st3" d="M37.7,52.7c0,0-1-2.3-2.2-1.4c-1.2,0.9-1.2,0.9-1.2,0.9"/>
	<path class="st3" d="M40.7,53.3c0,0-0.1-1.5,1.9-1.4c2,0,1.6,1.4,1.6,1.4"/>
	<path class="st3" d="M33,54.9c0,0-1.6-0.1-1.5,1c0.1,1.1,1.5,1.9,1.5,1.9"/>
	<path class="st0" d="M41.5,61.5c2.2,0,4.3-2.2,4.3,1.9s-3.2,3.8-4.2,3.9c-1,0.1-4.1,1.2-4-2.7S41.5,61.5,41.5,61.5z"/>
	<path class="st1" d="M41.7,63.5c-2.4,1-2.3,2.4,0,2.5C44,66.2,43.1,62.9,41.7,63.5z"/>
	<path class="st4" d="M45.9,34.9C46.7,10.6,40,24.1,40,24.1"/>
	<path class="st4" d="M51.3,36.7c5.5-18.3,0-16.3,0-16.3"/>
	<path class="st1" d="M30,69.9c-1.9,17-16.4,20.5,4.3,23.2s13.1-22.2,13.1-22.2l2.2-0.5c0,0,9.2,27.4-15.4,25.2s-9.4-8-6.5-26.9
		L30,69.9z"/>
	<path class="st1" d="M55.9,63.5c0.7-3.6,0.9-5.1,2.3,0"/>
	<path class="st1" d="M59.1,68.8c8,3.1,2.4-2.8,2.4-2.8"/>
</g>
<g id="client">
	<path class="st5" d="M63.7,97.9C57,87.2,48.9,82.4,37,81.1c-11.9-1.3-24.7,0.9-24.7,7.2s-5,10.6,14.5,9.6S63.7,97.9,63.7,97.9z"/>
	<path class="st2" d="M53.1,65.8c-14.9-1.3-24.3-2.5-24.3-2.5s2.2,12.3,2.4,19.3s9.2,8.3,10.2,0S53.1,65.8,53.1,65.8z"/>
	<path class="st2" d="M42.4,20.2c-29.7,4.2-21.8,30.2-21.8,30.2S7.1,75,43.6,76.1C80.1,77.2,63.4,49,63.4,49S72.6,16,42.4,20.2z"/>
	<path class="st6" d="M37.5,28.6c-0.8,0.1-1.4,0.6-1.5,1.4c-0.2,1.4-1.2,3.8-4.8,6.8c-4.7,4-6.9,7.3-7.6,8.4
		c-0.1,0.2-0.3,0.4-0.5,0.5c-1.1,0.7-4.8,4.3-0.8,16c3,8.8,4.1,13.8,4.4,16.2c0.1,1-0.6,1.9-1.6,1.9c0,0,0.3,2.4-8.1,2.6
		s-6.6-1.5-6.6-1.5c-1,0.1-1.8-0.7-1.8-1.7c0.1-7.5,0.7-35.7,3.7-43.6c2.9-7.7,11.2-10.8,13.7-11.5c0.5-0.1,0.8-0.5,1-0.9
		c0.7-1.7,3.6-5.6,14.3-5.2c13.4,0.5,21,7.3,23.2,12.6c4.7,11.2,5.2,23.8,5.2,25.6c0,0.1,0,0.3,0.1,0.4l5.6,19.6
		c0.3,1.1-0.5,2.1-1.6,2.2c0,0,0.2,1.6-8.5,2.2c-8.8,0.6-7.8-1.8-7.8-1.8c-1,0-1.7-0.7-1.7-1.7l0,0c0-0.5,0.3-1.1,0.7-1.4l8.4-6.1
		c0.1-0.1,0.2-0.1,0.3-0.3c0.3-0.7,2.5-3.2,1.9-8.6c-0.5-4.1-1.4-6.5-1.6-7.1c-0.1-0.3-0.1-0.6-0.1-0.9c0.4-2.4,1.4-13.3-6.3-19.3
		C52.1,28,41.4,28.3,37.5,28.6z"/>
	<path class="st3" d="M23.4,43.7C17.2,41,19.3,51,19.3,51s-5.1,4.8,0,5.8s4.1-0.8,4.1-0.8"/>
	<path class="st0" d="M27.4,43.7c0,0,1.2-2,7.2-2s8.5,2,8.5,2s0.5-1,2.8-1c2.2,0,3,1,3,1s2.2-2,8.5-2s10,2,10,2s1.5,0.5,1.5,1.9
		c0,1.4-1.5,1.5-1.5,1.5s-0.8,8.1-5.8,8.5c-5,0.4-6.8,0.1-8.5,0c-1.8-0.1-5-9.2-5-9.2s-0.5-1.6-1.8-1.8c-1.3-0.2-3,0.9-3,0.9
		s-0.8,9.8-3.2,10.2c-2.5,0.4-8.2,0.6-11.8,0.5c-3.6-0.1-2.8-9.2-2.8-9.2s-2,0.5-2.2-1.5C23.1,43.5,27.4,43.7,27.4,43.7z"/>
	<path class="st3" d="M43.8,58.1c0,0-0.9,1.9,2.4,1.7c3.3-0.1,4.3-2.6,4.3-2.6"/>
	<path class="st4" d="M31.2,61.7c0,0-1.5-2.3-4.2,0c-2.8,2.3,0,2.8,0,2.8"/>
	<path class="st3" d="M55.9,65.4c-4,2.6-15.2,2.4-20.8,2.4c-5.5,0-8.2-6.1-8.2-6.1"/>
	<path class="st7" d="M33.6,27.2c0,0-3,9.3,10.1,9.6c13.1,0.4,26.1,0,26.1,0l-8.9-11.5"/>
</g>
<g id="fem-dev">
	<path class="st8" d="M39.9,61.5c-14.7,0.3-23.1,1.7-23,6.9s-4.3,3.2-4.5,7.3c-0.2,4.1,11.8,12,28.4,11.9s22.5-0.6,25.1-8.4
		s-3.7-8.3-5-10.1C59.6,67.3,54.6,61.2,39.9,61.5z"/>
	<path class="st2" d="M29.4,32.3c0,10.2-28.3,33,11.8,32.7s9.7-21.8,9.4-31.6S29.4,32.3,29.4,32.3z"/>
	<path class="st3" d="M31,43.9c0,0,1.3-1.9,2.9-1.9s3.4,0.9,3.4,0.9"/>
	<path class="st3" d="M43,43.3c0,0-0.2-2.3,2.4-2.4c2.7-0.1,3.5,1.7,3.5,1.7"/>
	<path class="st3" d="M38.2,50.7c0,0,0.1,0.1,2.7,0c2.6-0.1,2.2-1.8,2.2-1.8"/>
	<path class="st8" d="M37.3,55.2c4.2-0.3,9.1-2.2,11.7-1.5c5.5,1.6,5,6.9-6,7.1c-11.3,0.2-14.3-4.5-12.1-6.2
		C32,53.8,35.8,55.3,37.3,55.2z"/>
	<path class="st9" d="M82,78.4H2c0,0,10.2,5.7,8.7,6.8c-1.5,1.1-20.1,8.6,21,9.5c41.1,0.9,50.4-3.9,47.1-7.4S82,78.4,82,78.4z"/>
	<path class="st2" d="M21.9,72.9c11.9,0.5,6.6,8.8,6.6,8.8s10.2,2.8,4.6,4.4c-5.6,1.6-6.7-2.3-6.7-2.3s-0.5,3.8-3.7,3.2
		c-3.1-0.6-1.9-3.9-1.9-3.9s-0.4,3.8-4.4,4c-4,0.2-1.5-3.7-1.5-3.7s-0.9,3-4.5,3.2C6.8,86.8,9.5,81,12,79.2
		C14.5,77.4,19.8,72.9,21.9,72.9z"/>
	<path class="st2" d="M59.8,73.8c8.2-0.7,7.9,6.9,7.9,6.9s8.4,3.2,3,5.1c-5.4,1.9-6.1-2.4-6.1-2.4s0.1,4.2-4.9,3.7
		c-5-0.4-2.1-3.6-2.1-3.6s-0.9,3.3-5.3,2.9s0.6-4.3,0.6-4.3s0,0.4-4,0.5c-4,0.1-2.3-3.3,2.5-4.9C56.2,76,55.4,74,59.8,73.8z"/>
	<path class="st10" d="M41.8,22.2c-11.3-0.5-14.3,7.6-14.3,7.6s0.6-8.6-6.8-8.3S17.3,42.3,6.3,38c10.2,7,19.8,7.6,20.5-1.2
		c4.5,3.2,7.1-3.5,14.7-3c7.6,0.5,9.9,6.2,11.6,3c0.4,11,13.4,8.8,19.4,1.8c-10.9-3-2-6.6-7.2-14.2c-6.5-9.5-11.8,4.5-11.8,4.5
		S52.6,22.6,41.8,22.2z"/>
	<path class="st8" d="M27.6,27c-3.3,0-5.2,9.5-0.6,9.3S30.9,27,27.6,27z"/>
	<path class="st8" d="M53.1,27.9c-2.9,0-4.6,10-0.5,9.9C56.7,37.7,56.1,27.9,53.1,27.9z"/>
	<path class="st2" d="M25.5,43.9c-5.6-0.7-11.3,6-4.1,5.7"/>
	<path class="st2" d="M53.4,43.3c3.9-1.6,10.6,5.5,5.4,5.1"/>
</g>
<g id="me-dev">
	<path class="st11" d="M39.9,63.1c-14.7,0.3-23.1,1.7-23,6.9c0.1,5.2-4.3,3.2-4.5,7.3c-0.2,4.1,11.8,12,28.4,11.9
		c16.7-0.1,22.5-0.6,25.1-8.4s-3.7-8.3-5-10.1C59.7,68.9,54.6,62.8,39.9,63.1z"/>
	<path class="st2" d="M29.4,33.9c0,10.2-28.3,33,11.8,32.7c40.1-0.2,9.7-21.8,9.4-31.6C50.2,25.2,29.4,33.9,29.4,33.9z"/>
	<path class="st12" d="M27.5,26.4c-0.1-14.5,33.5-1,33.5-1S41.6,39.9,29.8,37.1C18,34.3,23.6,25.2,27.5,26.4z"/>
	<path class="st3" d="M31,45.5c0,0,1.3-1.9,2.9-1.9s3.4,0.9,3.4,0.9"/>
	<path class="st3" d="M43,44.9c0,0-0.2-2.3,2.4-2.4s3.5,1.7,3.5,1.7"/>
	<path class="st3" d="M38.2,52.3c0,0,0.1,0.1,2.7,0c2.6-0.1,2.2-1.8,2.2-1.8"/>
	<path class="st8" d="M37.3,56.8c4.2-0.3,9.1-2.2,11.7-1.5c5.5,1.6,5,6.9-6,7.1c-11.3,0.2-14.3-4.5-12.1-6.2
		C32,55.4,35.8,56.9,37.3,56.8z"/>
	<path class="st9" d="M82,80H2c0,0,10.2,5.7,8.7,6.8c-1.5,1.1-20.1,8.6,21,9.5c41.1,0.9,50.4-3.9,47.1-7.4S82,80,82,80z"/>
	<path class="st2" d="M21.9,74.5c11.9,0.5,6.6,8.8,6.6,8.8s10.2,2.8,4.6,4.4c-5.6,1.6-6.7-2.3-6.7-2.3s-0.5,3.8-3.7,3.2
		c-3.1-0.6-1.9-3.9-1.9-3.9s-0.4,3.8-4.4,4c-4,0.2-1.5-3.7-1.5-3.7s-0.9,3-4.5,3.2c-3.6,0.2-0.9-5.6,1.6-7.4
		C14.4,78.8,19.8,74.5,21.9,74.5z"/>
	<path class="st2" d="M59.8,75.3c8.2-0.7,7.9,6.9,7.9,6.9s8.4,3.2,3,5.1c-5.4,1.9-6.1-2.4-6.1-2.4s0.1,4.2-4.9,3.7S57.6,85,57.6,85
		s-0.9,3.3-5.3,2.9s0.6-4.3,0.6-4.3s0,0.4-4,0.5c-4,0.1-2.3-3.3,2.5-4.9C56.2,77.6,55.4,75.6,59.8,75.3z"/>
	<path class="st2" d="M25.3,44.6c-2.1-5.6-8.6,7.6-3.6,5.9"/>
	<path class="st2" d="M53.4,43.2c2.1-4.7,10.9,8.2,5.6,7.3"/>
</g>
<g id="me-ux">
	<path class="st11" d="M32.8,32.6c-8.5-0.5-10.9,18.5-14.7,23.6c-3.8,5.1-11.8,8-11.2,14.8c0.6,6.8,6.2,6.5,13,14.5
		c6.8,8,9.5,12.5,8.8,14.5s11.7,10.5,22.3,0s26.2-5,26.2-5s0.5-13.1-3.8-14.7c-4.3-1.6-8.1-2.8-11.3-4.3c-6.1-2.9-19.7-1.9-24-1.1
		c-4.4,0.8-4.8-1.4-8.2-3.9s-4.3-4.1,0-7.5C34.1,59.9,50.2,33.8,32.8,32.6z"/>
	<path class="st2" d="M45.1,69.8h13c0,0-4,6.4-4,10.8s-7,2.3-6.6-2C47.9,74.3,45.1,69.8,45.1,69.8z"/>
	<path class="st2" d="M45.9,19.4c0,0-1.8-0.5-3.6,0c-1.8,0.4-1.1,0.9-2.8,1.3c-1.7,0.3-2.6,1-3.6,1.1S32,23,32,23v1.8
		c0,0,1.3-7.2,1.2-10.2c-0.2-3.1-6.7-6.2-5.5-1.1s-0.1,10.2-0.1,10.2c-0.3,3.6-1.5,3.3-0.3,7.4s1.3,7.8,4.4,7.7
		c3.1-0.2,7.7-3.4,7.7-3.4s5.5-1.3,5.8-4.6s3.4-3.2,6-3.5c2.7-0.3,6.5-1.7,1.3-5.1c-1.4-0.8-4.8,1.2-4.8,1.2S48.3,19,45.9,19.4z"/>
	<path class="st2" d="M39.5,39.6c0,10.2-28.3,33,11.8,32.7C91.4,72,61,50.5,60.7,40.7S39.5,39.6,39.5,39.6z"/>
	<path class="st12" d="M37.6,32.1c-0.1-14.5,33.5-1,33.5-1S51.6,45.5,39.8,42.8S33.7,30.9,37.6,32.1z"/>
	<path class="st3" d="M48.3,58c0,0,0.1,0.1,2.7,0s2.2-1.8,2.2-1.8"/>
	<path class="st13" d="M55.5,48.7c1.6,0.2,1.4,2.5,0,2.5S53.2,48.5,55.5,48.7z"/>
	<path class="st3" d="M50.1,45.1c0,0,0.8,3.6-3.1,3c-3.9-0.6-4.5,0.4-6.6,1.2"/>
	<path class="st13" d="M44.5,48.7c2.1,0,1.8,2.3,0,2.5C42.7,51.5,43.1,48.7,44.5,48.7z"/>
	<path class="st3" d="M59.5,62.8c-2.3-0.1-3.6-0.6-6.9,0c-3.3,0.6-4.8,3.2-8,1.8c-3.2-1.5-4.3-2.8-4.3-2.8"/>
	<path class="st3" d="M43.3,59.3c0,0-2.2,3.7-4.2,4.1c-2,0.4-3.4,0-3.4,0"/>
	<path class="st14" d="M35.2,26.8c0,0,0.6-0.1,1.6,3.8s3.8,1.5,4.5-2.2c0.8,4.5,2.6,1.3,3.3-1.2c0.5,3.5,3.7,2.1,3.3-3.4"/>
	<path class="st4" d="M45.3,15.7c-3.9-1.5-7.3,2-7.3,2"/>
	<path class="st4" d="M46.5,13.5c-3.2-1.2-4.3-1.8-7,0"/>
	<path class="st2" d="M35.4,50.3c-2.1-5.6-8.6,7.6-3.6,5.9"/>
	<path class="st2" d="M63.5,48.9c2.1-4.7,10.9,8.2,5.6,7.3"/>
</g>
<g id="product">
	<polygon class="st15" points="30.5,30.1 30.5,94.4 68.3,72.3 69.3,22.6 	"/>
	<polygon class="st10" points="17.9,27.3 56.4,21.6 69.5,22.6 30.8,30.1 	"/>
	<polygon class="st2" points="30.5,94.4 14.5,88.5 17.7,27.3 30.5,30.1 	"/>
	<path class="st8" d="M40.7,37.7c0,0,0.9,5.5,1.5,15.8s-4.4,25.9-4.4,25.9l16.8-7.2l-2-14.1c0,0,8.5-10.7,8.8-15.9
		C61.7,37.1,57.3,30.9,40.7,37.7z M51.2,48.4l-0.7-5.3c0,0,3.7-2.6,3.7,0.5C54.2,46.7,51.2,48.4,51.2,48.4z"/>
</g>
<g id="think">
	<circle class="st16" cx="8.4" cy="96.4" r="5.7"/>
	<path class="st16" d="M89.8,50c0-10.7-8.7-19.4-19.4-19.4c-1.5,0-3,0.2-4.4,0.5c-2.4-10-11.3-17.3-22-17.3c-8.8,0-16.4,5-20.2,12.4
		c-1.5-0.6-3.2-0.9-4.9-0.9c-7.9,0-14.3,6.3-14.3,14.2c0,0.9,0.1,1.7,0.2,2.5c-6.3,2.7-10.6,9-10.6,16.3c0,10,8.1,18,18,18
		c0.3,0,0.7,0,1-0.1c0.9,1.6,2,3,3.3,4.3c-0.8,1.4-1.2,3-1.2,4.8c0,5.5,4.5,10,10,10c5.3,0,9.6-4.2,9.9-9.4c2.1-0.5,4.1-1.3,5.9-2.4
		c3.3,1.9,7.1,3,11.1,3c10.6,0,19.5-7.5,21.6-17.5C82.9,67.4,89.8,59.5,89.8,50z"/>
</g>
<polygon id="tension" class="st2" points="29.8,105.5 56.8,64.2 32.5,74.5 57.7,34.3 37.1,43.5 48.9,10.5 27,49.2 42.9,45.2 
	26.3,81.8 43.3,73.3 "/>
<g id="buckets">
	<rect x="93" y="8" class="st17" width="98" height="98"/>
	<rect x="93" y="109" class="st17" width="98" height="98"/>
	<rect x="-8" y="109" class="st17" width="98" height="98"/>
	<rect x="194" y="109" class="st17" width="98" height="98"/>
	<rect x="93" y="210" class="st17" width="98" height="98"/>
	
		<text transform="matrix(1 0 0 1 106.9429 61.4204)" class="st16" style="font-family:'OpenSans-ExtraboldItalic'; font-size:16px;">Research</text>
	<text transform="matrix(1 0 0 1 118.3062 325.4059)" class="st17" style="font-family:'OpenSans-Light'; font-size:16px;">Design</text>
	<text transform="matrix(1 0 0 1 9.7623 325.4059)" class="st17" style="font-family:'OpenSans-Light'; font-size:16px;">Business</text>
	<text transform="matrix(1 0 0 1 201.1451 325.4059)" class="st17" style="font-family:'OpenSans-Light'; font-size:16px;">Engineering</text>
	<text transform="matrix(1 0 0 1 98.2046 153.5943)"><tspan x="0" y="0" class="st16" style="font-family:'OpenSans-ExtraboldItalic'; font-size:16px;">Interaction</tspan><tspan x="18.4" y="19.2" class="st16" style="font-family:'OpenSans-ExtraboldItalic'; font-size:16px;">Design</tspan></text>
	<text transform="matrix(1 0 0 1 10.1391 153.5943)"><tspan x="0" y="0" class="st16" style="font-family:'OpenSans-ExtraboldItalic'; font-size:16px;">Product</tspan><tspan x="-2.7" y="19.2" class="st16" style="font-family:'OpenSans-ExtraboldItalic'; font-size:16px;">Strategy</tspan></text>
	<text transform="matrix(1 0 0 1 207.5308 153.5943)"><tspan x="0" y="0" class="st16" style="font-family:'OpenSans-ExtraboldItalic'; font-size:16px;">Frontend</tspan><tspan x="-10.4" y="19.2" class="st16" style="font-family:'OpenSans-ExtraboldItalic'; font-size:16px;">Engineering</tspan></text>
	<text transform="matrix(1 0 0 1 118.7944 258.3045)"><tspan x="0" y="0" class="st16" style="font-family:'OpenSans-ExtraboldItalic'; font-size:16px;">Visual</tspan><tspan x="-2.2" y="19.2" class="st16" style="font-family:'OpenSans-ExtraboldItalic'; font-size:16px;">Design</tspan></text>
	<line class="st18" x1="89.5" y1="310" x2="89.5" y2="329"/>
	<line class="st18" x1="192.5" y1="310" x2="192.5" y2="329"/>
</g>
<g id="honeycomb">
	<polygon class="st17" points="113,119 83.7,68.5 113,18 171.5,18 200.7,68.5 171.5,119 	"/>
	<polygon class="st17" points="113,225 83.7,174 113,123 171.5,123 200.7,174 171.5,225 	"/>
	<polygon class="st17" points="113,331 83.7,280 113,229 171.5,229 200.7,280 171.5,331 	"/>
	<polygon class="st17" points="204.2,172 175,121.5 204.2,71 262.7,71 292,121.5 262.7,172 	"/>
	<polygon class="st17" points="204.2,278 175,227 204.2,176 262.7,176 292,227 262.7,278 	"/>
	<polygon class="st17" points="21.7,172 -7.6,121.5 21.7,71 80.2,71 109.4,121.5 80.2,172 	"/>
	<polygon class="st17" points="21.7,278 -7.6,227 21.7,176 80.2,176 109.4,227 80.2,278 	"/>
	<text transform="matrix(1 0 0 1 117.1821 77)" class="st16" style="font-family:'OpenSans-ExtraboldItalic'; font-size:16px;">useful</text>
	<text transform="matrix(1 0 0 1 25.0016 127)" class="st16" style="font-family:'OpenSans-ExtraboldItalic'; font-size:16px;">useabl</text>
	<text transform="matrix(1 0 0 1 201.3818 127)" class="st16" style="font-family:'OpenSans-ExtraboldItalic'; font-size:16px;">disrable</text>
	<text transform="matrix(1 0 0 1 107.936 180)" class="st16" style="font-family:'OpenSans-ExtraboldItalic'; font-size:16px;">valuable</text>
	
		<text transform="matrix(1 0 0 1 18.3062 233.3333)" class="st16" style="font-family:'OpenSans-ExtraboldItalic'; font-size:16px;">findable</text>
	
		<text transform="matrix(1 0 0 1 192.999 233.3336)" class="st16" style="font-family:'OpenSans-ExtraboldItalic'; font-size:16px;">accessible</text>
	
		<text transform="matrix(1 0 0 1 109.9828 286.0003)" class="st16" style="font-family:'OpenSans-ExtraboldItalic'; font-size:16px;">credible</text>
</g>
</svg>
