<?xml version="1.0" standalone="no"?>
<!DOCTYPE svg PUBLIC "-//W3C//DTD SVG 1.1//EN" "http://www.w3.org/Graphics/SVG/1.1/DTD/svg11.dtd">
<svg width="100%" height="100%" viewBox="0 0 3508 2481" version="1.1" xmlns="http://www.w3.org/2000/svg" xmlns:xlink="http://www.w3.org/1999/xlink" xml:space="preserve" style="fill-rule:evenodd;clip-rule:evenodd;stroke-linejoin:round;stroke-miterlimit:1.41421;">
    <g transform="matrix(6.45357,0,0,6.45357,-7142.29,-6321.46)">
        <path d="M1533.42,1336.92C1533.42,1336.48 1533.52,1336.11 1533.73,1335.8C1533.93,1335.49 1534.22,1335.33 1534.6,1335.33L1537.11,1335.33L1537.11,1331.32C1537.11,1329.02 1537.73,1327.12 1538.96,1325.63C1540.19,1324.15 1542.08,1323.4 1544.62,1323.4C1546.87,1323.4 1548.69,1324.03 1550.08,1325.29C1551.47,1326.55 1552.17,1328.39 1552.17,1330.83C1552.17,1332.29 1551.92,1333.64 1551.42,1334.89C1550.92,1336.13 1550.24,1336.97 1549.37,1337.4C1550.91,1337.7 1552.33,1338.62 1553.61,1340.16C1554.9,1341.71 1555.54,1343.52 1555.54,1345.6L1555.54,1346.21C1555.54,1349.11 1554.73,1351.36 1553.11,1352.97C1551.48,1354.58 1549.51,1355.38 1547.18,1355.38C1544.42,1355.38 1543.04,1354.65 1543.04,1353.19C1543.04,1352.7 1543.14,1352.25 1543.34,1351.81C1543.55,1351.38 1543.81,1351.16 1544.13,1351.16C1544.24,1351.16 1544.61,1351.26 1545.23,1351.47C1545.85,1351.67 1546.46,1351.77 1547.06,1351.77C1548.41,1351.77 1549.47,1351.32 1550.24,1350.41C1551.01,1349.51 1551.4,1348.21 1551.4,1346.54L1551.4,1345.93C1551.4,1344.17 1550.93,1342.76 1550,1341.69C1549.07,1340.62 1547.73,1339.93 1546,1339.64C1545.46,1339.56 1545.08,1339.4 1544.85,1339.17C1544.62,1338.94 1544.5,1338.51 1544.5,1337.89C1544.5,1337.49 1544.58,1337.17 1544.72,1336.94C1544.87,1336.71 1545.03,1336.56 1545.19,1336.49C1545.35,1336.42 1545.64,1336.35 1546.04,1336.27C1547.75,1336.02 1548.6,1334.55 1548.6,1331.84C1548.6,1328.73 1547.37,1327.18 1544.91,1327.18C1542.55,1327.18 1541.38,1328.56 1541.38,1331.32L1541.38,1353.19C1541.38,1353.6 1541.16,1353.93 1540.73,1354.19C1540.29,1354.44 1539.78,1354.57 1539.18,1354.57C1538.59,1354.57 1538.09,1354.44 1537.7,1354.19C1537.31,1353.93 1537.11,1353.6 1537.11,1353.19L1537.11,1338.5L1534.6,1338.5C1534.22,1338.5 1533.93,1338.35 1533.73,1338.05C1533.52,1337.76 1533.42,1337.38 1533.42,1336.92ZM1570.72,1346.09L1570.72,1347.02C1570.72,1348.38 1571.21,1349.45 1572.18,1350.25C1573.15,1351.05 1574.43,1351.45 1576,1351.45C1577.11,1351.45 1578.15,1351.19 1579.14,1350.68C1580.13,1350.16 1580.73,1349.9 1580.95,1349.9C1581.41,1349.9 1581.8,1350.12 1582.12,1350.55C1582.45,1350.99 1582.61,1351.41 1582.61,1351.81C1582.61,1352.49 1581.96,1353.17 1580.66,1353.86C1579.36,1354.55 1577.77,1354.9 1575.87,1354.9C1573.11,1354.9 1570.85,1354.15 1569.1,1352.66C1567.34,1351.18 1566.46,1349.23 1566.46,1346.82L1566.46,1342.96C1566.46,1340.83 1567.28,1338.98 1568.93,1337.42C1570.58,1335.87 1572.57,1335.09 1574.9,1335.09C1577.12,1335.09 1579.02,1335.8 1580.6,1337.22C1582.18,1338.64 1582.98,1340.43 1582.98,1342.6C1582.98,1343.41 1582.88,1344.07 1582.69,1344.57C1582.5,1345.07 1582.2,1345.42 1581.8,1345.62C1581.39,1345.83 1581.01,1345.95 1580.66,1346.01C1580.31,1346.06 1579.85,1346.09 1579.28,1346.09L1570.72,1346.09ZM1203.49,1346.82L1203.49,1343.09C1203.49,1340.89 1204.2,1339.01 1205.62,1337.44C1207.05,1335.88 1208.76,1335.09 1210.76,1335.09C1211.95,1335.09 1213.01,1335.39 1213.92,1335.98C1214.85,1336.58 1215.55,1337.31 1216.04,1338.17L1216.04,1325.27C1216.04,1324.86 1216.24,1324.53 1216.64,1324.27C1217.05,1324.02 1217.56,1323.89 1218.19,1323.89C1218.81,1323.89 1219.32,1324.02 1219.71,1324.27C1220.1,1324.53 1220.3,1324.86 1220.3,1325.27L1220.3,1353.15C1220.3,1353.5 1220.09,1353.83 1219.69,1354.13C1219.28,1354.42 1218.78,1354.57 1218.19,1354.57C1217.67,1354.57 1217.22,1354.42 1216.83,1354.13C1216.43,1353.83 1216.24,1353.5 1216.24,1353.15L1216.24,1351.73C1215.81,1352.6 1215.07,1353.34 1214.03,1353.96C1212.99,1354.59 1211.86,1354.9 1210.64,1354.9C1208.74,1354.9 1207.08,1354.08 1205.64,1352.44C1204.21,1350.8 1203.49,1348.93 1203.49,1346.82ZM1393.44,1346.09L1393.44,1347.02C1393.44,1348.38 1393.92,1349.45 1394.9,1350.25C1395.87,1351.05 1397.14,1351.45 1398.71,1351.45C1399.82,1351.45 1400.87,1351.19 1401.86,1350.68C1402.85,1350.16 1403.45,1349.9 1403.67,1349.9C1404.13,1349.9 1404.52,1350.12 1404.84,1350.55C1405.17,1350.99 1405.33,1351.41 1405.33,1351.81C1405.33,1352.49 1404.68,1353.17 1403.38,1353.86C1402.08,1354.55 1400.49,1354.9 1398.59,1354.9C1395.83,1354.9 1393.57,1354.15 1391.82,1352.66C1390.06,1351.18 1389.18,1349.23 1389.18,1346.82L1389.18,1342.96C1389.18,1340.83 1390,1338.98 1391.65,1337.42C1393.3,1335.87 1395.29,1335.09 1397.62,1335.09C1399.84,1335.09 1401.74,1335.8 1403.32,1337.22C1404.9,1338.64 1405.69,1340.43 1405.69,1342.6C1405.69,1343.41 1405.6,1344.07 1405.41,1344.57C1405.22,1345.07 1404.92,1345.42 1404.52,1345.62C1404.11,1345.83 1403.73,1345.95 1403.38,1346.01C1403.03,1346.06 1402.57,1346.09 1402,1346.09L1393.44,1346.09ZM1507.49,1349.54C1507.49,1347.38 1508.3,1345.87 1509.92,1345.01C1511.54,1344.16 1513.9,1343.74 1516.98,1343.74L1518.77,1343.74L1518.77,1343.01C1518.77,1341.81 1518.44,1340.79 1517.77,1339.92C1517.11,1339.06 1516.1,1338.62 1514.75,1338.62C1513.59,1338.62 1512.57,1338.83 1511.69,1339.23C1510.81,1339.64 1510.33,1339.84 1510.25,1339.84C1509.79,1339.84 1509.41,1339.62 1509.13,1339.17C1508.85,1338.72 1508.7,1338.23 1508.7,1337.69C1508.7,1336.99 1509.36,1336.38 1510.67,1335.86C1511.98,1335.35 1513.37,1335.09 1514.83,1335.09C1517.62,1335.09 1519.68,1335.84 1521.02,1337.34C1522.36,1338.85 1523.03,1340.72 1523.03,1342.96L1523.03,1353.15C1523.03,1353.53 1522.83,1353.86 1522.44,1354.15C1522.05,1354.43 1521.56,1354.57 1520.96,1354.57C1520.42,1354.57 1519.96,1354.43 1519.58,1354.15C1519.2,1353.86 1519.01,1353.53 1519.01,1353.15L1519.01,1351.73C1517.2,1353.84 1515.16,1354.9 1512.88,1354.9C1511.31,1354.9 1510.02,1354.44 1509.01,1353.52C1507.99,1352.6 1507.49,1351.27 1507.49,1349.54ZM1331.67,1346.09L1331.67,1347.02C1331.67,1348.38 1332.15,1349.45 1333.13,1350.25C1334.1,1351.05 1335.37,1351.45 1336.94,1351.45C1338.05,1351.45 1339.1,1351.19 1340.09,1350.68C1341.08,1350.16 1341.68,1349.9 1341.89,1349.9C1342.35,1349.9 1342.75,1350.12 1343.07,1350.55C1343.39,1350.99 1343.56,1351.41 1343.56,1351.81C1343.56,1352.49 1342.91,1353.17 1341.61,1353.86C1340.31,1354.55 1338.71,1354.9 1336.82,1354.9C1334.06,1354.9 1331.8,1354.15 1330.04,1352.66C1328.28,1351.18 1327.4,1349.23 1327.4,1346.82L1327.4,1342.96C1327.4,1340.83 1328.23,1338.98 1329.88,1337.42C1331.53,1335.87 1333.52,1335.09 1335.85,1335.09C1338.07,1335.09 1339.97,1335.8 1341.55,1337.22C1343.13,1338.64 1343.92,1340.43 1343.92,1342.6C1343.92,1343.41 1343.83,1344.07 1343.64,1344.57C1343.45,1345.07 1343.15,1345.42 1342.75,1345.62C1342.34,1345.83 1341.96,1345.95 1341.61,1346.01C1341.26,1346.06 1340.8,1346.09 1340.23,1346.09L1331.67,1346.09ZM1438.85,1351.65C1438.85,1351.24 1439,1350.83 1439.28,1350.39C1439.57,1349.96 1439.91,1349.74 1440.32,1349.74C1440.56,1349.74 1440.9,1349.9 1441.33,1350.21C1441.76,1350.52 1442.35,1350.83 1443.08,1351.14C1443.81,1351.45 1444.68,1351.61 1445.71,1351.61C1448.01,1351.61 1449.16,1350.88 1449.16,1349.42C1449.16,1348.63 1448.83,1348.02 1448.15,1347.57C1447.47,1347.12 1446.65,1346.77 1445.69,1346.52C1444.73,1346.26 1443.78,1345.97 1442.83,1345.64C1441.88,1345.32 1441.07,1344.76 1440.4,1343.98C1439.72,1343.19 1439.38,1342.18 1439.38,1340.93C1439.38,1339.34 1439.95,1337.96 1441.09,1336.82C1442.22,1335.67 1443.97,1335.09 1446.32,1335.09C1447.86,1335.09 1449.27,1335.33 1450.52,1335.8C1451.78,1336.27 1452.41,1336.84 1452.41,1337.49C1452.41,1337.86 1452.25,1338.3 1451.94,1338.8C1451.63,1339.31 1451.25,1339.56 1450.79,1339.56C1450.62,1339.56 1450.07,1339.36 1449.12,1338.97C1448.18,1338.57 1447.27,1338.38 1446.4,1338.38C1445.32,1338.38 1444.5,1338.62 1443.95,1339.11C1443.39,1339.6 1443.12,1340.14 1443.12,1340.73C1443.12,1341.38 1443.45,1341.9 1444.13,1342.27C1444.81,1342.65 1445.63,1342.96 1446.61,1343.21C1447.58,1343.45 1448.55,1343.75 1449.51,1344.1C1450.47,1344.45 1451.29,1345.06 1451.96,1345.93C1452.64,1346.79 1452.98,1347.9 1452.98,1349.26C1452.98,1351.01 1452.36,1352.39 1451.11,1353.39C1449.87,1354.4 1448.11,1354.9 1445.84,1354.9C1443.91,1354.9 1442.27,1354.56 1440.9,1353.88C1439.54,1353.21 1438.85,1352.46 1438.85,1351.65ZM1298.18,1350.11C1298.18,1349.59 1298.37,1349.08 1298.75,1348.57C1299.13,1348.05 1299.56,1347.79 1300.05,1347.79C1300.35,1347.79 1300.7,1347.96 1301.12,1348.3C1301.54,1348.64 1301.96,1349.01 1302.36,1349.4C1302.77,1349.79 1303.38,1350.15 1304.21,1350.49C1305.04,1350.83 1305.96,1351 1306.99,1351C1308.53,1351 1309.77,1350.63 1310.7,1349.9C1311.64,1349.17 1312.1,1348.11 1312.1,1346.7C1312.1,1345.4 1311.65,1344.32 1310.74,1343.45C1309.84,1342.59 1308.74,1341.9 1307.46,1341.38C1306.17,1340.87 1304.88,1340.31 1303.58,1339.72C1302.28,1339.12 1301.18,1338.23 1300.27,1337.04C1299.37,1335.85 1298.91,1334.36 1298.91,1332.57C1298.91,1331.14 1299.19,1329.9 1299.75,1328.84C1300.3,1327.79 1301.05,1326.97 1302,1326.4C1302.94,1325.84 1303.94,1325.42 1304.98,1325.17C1306.02,1324.91 1307.12,1324.78 1308.29,1324.78C1309.02,1324.78 1309.78,1324.83 1310.58,1324.92C1311.38,1325.02 1312.17,1325.17 1312.96,1325.39C1313.74,1325.61 1314.39,1325.92 1314.9,1326.32C1315.42,1326.73 1315.67,1327.19 1315.67,1327.7C1315.67,1328.22 1315.51,1328.73 1315.19,1329.25C1314.86,1329.76 1314.43,1330.02 1313.89,1330.02C1313.62,1330.02 1313.25,1329.89 1312.79,1329.63C1312.33,1329.38 1311.72,1329.12 1310.95,1328.86C1310.17,1328.6 1309.29,1328.48 1308.29,1328.48C1306.75,1328.48 1305.52,1328.78 1304.6,1329.39C1303.67,1330 1303.21,1330.92 1303.21,1332.17C1303.21,1332.98 1303.46,1333.68 1303.94,1334.26C1304.43,1334.84 1305.06,1335.32 1305.83,1335.7C1306.6,1336.08 1307.46,1336.45 1308.41,1336.82C1309.36,1337.18 1310.3,1337.61 1311.23,1338.09C1312.16,1338.58 1313.02,1339.14 1313.79,1339.78C1314.56,1340.41 1315.19,1341.29 1315.67,1342.4C1316.16,1343.51 1316.4,1344.79 1316.4,1346.25C1316.4,1349.07 1315.56,1351.21 1313.87,1352.68C1312.18,1354.16 1309.94,1354.9 1307.15,1354.9C1304.66,1354.9 1302.55,1354.38 1300.8,1353.33C1299.06,1352.29 1298.18,1351.22 1298.18,1350.11ZM1236.45,1346.09L1236.45,1347.02C1236.45,1348.38 1236.94,1349.45 1237.91,1350.25C1238.89,1351.05 1240.16,1351.45 1241.73,1351.45C1242.84,1351.45 1243.88,1351.19 1244.87,1350.68C1245.86,1350.16 1246.46,1349.9 1246.68,1349.9C1247.14,1349.9 1247.53,1350.12 1247.86,1350.55C1248.18,1350.99 1248.34,1351.41 1248.34,1351.81C1248.34,1352.49 1247.69,1353.17 1246.39,1353.86C1245.1,1354.55 1243.5,1354.9 1241.61,1354.9C1238.85,1354.9 1236.59,1354.15 1234.83,1352.66C1233.07,1351.18 1232.19,1349.23 1232.19,1346.82L1232.19,1342.96C1232.19,1340.83 1233.01,1338.98 1234.66,1337.42C1236.32,1335.87 1238.3,1335.09 1240.63,1335.09C1242.85,1335.09 1244.75,1335.8 1246.33,1337.22C1247.92,1338.64 1248.71,1340.43 1248.71,1342.6C1248.71,1343.41 1248.61,1344.07 1248.42,1344.57C1248.23,1345.07 1247.94,1345.42 1247.53,1345.62C1247.12,1345.83 1246.75,1345.95 1246.39,1346.01C1246.04,1346.06 1245.58,1346.09 1245.01,1346.09L1236.45,1346.09ZM1426.43,1338.87C1425.14,1338.87 1423.99,1339.42 1423.01,1340.53C1422.02,1341.64 1421.52,1343.07 1421.52,1344.83L1421.52,1353.15C1421.52,1353.5 1421.31,1353.83 1420.88,1354.13C1420.44,1354.42 1419.93,1354.57 1419.33,1354.57C1418.74,1354.57 1418.24,1354.42 1417.85,1354.13C1417.46,1353.83 1417.26,1353.5 1417.26,1353.15L1417.26,1336.71C1417.26,1336.31 1417.46,1335.98 1417.85,1335.72C1418.24,1335.46 1418.74,1335.33 1419.33,1335.33C1419.87,1335.33 1420.33,1335.46 1420.71,1335.72C1421.09,1335.98 1421.28,1336.31 1421.28,1336.71L1421.28,1338.5C1421.74,1337.55 1422.44,1336.75 1423.37,1336.09C1424.3,1335.42 1425.33,1335.09 1426.43,1335.09L1427.73,1335.09C1428.17,1335.09 1428.55,1335.27 1428.87,1335.64C1429.19,1336 1429.36,1336.44 1429.36,1336.96C1429.36,1337.47 1429.19,1337.92 1428.87,1338.3C1428.55,1338.68 1428.17,1338.87 1427.73,1338.87L1426.43,1338.87ZM1355.49,1353.15L1355.49,1336.71C1355.49,1336.31 1355.69,1335.98 1356.08,1335.72C1356.47,1335.46 1356.98,1335.33 1357.6,1335.33C1358.22,1335.33 1358.74,1335.46 1359.14,1335.72C1359.55,1335.98 1359.75,1336.31 1359.75,1336.71L1359.75,1353.15C1359.75,1353.5 1359.54,1353.83 1359.12,1354.13C1358.7,1354.42 1358.2,1354.57 1357.6,1354.57C1357.01,1354.57 1356.51,1354.42 1356.1,1354.13C1355.69,1353.83 1355.49,1353.5 1355.49,1353.15ZM1141.72,1353.15L1141.72,1326.28C1141.72,1325.82 1141.93,1325.48 1142.35,1325.25C1142.77,1325.02 1143.28,1324.9 1143.87,1324.9C1144.47,1324.9 1144.98,1325.02 1145.39,1325.25C1145.82,1325.48 1146.02,1325.82 1146.02,1326.28L1146.02,1353.15C1146.02,1353.58 1145.82,1353.93 1145.39,1354.19C1144.98,1354.44 1144.47,1354.57 1143.87,1354.57C1143.31,1354.57 1142.8,1354.44 1142.37,1354.19C1141.94,1353.93 1141.72,1353.58 1141.72,1353.15ZM1472.99,1354.57L1471.57,1354.57C1466.83,1354.57 1464.46,1352.46 1464.46,1348.24L1464.46,1327.91C1464.46,1327.53 1464.68,1327.2 1465.11,1326.93C1465.55,1326.66 1466.03,1326.53 1466.58,1326.53C1467.12,1326.53 1467.61,1326.66 1468.06,1326.93C1468.5,1327.2 1468.73,1327.53 1468.73,1327.91L1468.73,1335.33L1473.68,1335.33C1474.03,1335.33 1474.31,1335.49 1474.53,1335.8C1474.75,1336.11 1474.85,1336.48 1474.85,1336.92C1474.85,1337.35 1474.75,1337.72 1474.53,1338.03C1474.31,1338.34 1474.03,1338.5 1473.68,1338.5L1468.73,1338.5L1468.73,1348.24C1468.73,1349.21 1468.93,1349.9 1469.36,1350.31C1469.77,1350.72 1470.51,1350.92 1471.57,1350.92L1472.99,1350.92C1473.56,1350.92 1474,1351.1 1474.33,1351.45C1474.65,1351.8 1474.81,1352.23 1474.81,1352.75C1474.81,1353.26 1474.65,1353.69 1474.33,1354.04C1474,1354.4 1473.56,1354.57 1472.99,1354.57ZM1495.15,1338.87C1493.85,1338.87 1492.7,1339.42 1491.72,1340.53C1490.73,1341.64 1490.24,1343.07 1490.24,1344.83L1490.24,1353.15C1490.24,1353.5 1490.02,1353.83 1489.59,1354.13C1489.15,1354.42 1488.64,1354.57 1488.05,1354.57C1487.45,1354.57 1486.96,1354.42 1486.56,1354.13C1486.17,1353.83 1485.98,1353.5 1485.98,1353.15L1485.98,1336.71C1485.98,1336.31 1486.17,1335.98 1486.56,1335.72C1486.96,1335.46 1487.45,1335.33 1488.05,1335.33C1488.59,1335.33 1489.05,1335.46 1489.42,1335.72C1489.8,1335.98 1489.99,1336.31 1489.99,1336.71L1489.99,1338.5C1490.45,1337.55 1491.15,1336.75 1492.08,1336.09C1493.02,1335.42 1494.04,1335.09 1495.15,1335.09L1496.45,1335.09C1496.88,1335.09 1497.26,1335.27 1497.58,1335.64C1497.91,1336 1498.07,1336.44 1498.07,1336.96C1498.07,1337.47 1497.91,1337.92 1497.58,1338.3C1497.26,1338.68 1496.88,1338.87 1496.45,1338.87L1495.15,1338.87ZM1159.05,1353.15L1159.05,1336.71C1159.05,1336.31 1159.25,1335.98 1159.64,1335.72C1160.03,1335.46 1160.54,1335.33 1161.16,1335.33C1161.7,1335.33 1162.16,1335.46 1162.52,1335.72C1162.89,1335.98 1163.07,1336.31 1163.07,1336.71L1163.07,1338.17C1163.5,1337.31 1164.2,1336.58 1165.16,1335.98C1166.12,1335.39 1167.24,1335.09 1168.51,1335.09C1170.43,1335.09 1172.09,1335.88 1173.48,1337.44C1174.87,1339.01 1175.57,1340.89 1175.57,1343.09L1175.57,1353.15C1175.57,1353.58 1175.36,1353.93 1174.94,1354.19C1174.52,1354.44 1174.02,1354.57 1173.42,1354.57C1172.88,1354.57 1172.39,1354.44 1171.96,1354.19C1171.53,1353.93 1171.31,1353.58 1171.31,1353.15L1171.31,1343.09C1171.31,1342 1170.9,1341.03 1170.09,1340.16C1169.28,1339.3 1168.32,1338.87 1167.21,1338.87C1166.18,1338.87 1165.28,1339.25 1164.49,1340.02C1163.71,1340.79 1163.31,1341.81 1163.31,1343.09L1163.31,1353.15C1163.31,1353.5 1163.1,1353.83 1162.66,1354.13C1162.23,1354.42 1161.73,1354.57 1161.16,1354.57C1160.57,1354.57 1160.07,1354.42 1159.66,1354.13C1159.26,1353.83 1159.05,1353.5 1159.05,1353.15ZM1372.7,1353.15L1372.7,1325.27C1372.7,1324.86 1372.89,1324.53 1373.29,1324.27C1373.68,1324.02 1374.19,1323.89 1374.81,1323.89C1375.4,1323.89 1375.91,1324.02 1376.33,1324.27C1376.75,1324.53 1376.96,1324.86 1376.96,1325.27L1376.96,1353.15C1376.96,1353.5 1376.74,1353.83 1376.31,1354.13C1375.88,1354.42 1375.38,1354.57 1374.81,1354.57C1374.21,1354.57 1373.71,1354.42 1373.31,1354.13C1372.9,1353.83 1372.7,1353.5 1372.7,1353.15ZM1269.45,1338.87C1268.15,1338.87 1267.01,1339.42 1266.02,1340.53C1265.03,1341.64 1264.54,1343.07 1264.54,1344.83L1264.54,1353.15C1264.54,1353.5 1264.32,1353.83 1263.89,1354.13C1263.45,1354.42 1262.94,1354.57 1262.34,1354.57C1261.75,1354.57 1261.26,1354.42 1260.86,1354.13C1260.47,1353.83 1260.28,1353.5 1260.28,1353.15L1260.28,1336.71C1260.28,1336.31 1260.47,1335.98 1260.86,1335.72C1261.26,1335.46 1261.75,1335.33 1262.34,1335.33C1262.89,1335.33 1263.35,1335.46 1263.72,1335.72C1264.1,1335.98 1264.29,1336.31 1264.29,1336.71L1264.29,1338.5C1264.75,1337.55 1265.45,1336.75 1266.38,1336.09C1267.32,1335.42 1268.34,1335.09 1269.45,1335.09L1270.75,1335.09C1271.18,1335.09 1271.56,1335.27 1271.88,1335.64C1272.21,1336 1272.37,1336.44 1272.37,1336.96C1272.37,1337.47 1272.21,1337.92 1271.88,1338.3C1271.56,1338.68 1271.18,1338.87 1270.75,1338.87L1269.45,1338.87ZM1518.77,1346.09L1517.75,1346.09C1516.54,1346.09 1515.54,1346.14 1514.77,1346.25C1514,1346.36 1513.31,1346.64 1512.7,1347.1C1512.09,1347.56 1511.79,1348.2 1511.79,1349.01C1511.79,1349.88 1512.03,1350.53 1512.52,1350.98C1513.01,1351.43 1513.64,1351.65 1514.43,1351.65C1515.45,1351.65 1516.43,1351.22 1517.37,1350.35C1518.3,1349.49 1518.77,1348.57 1518.77,1347.59L1518.77,1346.09ZM1207.76,1346.82C1207.76,1347.93 1208.16,1348.92 1208.97,1349.8C1209.79,1350.68 1210.75,1351.12 1211.86,1351.12C1212.91,1351.12 1213.87,1350.71 1214.74,1349.88C1215.6,1349.06 1216.04,1348.35 1216.04,1347.75L1216.04,1343.09C1216.04,1341.84 1215.62,1340.83 1214.78,1340.04C1213.94,1339.26 1212.98,1338.87 1211.9,1338.87C1210.79,1338.87 1209.82,1339.3 1208.99,1340.16C1208.17,1341.03 1207.76,1342 1207.76,1343.09L1207.76,1346.82ZM1393.44,1343.45L1400.18,1343.45C1400.77,1343.45 1401.17,1343.37 1401.37,1343.21C1401.58,1343.05 1401.68,1342.72 1401.68,1342.23C1401.68,1341.15 1401.29,1340.23 1400.5,1339.47C1399.72,1338.72 1398.74,1338.34 1397.58,1338.34C1396.44,1338.34 1395.47,1338.7 1394.66,1339.41C1393.84,1340.13 1393.44,1341.04 1393.44,1342.15L1393.44,1343.45ZM1570.72,1343.45L1577.46,1343.45C1578.05,1343.45 1578.45,1343.37 1578.65,1343.21C1578.86,1343.05 1578.96,1342.72 1578.96,1342.23C1578.96,1341.15 1578.57,1340.23 1577.78,1339.47C1577,1338.72 1576.02,1338.34 1574.86,1338.34C1573.72,1338.34 1572.75,1338.7 1571.94,1339.41C1571.12,1340.13 1570.72,1341.04 1570.72,1342.15L1570.72,1343.45ZM1331.67,1343.45L1338.4,1343.45C1339,1343.45 1339.4,1343.37 1339.6,1343.21C1339.8,1343.05 1339.9,1342.72 1339.9,1342.23C1339.9,1341.15 1339.51,1340.23 1338.73,1339.47C1337.94,1338.72 1336.97,1338.34 1335.81,1338.34C1334.67,1338.34 1333.69,1338.7 1332.88,1339.41C1332.07,1340.13 1331.67,1341.04 1331.67,1342.15L1331.67,1343.45ZM1236.45,1343.45L1243.19,1343.45C1243.78,1343.45 1244.18,1343.37 1244.38,1343.21C1244.59,1343.05 1244.69,1342.72 1244.69,1342.23C1244.69,1341.15 1244.3,1340.23 1243.51,1339.47C1242.73,1338.72 1241.75,1338.34 1240.59,1338.34C1239.45,1338.34 1238.48,1338.7 1237.67,1339.41C1236.86,1340.13 1236.45,1341.04 1236.45,1342.15L1236.45,1343.45ZM1355.12,1328.27C1355.12,1327.65 1355.37,1327.12 1355.86,1326.69C1356.34,1326.26 1356.92,1326.04 1357.6,1326.04C1358.28,1326.04 1358.86,1326.26 1359.35,1326.69C1359.83,1327.12 1360.08,1327.65 1360.08,1328.27C1360.08,1328.87 1359.83,1329.39 1359.35,1329.84C1358.86,1330.28 1358.28,1330.5 1357.6,1330.5C1356.92,1330.5 1356.34,1330.28 1355.86,1329.84C1355.37,1329.39 1355.12,1328.87 1355.12,1328.27ZM1590.1,1319.92L1140.95,1319.92L1143.57,1305.84L1592.85,1305.84L1590.1,1319.92ZM1181.12,1299.69L1163,1299.69L1180.08,1219.66L1198.69,1217.2L1192.79,1245.09L1193.53,1245.09C1196.03,1245.09 1198.37,1244.47 1200.56,1243.25C1202.75,1242.02 1204.67,1240.42 1206.31,1238.45C1207.94,1236.49 1209.24,1234.3 1210.2,1231.88C1211.17,1229.47 1211.65,1227.07 1211.65,1224.7C1211.65,1222.93 1211.34,1221.25 1210.73,1219.63C1210.11,1218.01 1209.15,1216.57 1207.84,1215.3C1206.53,1214.03 1204.82,1213.02 1202.71,1212.26C1200.6,1211.5 1198.05,1211.12 1195.06,1211.12C1192.61,1211.12 1190.12,1211.4 1187.6,1211.95C1185.08,1212.5 1182.67,1213.34 1180.35,1214.47C1178.04,1215.6 1175.86,1217 1173.81,1218.68C1171.76,1220.36 1169.99,1222.33 1168.5,1224.6C1167,1226.88 1165.82,1229.43 1164.94,1232.28C1164.06,1235.13 1163.62,1238.27 1163.62,1241.71C1163.62,1243.31 1163.71,1244.61 1163.89,1245.61C1164.08,1246.61 1164.28,1247.41 1164.51,1248.01C1164.73,1248.6 1164.94,1249.06 1165.12,1249.39C1165.3,1249.72 1165.4,1250 1165.4,1250.25C1161.14,1250.25 1157.83,1249.39 1155.48,1247.67C1153.12,1245.95 1151.94,1242.96 1151.94,1238.7C1151.94,1235.79 1152.52,1232.96 1153.66,1230.19C1154.81,1227.43 1156.42,1224.81 1158.49,1222.33C1160.55,1219.85 1163.01,1217.58 1165.86,1215.51C1168.7,1213.44 1171.82,1211.65 1175.19,1210.14C1178.57,1208.62 1182.15,1207.45 1185.94,1206.61C1189.73,1205.77 1193.61,1205.35 1197.58,1205.35C1202.21,1205.35 1206.2,1205.91 1209.56,1207.04C1212.92,1208.16 1215.69,1209.65 1217.88,1211.49C1220.07,1213.33 1221.7,1215.46 1222.77,1217.88C1223.83,1220.29 1224.36,1222.79 1224.36,1225.37C1224.36,1227.26 1224.1,1229.14 1223.57,1231.02C1223.03,1232.91 1222.23,1234.71 1221.17,1236.43C1220.11,1238.15 1218.78,1239.78 1217.21,1241.31C1215.63,1242.85 1213.82,1244.19 1211.77,1245.33C1214.47,1245.83 1216.77,1246.72 1218.65,1248.01C1220.54,1249.3 1222.07,1250.85 1223.26,1252.67C1224.44,1254.5 1225.31,1256.51 1225.84,1258.72C1226.37,1260.94 1226.64,1263.23 1226.64,1265.6C1226.64,1267.61 1226.44,1269.9 1226.05,1272.48C1225.66,1275.06 1225.04,1277.69 1224.18,1280.38C1223.32,1283.06 1222.19,1285.69 1220.8,1288.27C1219.41,1290.85 1217.69,1293.14 1215.64,1295.15C1213.59,1297.15 1211.21,1298.77 1208.49,1300C1205.76,1301.23 1202.64,1301.84 1199.12,1301.84C1197.77,1301.84 1196.35,1301.72 1194.88,1301.48C1193.41,1301.23 1192.07,1300.76 1190.86,1300.06C1189.65,1299.37 1188.64,1298.41 1187.85,1297.21C1187.05,1296 1186.65,1294.43 1186.65,1292.51C1186.65,1291.44 1186.77,1290.32 1187.02,1289.13C1187.26,1287.94 1187.67,1286.63 1188.25,1285.2C1189.84,1286.92 1191.3,1288.11 1192.61,1288.76C1193.92,1289.42 1195.29,1289.74 1196.72,1289.74C1199.02,1289.74 1200.95,1289.02 1202.53,1287.56C1204.1,1286.11 1205.38,1284.27 1206.37,1282.04C1207.35,1279.8 1208.06,1277.36 1208.49,1274.69C1208.91,1272.03 1209.13,1269.52 1209.13,1267.14C1209.13,1264.97 1208.94,1262.91 1208.55,1260.97C1208.16,1259.02 1207.5,1257.32 1206.58,1255.87C1205.66,1254.41 1204.44,1253.26 1202.93,1252.4C1201.41,1251.54 1199.51,1251.11 1197.21,1251.11C1196.68,1251.11 1195.88,1251.13 1194.82,1251.17C1193.75,1251.21 1192.63,1251.33 1191.44,1251.54L1181.12,1299.69ZM1311.59,1299.69L1293.46,1299.69L1295.03,1292.33C1293.45,1294.05 1291.84,1295.44 1290.18,1296.5C1288.52,1297.57 1286.91,1298.38 1285.36,1298.96C1283.8,1299.53 1282.32,1299.92 1280.9,1300.12C1279.49,1300.33 1278.23,1300.43 1277.13,1300.43C1275.24,1300.43 1273.48,1300.14 1271.84,1299.57C1270.21,1299 1268.78,1298.1 1267.58,1296.87C1266.37,1295.64 1265.41,1294.08 1264.72,1292.2C1264.38,1291.28 1264.12,1290.27 1263.95,1289.17C1263.13,1290.34 1262.29,1291.39 1261.43,1292.32C1259.86,1294.04 1258.24,1295.44 1256.58,1296.5C1254.92,1297.57 1253.32,1298.38 1251.76,1298.96C1250.2,1299.53 1248.72,1299.92 1247.31,1300.12C1245.89,1300.33 1244.63,1300.43 1243.53,1300.43C1241.64,1300.43 1239.88,1300.14 1238.25,1299.57C1236.61,1299 1235.18,1298.1 1233.98,1296.87C1232.77,1295.64 1231.82,1294.08 1231.12,1292.2C1230.42,1290.32 1230.08,1288.04 1230.08,1285.38C1230.08,1284.24 1230.16,1282.98 1230.32,1281.61C1230.49,1280.23 1230.73,1278.75 1231.06,1277.15L1244.51,1214.13L1263.12,1211.61L1248.69,1279.55C1248.48,1280.24 1248.35,1280.93 1248.29,1281.61C1248.23,1282.28 1248.2,1282.95 1248.2,1283.6C1248.2,1285.36 1248.61,1286.58 1249.42,1287.26C1250.24,1287.93 1251.53,1288.27 1253.29,1288.27C1254.52,1288.27 1255.72,1287.99 1256.89,1287.44C1258.05,1286.89 1259.13,1286.12 1260.11,1285.14C1261.1,1284.15 1261.98,1282.98 1262.75,1281.61C1263.53,1280.23 1264.17,1278.75 1264.66,1277.15L1273.19,1236.8L1291.32,1236.8L1282.29,1279.55C1282.08,1280.24 1281.95,1280.93 1281.89,1281.61C1281.83,1282.28 1281.8,1282.95 1281.8,1283.6C1281.8,1285.36 1282.2,1286.58 1283.02,1287.26C1283.84,1287.93 1285.13,1288.27 1286.89,1288.27C1288.12,1288.27 1289.32,1287.99 1290.49,1287.44C1291.65,1286.89 1292.73,1286.12 1293.71,1285.14C1294.69,1284.15 1295.57,1282.98 1296.35,1281.61C1297.11,1280.27 1297.73,1278.84 1298.21,1277.29L1306.79,1236.8L1324.91,1236.8L1323.56,1243.31C1324.91,1241.79 1326.26,1240.57 1327.59,1239.65C1328.92,1238.73 1330.22,1238.03 1331.49,1237.53C1332.76,1237.04 1333.95,1236.71 1335.08,1236.55C1336.21,1236.39 1337.26,1236.31 1338.24,1236.31C1340.25,1236.31 1342.11,1236.57 1343.83,1237.1C1345.55,1237.64 1347.04,1238.48 1348.29,1239.62C1349.54,1240.77 1350.51,1242.24 1351.2,1244.04C1351.9,1245.85 1352.25,1248 1352.25,1250.49C1352.25,1252.17 1352.1,1253.99 1351.79,1255.93C1351.48,1257.88 1351.1,1259.86 1350.65,1261.89C1350.2,1263.91 1349.72,1265.93 1349.21,1267.94C1348.7,1269.94 1348.21,1271.87 1347.76,1273.71C1347.31,1275.56 1346.93,1277.26 1346.63,1278.84C1346.32,1280.42 1346.17,1281.8 1346.17,1282.99C1346.17,1284.54 1346.53,1285.81 1347.24,1286.8C1347.96,1287.78 1349.28,1288.27 1351.2,1288.27C1352.56,1288.27 1353.74,1288 1354.77,1287.47C1355.79,1286.94 1356.71,1286.18 1357.53,1285.2C1358.35,1284.21 1359.1,1283.04 1359.77,1281.67C1359.89,1281.43 1360,1281.19 1360.12,1280.95C1360.11,1280.71 1360.11,1280.47 1360.11,1280.22C1360.11,1277.36 1360.4,1274.29 1360.97,1271.01C1361.54,1267.73 1362.42,1264.46 1363.61,1261.18C1364.8,1257.9 1366.28,1254.76 1368.07,1251.75C1369.85,1248.74 1371.93,1246.08 1374.33,1243.77C1376.73,1241.45 1379.44,1239.61 1382.47,1238.24C1385.5,1236.87 1388.84,1236.18 1392.48,1236.18C1396.04,1236.18 1398.63,1236.8 1400.25,1238.03C1401.87,1239.25 1402.68,1240.77 1402.68,1242.57L1402.68,1243.06L1408.82,1214.13L1427.43,1211.61L1413,1279.55C1412.79,1280.24 1412.65,1280.93 1412.57,1281.61C1412.49,1282.28 1412.44,1282.95 1412.44,1283.6C1412.44,1285.36 1412.86,1286.58 1413.7,1287.26C1414.54,1287.93 1415.84,1288.27 1417.6,1288.27C1418.83,1288.27 1419.97,1287.99 1421.01,1287.44C1422.06,1286.89 1423,1286.12 1423.84,1285.14C1424.68,1284.15 1425.42,1282.98 1426.08,1281.61C1426.74,1280.23 1427.31,1278.75 1427.8,1277.15L1435.36,1241.83L1431.18,1241.83L1432.22,1236.8L1436.34,1236.8L1440.15,1219.41L1458.76,1216.89L1454.46,1236.8L1462.01,1236.8L1461.03,1241.83L1453.48,1241.83L1445.43,1279.55C1445.22,1280.24 1445.09,1280.93 1445.03,1281.61C1444.97,1282.28 1444.94,1282.95 1444.94,1283.6C1444.94,1285.36 1445.35,1286.58 1446.17,1287.26C1446.99,1287.93 1448.28,1288.27 1450.04,1288.27C1451.26,1288.27 1452.46,1287.99 1453.63,1287.44C1454.8,1286.89 1455.87,1286.12 1456.85,1285.14C1457.84,1284.15 1458.72,1282.98 1459.5,1281.61C1459.58,1281.45 1459.66,1281.3 1459.75,1281.15C1459.74,1280.92 1459.74,1280.7 1459.74,1280.47C1459.74,1278.05 1459.99,1275.27 1460.48,1272.12C1460.97,1268.96 1461.75,1265.73 1462.81,1262.41C1463.88,1259.09 1465.29,1255.84 1467.05,1252.64C1468.81,1249.45 1470.94,1246.59 1473.44,1244.08C1475.94,1241.56 1478.86,1239.53 1482.22,1237.99C1485.58,1236.46 1489.41,1235.69 1493.71,1235.69C1496.53,1235.69 1498.84,1236.03 1500.62,1236.7C1502.4,1237.38 1503.81,1238.27 1504.86,1239.38C1505.9,1240.48 1506.62,1241.76 1507.01,1243.21C1507.39,1244.67 1507.59,1246.17 1507.59,1247.73C1507.59,1251.37 1506.79,1254.76 1505.19,1257.89C1503.6,1261.03 1501.46,1263.76 1498.78,1266.1C1496.09,1268.43 1493.01,1270.31 1489.53,1271.75C1486.05,1273.18 1482.43,1274.02 1478.66,1274.27C1478.58,1275.21 1478.51,1276.1 1478.44,1276.94C1478.38,1277.78 1478.35,1278.56 1478.35,1279.3C1478.35,1281.43 1478.55,1283.18 1478.93,1284.55C1479.32,1285.92 1479.9,1287 1480.65,1287.78C1481.41,1288.56 1482.36,1289.1 1483.48,1289.41C1484.61,1289.71 1485.93,1289.87 1487.44,1289.87C1489.94,1289.87 1492.2,1289.54 1494.23,1288.88C1496.26,1288.23 1498.15,1287.33 1499.91,1286.18C1501.67,1285.03 1503.34,1283.68 1504.92,1282.13C1505.27,1281.78 1505.63,1281.42 1505.99,1281.06C1506.05,1280.78 1506.13,1280.52 1506.21,1280.25C1506.6,1279.01 1507.1,1277.89 1507.71,1276.91C1508.33,1275.92 1509.03,1275.07 1509.83,1274.36C1510.63,1273.64 1511.46,1273.08 1512.32,1272.67C1515.84,1266.36 1518.81,1260.13 1521.23,1253.96C1523.64,1247.8 1525.83,1241.61 1527.8,1235.38L1546.41,1232.93C1546.65,1238.37 1546.89,1243.09 1547.12,1247.09C1547.34,1251.08 1547.56,1254.54 1547.76,1257.46C1547.97,1260.39 1548.15,1262.88 1548.31,1264.93C1548.48,1266.98 1548.63,1268.79 1548.78,1270.36C1548.92,1271.94 1549.02,1273.37 1549.08,1274.66C1549.14,1275.95 1549.17,1277.3 1549.17,1278.69C1549.17,1279.63 1549.14,1280.49 1549.08,1281.27C1549.02,1282.05 1548.89,1282.78 1548.68,1283.48C1550.53,1282.41 1552.19,1281.36 1553.69,1280.32C1555.18,1279.27 1556.52,1278.22 1557.71,1277.15L1565.27,1241.83L1561.09,1241.83L1562.13,1236.8L1566.25,1236.8L1570.06,1219.41L1588.67,1216.89L1584.37,1236.8L1591.92,1236.8L1590.94,1241.83L1583.39,1241.83L1575.34,1279.55C1575.14,1280.24 1575,1280.93 1574.94,1281.61C1574.88,1282.28 1574.85,1282.95 1574.85,1283.6C1574.85,1285.36 1575.26,1286.58 1576.08,1287.26C1576.9,1287.93 1578.19,1288.27 1579.95,1288.27C1581.18,1288.27 1582.37,1287.99 1583.54,1287.44C1584.71,1286.89 1585.78,1286.12 1586.77,1285.14C1587.75,1284.15 1588.63,1282.98 1589.41,1281.61C1590.18,1280.23 1590.82,1278.75 1591.31,1277.15L1596.59,1277.15C1595.41,1280.55 1594.09,1283.5 1592.63,1286C1591.18,1288.5 1589.66,1290.6 1588.09,1292.32C1586.51,1294.04 1584.89,1295.44 1583.23,1296.5C1581.58,1297.57 1579.97,1298.38 1578.41,1298.96C1576.86,1299.53 1575.37,1299.92 1573.96,1300.12C1572.55,1300.33 1571.29,1300.43 1570.18,1300.43C1568.3,1300.43 1566.54,1300.14 1564.9,1299.57C1563.26,1299 1561.84,1298.1 1560.63,1296.87C1559.42,1295.64 1558.47,1294.08 1557.77,1292.2C1557.08,1290.32 1556.73,1288.04 1556.73,1285.38C1556.73,1284.8 1556.75,1284.19 1556.79,1283.56C1555.58,1284.65 1554.36,1285.66 1553.14,1286.58C1549.84,1289.06 1546.72,1291.16 1543.77,1292.88C1542.46,1294.27 1540.99,1295.45 1539.38,1296.41C1537.76,1297.37 1536.08,1298.15 1534.34,1298.74C1532.6,1299.34 1530.84,1299.77 1529.06,1300.03C1527.28,1300.3 1525.59,1300.43 1523.99,1300.43C1520.84,1300.43 1518.1,1299.95 1515.79,1298.99C1513.48,1298.03 1511.56,1296.78 1510.05,1295.24C1508.53,1293.7 1507.42,1291.99 1506.7,1290.08C1506.43,1289.36 1506.21,1288.64 1506.04,1287.92C1504.26,1289.84 1502.33,1291.59 1500.25,1293.18C1497.4,1295.35 1494.25,1297.1 1490.79,1298.43C1487.33,1299.77 1483.53,1300.43 1479.4,1300.43C1476.41,1300.43 1473.7,1300.05 1471.29,1299.3C1468.87,1298.54 1466.8,1297.36 1465.08,1295.76C1463.36,1294.17 1462.04,1292.11 1461.12,1289.59C1461.04,1289.36 1460.96,1289.13 1460.88,1288.9C1460,1290.17 1459.1,1291.32 1458.17,1292.32C1456.6,1294.04 1454.98,1295.44 1453.32,1296.5C1451.66,1297.57 1450.06,1298.38 1448.5,1298.96C1446.94,1299.53 1445.46,1299.92 1444.05,1300.12C1442.63,1300.33 1441.38,1300.43 1440.27,1300.43C1438.38,1300.43 1436.62,1300.14 1434.99,1299.57C1433.35,1299 1431.93,1298.1 1430.72,1296.87C1429.51,1295.64 1428.56,1294.08 1427.86,1292.2C1427.53,1291.32 1427.28,1290.34 1427.11,1289.29C1426.38,1290.33 1425.64,1291.27 1424.88,1292.11C1423.39,1293.77 1421.86,1295.1 1420.31,1296.1C1418.75,1297.1 1417.24,1297.87 1415.76,1298.4C1414.29,1298.94 1412.87,1299.29 1411.52,1299.45C1410.17,1299.61 1408.94,1299.69 1407.84,1299.69C1404.36,1299.69 1401.55,1298.78 1399.42,1296.96C1397.29,1295.14 1395.98,1292.45 1395.49,1288.88C1394.55,1290.32 1393.47,1291.72 1392.27,1293.09C1391.06,1294.46 1389.69,1295.69 1388.15,1296.78C1386.62,1297.86 1384.9,1298.74 1383.02,1299.42C1381.14,1300.09 1379.09,1300.43 1376.88,1300.43C1374.71,1300.43 1372.62,1300.08 1370.61,1299.39C1368.61,1298.69 1366.83,1297.54 1365.27,1295.95C1363.71,1294.35 1362.46,1292.26 1361.52,1289.68C1361.49,1289.59 1361.46,1289.5 1361.43,1289.41L1361.37,1289.5C1359.34,1292.57 1357.3,1294.91 1355.23,1296.53C1353.16,1298.15 1351.13,1299.2 1349.15,1299.69C1347.16,1300.19 1345.33,1300.43 1343.65,1300.43C1340.86,1300.43 1338.53,1300.03 1336.65,1299.23C1334.76,1298.43 1333.25,1297.37 1332.1,1296.04C1330.95,1294.71 1330.12,1293.19 1329.61,1291.49C1329.1,1289.8 1328.85,1288.04 1328.85,1286.24C1328.85,1284.11 1329.14,1281.62 1329.74,1278.78C1330.33,1275.93 1330.98,1273.02 1331.67,1270.03C1332.37,1267.04 1333.01,1264.15 1333.61,1261.37C1334.2,1258.58 1334.5,1256.19 1334.5,1254.18C1334.5,1249.88 1332.98,1247.73 1329.95,1247.73C1328.81,1247.73 1327.74,1248.04 1326.76,1248.65C1325.77,1249.27 1324.87,1250.09 1324.06,1251.14C1323.24,1252.18 1322.5,1253.41 1321.84,1254.82C1321.19,1256.24 1320.62,1257.74 1320.12,1259.34L1311.59,1299.69ZM1512.32,1281.7C1512.32,1284.64 1512.9,1286.85 1514.07,1288.3C1515.24,1289.75 1517.21,1290.48 1520,1290.48C1521.39,1290.48 1522.74,1290.29 1524.05,1289.9C1525.36,1289.51 1526.53,1288.85 1527.55,1287.93C1528.58,1287.01 1529.39,1285.81 1530.01,1284.34C1530.62,1282.86 1530.93,1281.02 1530.93,1278.81C1530.93,1277.75 1530.9,1276.71 1530.84,1275.71C1530.78,1274.7 1530.71,1273.64 1530.62,1272.51C1530.54,1271.39 1530.43,1270.13 1530.29,1268.74C1530.14,1267.34 1529.98,1265.73 1529.8,1263.88C1529.61,1262.04 1529.42,1259.91 1529.21,1257.5C1529.01,1255.08 1528.78,1252.25 1528.54,1249.02C1527.27,1253.11 1525.77,1257.09 1524.05,1260.94C1522.33,1264.79 1520.43,1268.74 1518.34,1272.79C1519.16,1273.24 1519.84,1273.81 1520.4,1274.51C1520.95,1275.21 1521.23,1276.09 1521.23,1277.15C1521.23,1277.93 1521.1,1278.69 1520.86,1279.42C1520.61,1280.16 1520.24,1280.83 1519.75,1281.42C1519.26,1282.01 1518.68,1282.49 1518,1282.83C1517.33,1283.18 1516.56,1283.36 1515.7,1283.36C1515,1283.36 1514.35,1283.25 1513.73,1283.05C1513.12,1282.84 1512.65,1282.39 1512.32,1281.7ZM1395.37,1277.15L1401.51,1248.34C1401.43,1247.98 1401.3,1247.55 1401.11,1247.05C1400.93,1246.56 1400.65,1246.08 1400.28,1245.61C1399.91,1245.14 1399.41,1244.75 1398.78,1244.44C1398.14,1244.14 1397.33,1243.98 1396.35,1243.98C1394.59,1243.98 1392.92,1244.56 1391.35,1245.7C1389.77,1246.85 1388.33,1248.38 1387.01,1250.28C1385.7,1252.18 1384.54,1254.34 1383.51,1256.76C1382.49,1259.17 1381.62,1261.66 1380.9,1264.22C1380.19,1266.78 1379.64,1269.3 1379.28,1271.78C1378.91,1274.26 1378.72,1276.48 1378.72,1278.44C1378.72,1280.86 1378.95,1282.72 1379.4,1284.03C1379.85,1285.34 1380.39,1286.31 1381.03,1286.95C1381.66,1287.58 1382.35,1287.96 1383.08,1288.09C1383.82,1288.21 1384.48,1288.27 1385.05,1288.27C1385.91,1288.27 1386.86,1288.05 1387.9,1287.62C1388.95,1287.19 1389.95,1286.55 1390.91,1285.69C1391.88,1284.83 1392.76,1283.75 1393.56,1282.43C1394.35,1281.12 1394.96,1279.59 1395.37,1277.83L1395.37,1277.15ZM1479.64,1268.25C1482.02,1268.08 1484.31,1267.41 1486.52,1266.22C1488.73,1265.03 1490.68,1263.49 1492.36,1261.58C1494.04,1259.68 1495.38,1257.51 1496.38,1255.07C1497.38,1252.63 1497.88,1250.11 1497.88,1247.48C1497.88,1245.93 1497.66,1244.68 1497.21,1243.74C1496.76,1242.8 1495.94,1242.32 1494.75,1242.32C1493.15,1242.32 1491.59,1243.09 1490.05,1244.63C1488.52,1246.16 1487.07,1248.16 1485.72,1250.62C1484.37,1253.07 1483.17,1255.85 1482.13,1258.94C1481.09,1262.03 1480.26,1265.13 1479.64,1268.25ZM1273.26,1230.55C1269.79,1230.33 1267.66,1232.06 1266.99,1235.92C1266.14,1235.87 1265.27,1235.79 1264.4,1235.69L1269.88,1209.86C1271.89,1209.38 1273.73,1208.58 1275.41,1207.45C1275.32,1207.53 1275.22,1207.61 1275.13,1207.69C1273.32,1209.25 1271.86,1211.21 1270.88,1213.4C1270.49,1214.26 1270.18,1215.15 1269.95,1216.07C1269.52,1217.77 1269.38,1219.55 1269.51,1221.3C1269.6,1222.65 1269.86,1224 1270.29,1225.29C1270.69,1226.48 1271.23,1227.62 1271.9,1228.69C1272.17,1229.13 1272.48,1229.56 1272.79,1229.98C1272.92,1230.13 1272.92,1230.13 1273.04,1230.29C1273.15,1230.42 1273.15,1230.42 1273.26,1230.55ZM1434.98,1213.81C1433.92,1213.95 1433.38,1213.68 1433.57,1212.79L1434.88,1206.64C1435.22,1205.05 1434.26,1204.38 1432.94,1204.56L1403.62,1208.53L1401.96,1216.34C1398.76,1219.76 1395.48,1222.55 1392.12,1224.71C1388.61,1226.97 1385.2,1228.7 1381.9,1229.92C1378.6,1231.13 1375.46,1231.96 1372.46,1232.39C1369.47,1232.83 1366.8,1233.04 1364.45,1233.04C1360.46,1233.04 1356.73,1232.43 1353.26,1231.22C1349.78,1230 1346.77,1228.1 1344.21,1225.49C1341.64,1222.89 1339.63,1219.59 1338.15,1215.6C1336.67,1211.6 1335.94,1206.78 1335.94,1201.14C1335.94,1198.71 1336.11,1196.04 1336.46,1193.13C1336.81,1190.23 1337.33,1187.08 1338.02,1183.69L1356.12,1098.15L1394.53,1098.15L1375.39,1188.77C1374.96,1190.25 1374.67,1191.7 1374.54,1193.13C1374.41,1194.57 1374.35,1195.98 1374.35,1197.37C1374.35,1201.1 1375.22,1203.68 1376.95,1205.11C1378.69,1206.55 1381.42,1207.26 1385.16,1207.26C1387.76,1207.26 1390.3,1206.67 1392.77,1205.5C1395.25,1204.33 1397.53,1202.7 1399.61,1200.62C1401.69,1198.54 1403.56,1196.04 1405.21,1193.13C1405.39,1192.81 1405.57,1192.49 1405.74,1192.16C1405.73,1191.69 1405.73,1191.21 1405.73,1190.73C1405.73,1185.6 1406.25,1179.7 1407.29,1173.02C1408.33,1166.33 1409.98,1159.48 1412.24,1152.44C1414.5,1145.41 1417.49,1138.51 1421.22,1131.74C1424.96,1124.97 1429.47,1118.91 1434.77,1113.58C1440.06,1108.24 1446.27,1103.94 1453.38,1100.69C1460.5,1097.43 1468.62,1095.8 1477.73,1095.8C1483.72,1095.8 1488.61,1096.52 1492.38,1097.95C1496.16,1099.38 1499.15,1101.27 1501.37,1103.62C1503.58,1105.96 1505.1,1108.67 1505.92,1111.75C1506.75,1114.84 1507.16,1118.03 1507.16,1121.32C1507.16,1129.05 1505.47,1136.23 1502.08,1142.87C1498.7,1149.51 1494.16,1155.31 1488.48,1160.26C1482.79,1165.2 1476.26,1169.2 1468.88,1172.24C1461.5,1175.27 1453.82,1177.05 1445.83,1177.57C1445.66,1179.57 1445.51,1181.46 1445.38,1183.24C1445.25,1185.02 1445.18,1186.69 1445.18,1188.25C1445.18,1192.77 1445.59,1196.48 1446.42,1199.38C1447.24,1202.29 1448.46,1204.57 1450.07,1206.22C1451.67,1207.87 1453.67,1209.02 1456.06,1209.67C1457.28,1210 1458.61,1210.25 1460.04,1210.41L1434.98,1213.81ZM1203.51,1231.48L1202.06,1231.48L1204.32,1220.77L1204.34,1220.8C1204.49,1221.03 1204.63,1221.26 1204.74,1221.51C1204.88,1221.81 1204.99,1222.13 1205.09,1222.45C1205.22,1222.91 1205.31,1223.38 1205.36,1223.85C1205.4,1224.28 1205.41,1224.7 1205.39,1225.13C1205.37,1225.62 1205.32,1226.11 1205.24,1226.59C1205.18,1226.95 1205.11,1227.31 1205.02,1227.65C1204.9,1228.14 1204.75,1228.61 1204.59,1229.08C1204.4,1229.59 1204.19,1230.08 1203.96,1230.57C1203.82,1230.88 1203.67,1231.18 1203.51,1231.48ZM1232.16,1231.48L1229.9,1231.48C1230.25,1230.01 1230.47,1228.5 1230.56,1226.99C1230.69,1224.9 1230.57,1222.79 1230.17,1220.73C1229.8,1218.77 1229.18,1216.86 1228.35,1215.05C1227.73,1213.7 1226.98,1212.42 1226.12,1211.22C1224.5,1208.96 1222.47,1207 1220.2,1205.39C1218.19,1203.97 1216,1202.82 1213.72,1201.91C1212.62,1201.47 1211.5,1201.07 1210.36,1200.74C1207.35,1199.86 1204.23,1199.39 1201.11,1199.2C1200.95,1199.19 1200.8,1199.18 1200.64,1199.17L1229.95,1061.82L1269.4,1056.61L1256.9,1115.73L1258.46,1115.73C1263.76,1115.73 1268.73,1114.42 1273.37,1111.82C1278.02,1109.21 1282.08,1105.83 1285.55,1101.66C1289.02,1097.5 1291.78,1092.85 1293.82,1087.73C1295.86,1082.61 1296.88,1077.53 1296.88,1072.5C1296.88,1068.76 1296.22,1065.18 1294.92,1061.75C1293.62,1058.33 1291.58,1055.27 1288.8,1052.57C1286.02,1049.88 1282.4,1047.73 1277.93,1046.13C1273.46,1044.52 1268.06,1043.72 1261.72,1043.72C1256.51,1043.72 1251.24,1044.31 1245.9,1045.48C1240.56,1046.65 1235.44,1048.43 1230.53,1050.82C1225.63,1053.2 1221.01,1056.18 1216.67,1059.74C1212.33,1063.29 1208.57,1067.48 1205.4,1072.3C1202.24,1077.12 1199.72,1082.54 1197.85,1088.58C1195.99,1094.61 1195.05,1101.27 1195.05,1108.56C1195.05,1111.95 1195.25,1114.7 1195.64,1116.83C1196.03,1118.96 1196.46,1120.65 1196.94,1121.91C1197.42,1123.17 1197.85,1124.14 1198.24,1124.84C1198.63,1125.53 1198.83,1126.14 1198.83,1126.66C1189.8,1126.66 1182.79,1124.84 1177.8,1121.19C1172.81,1117.55 1170.31,1111.21 1170.31,1102.18C1170.31,1096.02 1171.53,1090.01 1173.96,1084.15C1176.39,1078.29 1179.8,1072.73 1184.18,1067.48C1188.56,1062.23 1193.77,1057.41 1199.81,1053.03C1205.84,1048.65 1212.43,1044.85 1219.6,1041.64C1226.76,1038.42 1234.35,1035.93 1242.38,1034.15C1250.41,1032.37 1258.64,1031.48 1267.06,1031.48C1276.87,1031.48 1285.33,1032.67 1292.45,1035.06C1299.57,1037.45 1305.45,1040.6 1310.09,1044.5C1314.74,1048.41 1318.19,1052.92 1320.44,1058.04C1322.7,1063.16 1323.83,1068.46 1323.83,1073.93C1323.83,1077.92 1323.26,1081.91 1322.13,1085.91C1321.01,1089.9 1319.31,1093.72 1317.06,1097.37C1314.8,1101.01 1312,1104.46 1308.66,1107.72C1305.32,1110.97 1301.48,1113.82 1297.13,1116.25C1302.86,1117.29 1307.73,1119.17 1311.72,1121.91C1315.71,1124.64 1318.97,1127.94 1321.48,1131.81C1324,1135.67 1325.83,1139.94 1326.95,1144.63C1328.08,1149.32 1328.65,1154.18 1328.65,1159.21C1328.65,1163.47 1328.23,1168.33 1327.41,1173.8C1326.58,1179.27 1325.26,1184.84 1323.44,1190.53C1321.61,1196.21 1319.23,1201.79 1316.28,1207.26C1313.33,1212.73 1309.68,1217.59 1305.34,1221.85C1303.97,1223.19 1302.53,1224.45 1301.02,1225.62C1301.07,1225.47 1301.13,1225.32 1301.18,1225.16C1301.72,1223.53 1301.99,1221.81 1301.99,1220.09C1301.99,1218.3 1301.7,1216.51 1301.11,1214.82C1300.87,1214.13 1300.58,1213.45 1300.24,1212.79C1299.51,1211.35 1298.57,1210.02 1297.45,1208.85C1296.15,1207.5 1294.63,1206.36 1292.96,1205.51C1292.24,1205.14 1291.5,1204.83 1290.74,1204.57C1289.3,1204.09 1287.79,1203.83 1286.28,1203.78C1284.36,1203.71 1282.42,1203.96 1280.59,1204.57C1279.23,1205.03 1277.92,1205.67 1276.72,1206.48C1277,1206.25 1277.27,1206.01 1277.54,1205.76C1280.88,1202.68 1283.59,1198.78 1285.68,1194.05C1287.76,1189.31 1289.26,1184.13 1290.17,1178.49C1291.08,1172.84 1291.54,1167.5 1291.54,1162.47C1291.54,1157.87 1291.12,1153.51 1290.3,1149.38C1289.48,1145.26 1288.09,1141.66 1286.13,1138.58C1284.18,1135.5 1281.6,1133.04 1278.38,1131.22C1275.17,1129.4 1271.14,1128.49 1266.28,1128.49C1265.15,1128.49 1263.45,1128.53 1261.2,1128.62C1258.94,1128.7 1256.55,1128.96 1254.04,1129.4L1232.16,1231.48ZM1466.33,1230.55L1462.2,1230.55L1466.22,1211.95L1465.02,1210.64C1470.09,1210.6 1474.7,1209.9 1478.84,1208.56C1483.14,1207.17 1487.15,1205.27 1490.88,1202.83C1494.62,1200.4 1498.15,1197.54 1501.5,1194.24C1504.83,1190.95 1508.18,1187.45 1511.55,1183.74L1529.69,1098.15L1568.1,1098.15L1564.71,1114.68C1567.06,1112.6 1569.44,1110.56 1571.88,1108.56C1574.31,1106.57 1576.84,1104.81 1579.49,1103.29C1582.14,1101.77 1584.9,1100.53 1587.76,1099.58C1590.62,1098.62 1593.66,1098.15 1596.88,1098.15C1599.91,1098.15 1602.58,1098.71 1604.88,1099.84C1607.18,1100.97 1609.11,1102.44 1610.68,1104.27C1612.24,1106.09 1613.41,1108.22 1614.19,1110.65C1614.97,1113.08 1615.36,1115.6 1615.36,1118.2C1615.36,1120.54 1614.97,1122.87 1614.19,1125.16C1613.41,1127.46 1612.22,1129.53 1610.61,1131.35C1609.01,1133.17 1606.99,1134.67 1604.56,1135.84C1602.13,1137.01 1599.31,1137.6 1596.09,1137.6C1593.58,1137.6 1591.64,1137.17 1590.3,1136.3C1588.95,1135.43 1587.93,1134.35 1587.24,1133.04C1586.55,1131.74 1586.05,1130.33 1585.74,1128.81C1585.44,1127.29 1585.11,1125.88 1584.77,1124.58C1584.42,1123.28 1583.96,1122.19 1583.4,1121.32C1582.83,1120.46 1581.9,1120.02 1580.6,1120.02C1576.52,1120.02 1573.09,1120.95 1570.31,1122.82C1567.54,1124.69 1564.5,1127.14 1561.2,1130.18L1540.71,1227.38L1509.74,1231.57L1504.3,1231.48C1502.33,1231.48 1501.47,1231.3 1501.65,1230.46L1507.63,1202.22C1502.88,1208 1497.53,1213.15 1491.6,1217.68C1485.57,1222.28 1478.88,1225.99 1471.55,1228.81C1469.85,1229.46 1468.11,1230.04 1466.33,1230.55ZM1295.74,1220.09C1295.74,1221.48 1295.47,1222.78 1294.94,1223.99C1294.41,1225.2 1293.68,1226.24 1292.76,1227.12C1291.84,1228 1290.77,1228.7 1289.57,1229.21C1288.36,1229.72 1287.06,1229.98 1285.66,1229.98C1284.27,1229.98 1282.97,1229.72 1281.76,1229.21C1280.56,1228.7 1279.5,1228 1278.6,1227.12C1277.7,1226.24 1276.99,1225.2 1276.48,1223.99C1275.97,1222.78 1275.71,1221.48 1275.71,1220.09C1275.71,1218.7 1275.97,1217.4 1276.48,1216.19C1276.99,1214.98 1277.7,1213.92 1278.6,1212.99C1279.5,1212.07 1280.56,1211.35 1281.76,1210.81C1282.97,1210.28 1284.27,1210.02 1285.66,1210.02C1287.06,1210.02 1288.36,1210.28 1289.57,1210.81C1290.77,1211.35 1291.84,1212.07 1292.76,1212.99C1293.68,1213.92 1294.41,1214.98 1294.94,1216.19C1295.47,1217.4 1295.74,1218.7 1295.74,1220.09ZM1244.96,1207.76C1245.49,1205.6 1246.26,1203.27 1247.27,1200.75C1249.55,1203.21 1251.69,1205.15 1253.69,1206.58L1244.96,1207.76ZM1447.92,1164.81C1452.95,1164.47 1457.81,1163.03 1462.5,1160.52C1467.19,1158 1471.31,1154.72 1474.87,1150.69C1478.43,1146.65 1481.27,1142.05 1483.4,1136.88C1485.53,1131.72 1486.59,1126.36 1486.59,1120.8C1486.59,1117.5 1486.11,1114.86 1485.16,1112.86C1484.2,1110.86 1482.46,1109.87 1479.95,1109.87C1476.56,1109.87 1473.24,1111.49 1469.99,1114.75C1466.73,1118 1463.67,1122.24 1460.81,1127.44C1457.94,1132.65 1455.4,1138.53 1453.19,1145.09C1450.98,1151.64 1449.22,1158.22 1447.92,1164.81ZM1403.91,1062.73C1403.91,1065.68 1403.34,1068.44 1402.21,1071C1401.09,1073.56 1399.54,1075.77 1397.59,1077.64C1395.64,1079.51 1393.38,1080.98 1390.82,1082.07C1388.26,1083.15 1385.5,1083.69 1382.55,1083.69C1379.6,1083.69 1376.84,1083.15 1374.28,1082.07C1371.72,1080.98 1369.49,1079.51 1367.58,1077.64C1365.67,1075.77 1364.17,1073.56 1363.09,1071C1362,1068.44 1361.46,1065.68 1361.46,1062.73C1361.46,1059.78 1362,1057.02 1363.09,1054.46C1364.17,1051.9 1365.67,1049.64 1367.58,1047.69C1369.49,1045.74 1371.72,1044.2 1374.28,1043.07C1376.84,1041.94 1379.6,1041.38 1382.55,1041.38C1385.5,1041.38 1388.26,1041.94 1390.82,1043.07C1393.38,1044.2 1395.64,1045.74 1397.59,1047.69C1399.54,1049.64 1401.09,1051.9 1402.21,1054.46C1403.34,1057.02 1403.91,1059.78 1403.91,1062.73ZM1307.19,1034.43L1622.04,1034.43L1619.05,1050.84L1408.45,1050.84C1401.08,1030.2 1366.89,1028.09 1355.55,1050.84L1326.57,1050.84C1321.48,1042.8 1315.64,1037.56 1307.19,1034.43ZM1194.76,1050.84L1184.11,1050.84L1187.93,1034.43L1222.65,1034.43C1212.68,1037.8 1202.69,1044.3 1194.76,1050.84ZM1348.21,1027.35L1189.42,1027.35L1191.11,1019.93L1349.73,1019.59L1348.21,1027.35ZM1623.7,1027.35L1464.9,1027.35L1466.6,1019.93L1625.22,1019.59L1623.7,1027.35ZM1359.12,1026.33L1358.91,1026.33C1358.7,1025.47 1358.59,1024.62 1358.59,1023.8C1358.61,1022.53 1358.88,1021.3 1359.4,1020.12C1359.92,1018.94 1360.61,1017.79 1361.46,1016.68C1362.32,1015.57 1363.29,1014.47 1364.37,1013.39C1365.46,1012.3 1366.56,1011.22 1367.68,1010.12C1368.8,1009.03 1369.9,1007.92 1370.98,1006.79C1372.07,1005.66 1373.03,1004.49 1373.88,1003.28C1374.73,1002.08 1375.4,1000.82 1375.92,999.516C1376.43,998.211 1376.68,996.827 1376.68,995.363C1376.68,994.393 1376.61,993.499 1376.46,992.679C1376.31,991.859 1376.07,991.153 1375.73,990.563C1375.4,989.972 1374.97,989.509 1374.46,989.174C1373.95,988.839 1373.34,988.672 1372.64,988.672C1372,988.672 1371.42,988.786 1370.89,989.015C1370.36,989.245 1369.91,989.558 1369.54,989.954C1369.17,990.351 1368.88,990.818 1368.67,991.356C1368.46,991.894 1368.35,992.463 1368.35,993.062C1368.35,994.385 1368.61,995.509 1369.12,996.434C1369.63,997.36 1370.24,998.034 1370.94,998.458L1370.94,998.669C1370.33,999.233 1369.66,999.679 1368.93,1000C1368.21,1000.33 1367.52,1000.49 1366.85,1000.49C1366.32,1000.49 1365.81,1000.37 1365.34,1000.12C1364.86,999.877 1364.45,999.516 1364.09,999.039C1363.74,998.563 1363.46,997.977 1363.25,997.281C1363.04,996.584 1362.93,995.786 1362.93,994.887C1362.93,993.811 1363.18,992.723 1363.67,991.621C1364.16,990.519 1364.89,989.522 1365.84,988.632C1366.79,987.742 1367.98,987.019 1369.4,986.463C1370.82,985.908 1372.45,985.63 1374.3,985.63C1375.84,985.63 1377.25,985.855 1378.54,986.304C1379.82,986.754 1380.93,987.402 1381.87,988.248C1382.8,989.095 1383.53,990.131 1384.05,991.356C1384.57,992.582 1384.83,993.97 1384.83,995.522C1384.83,996.827 1384.61,998.043 1384.15,999.172C1383.71,1000.3 1383.1,1001.38 1382.33,1002.4C1381.56,1003.42 1380.68,1004.4 1379.67,1005.33C1378.67,1006.27 1377.61,1007.18 1376.51,1008.06C1375.41,1008.94 1374.29,1009.81 1373.15,1010.66C1372.02,1011.52 1370.93,1012.39 1369.9,1013.27C1368.87,1014.15 1367.92,1015.05 1367.07,1015.97C1366.21,1016.88 1365.51,1017.84 1364.97,1018.85C1365.57,1018.69 1366.13,1018.59 1366.66,1018.53C1367.19,1018.48 1367.73,1018.45 1368.27,1018.45C1369.17,1018.45 1370.03,1018.51 1370.85,1018.64C1371.67,1018.76 1372.46,1018.9 1373.22,1019.06C1373.98,1019.22 1374.69,1019.36 1375.37,1019.48C1376.05,1019.61 1376.7,1019.67 1377.32,1019.67C1378.24,1019.67 1379.11,1019.47 1379.95,1019.07C1380.79,1018.68 1381.67,1017.96 1382.61,1016.92L1382.77,1017.02C1383.23,1018.29 1383.45,1019.41 1383.45,1020.38C1383.45,1021.37 1383.26,1022.27 1382.86,1023.07C1382.46,1023.87 1381.93,1024.56 1381.26,1025.13C1380.59,1025.7 1379.82,1026.15 1378.94,1026.47C1378.07,1026.78 1377.16,1026.94 1376.21,1026.94C1375.34,1026.94 1374.47,1026.83 1373.59,1026.6C1372.71,1026.37 1371.81,1026.12 1370.89,1025.86C1369.97,1025.59 1369.04,1025.35 1368.08,1025.12C1367.11,1024.89 1366.13,1024.77 1365.13,1024.77C1364.19,1024.77 1363.23,1024.89 1362.26,1025.12C1361.28,1025.35 1360.23,1025.75 1359.12,1026.33ZM1398.11,1026.84C1395.99,1026.84 1394.23,1026.48 1392.82,1025.78C1391.41,1025.07 1390.29,1024.11 1389.46,1022.9C1388.63,1021.68 1388.04,1020.25 1387.7,1018.6C1387.36,1016.95 1387.18,1015.18 1387.18,1013.3C1387.18,1010.81 1387.38,1008.39 1387.78,1006.03C1388.17,1003.68 1388.75,1001.47 1389.51,999.397C1390.27,997.325 1391.19,995.429 1392.28,993.71C1393.36,991.991 1394.59,990.514 1395.95,989.28C1397.32,988.046 1398.81,987.085 1400.43,986.397C1402.06,985.709 1403.79,985.366 1405.62,985.366C1407.4,985.366 1408.95,985.679 1410.26,986.304C1411.57,986.93 1412.66,987.812 1413.51,988.949C1414.37,990.087 1415,991.458 1415.42,993.062C1415.83,994.667 1416.04,996.448 1416.04,998.405C1416.04,999.727 1415.96,1001.14 1415.81,1002.65C1415.66,1004.16 1415.43,1005.7 1415.11,1007.28C1414.8,1008.86 1414.39,1010.44 1413.88,1012.03C1413.38,1013.61 1412.78,1015.13 1412.07,1016.58C1411.37,1018.02 1410.56,1019.37 1409.64,1020.62C1408.72,1021.87 1407.69,1022.96 1406.53,1023.88C1405.38,1024.79 1404.1,1025.51 1402.7,1026.04C1401.29,1026.57 1399.76,1026.84 1398.11,1026.84ZM1450.98,1001.66C1452.21,1001.66 1453.34,1001.87 1454.36,1002.29C1455.39,1002.72 1456.26,1003.33 1456.98,1004.14C1457.7,1004.96 1458.27,1005.94 1458.67,1007.09C1459.08,1008.25 1459.28,1009.56 1459.28,1011.02C1459.28,1012.36 1459.11,1013.67 1458.77,1014.96C1458.42,1016.25 1457.94,1017.47 1457.31,1018.62C1456.69,1019.78 1455.94,1020.84 1455.06,1021.8C1454.19,1022.76 1453.23,1023.59 1452.17,1024.3C1451.11,1025 1449.98,1025.55 1448.77,1025.95C1447.56,1026.35 1446.31,1026.55 1445.03,1026.55C1443.14,1026.55 1441.5,1026.28 1440.11,1025.74C1438.71,1025.2 1437.56,1024.36 1436.66,1023.21C1435.75,1022.07 1435.07,1020.59 1434.63,1018.78C1434.19,1016.98 1433.97,1014.8 1433.97,1012.26C1433.97,1009.8 1434.2,1007.43 1434.65,1005.16C1435.1,1002.9 1435.73,1000.78 1436.54,998.815C1437.35,996.849 1438.33,995.059 1439.47,993.446C1440.62,991.832 1441.89,990.453 1443.29,989.306C1444.7,988.16 1446.2,987.274 1447.82,986.648C1449.43,986.022 1451.12,985.709 1452.88,985.709C1454.06,985.709 1455.14,985.855 1456.11,986.146C1457.08,986.437 1457.91,986.851 1458.6,987.389C1459.28,987.927 1459.81,988.575 1460.18,989.333C1460.55,990.091 1460.74,990.929 1460.74,991.845C1460.74,992.533 1460.64,993.181 1460.43,993.789C1460.23,994.398 1459.95,994.927 1459.6,995.376C1459.25,995.826 1458.83,996.179 1458.34,996.434C1457.86,996.69 1457.33,996.818 1456.77,996.818C1456.17,996.818 1455.62,996.659 1455.1,996.342C1454.59,996.024 1454.23,995.61 1454.02,995.099C1454.6,994.799 1455.04,994.354 1455.34,993.763C1455.64,993.172 1455.79,992.568 1455.79,991.951C1455.79,991.563 1455.73,991.184 1455.62,990.814C1455.51,990.444 1455.33,990.117 1455.09,989.835C1454.85,989.553 1454.56,989.328 1454.2,989.161C1453.85,988.993 1453.44,988.91 1452.96,988.91C1451.85,988.91 1450.75,989.359 1449.65,990.259C1448.56,991.158 1447.54,992.401 1446.59,993.988C1445.63,995.575 1444.79,997.461 1444.05,999.648C1443.31,1001.83 1442.74,1004.22 1442.36,1006.79L1442.54,1006.74C1443.19,1005.04 1444.26,1003.77 1445.74,1002.93C1447.22,1002.08 1448.97,1001.66 1450.98,1001.66ZM1424.82,1026.28L1417.02,1026.28L1424.16,992.48L1419.03,992.48L1419.66,989.994C1420.4,989.994 1421.23,989.959 1422.15,989.888C1423.07,989.818 1424.09,989.637 1425.22,989.346C1426.35,989.055 1427.59,988.632 1428.95,988.077C1430.3,987.521 1431.8,986.75 1433.44,985.762L1424.82,1026.28ZM1405.54,988.592C1404.67,988.592 1403.82,988.958 1402.99,989.69C1402.15,990.422 1401.35,991.418 1400.59,992.679C1399.84,993.939 1399.13,995.416 1398.48,997.109C1397.83,998.801 1397.27,1000.61 1396.8,1002.54C1396.33,1004.48 1395.96,1006.47 1395.69,1008.53C1395.41,1010.6 1395.28,1012.63 1395.28,1014.64C1395.28,1015.67 1395.33,1016.66 1395.42,1017.63C1395.52,1018.6 1395.7,1019.47 1395.95,1020.23C1396.21,1020.98 1396.56,1021.59 1397.02,1022.05C1397.48,1022.51 1398.08,1022.74 1398.82,1022.74C1399.7,1022.74 1400.56,1022.38 1401.4,1021.67C1402.24,1020.95 1403.02,1019.97 1403.75,1018.73C1404.49,1017.49 1405.15,1016.02 1405.76,1014.34C1406.37,1012.66 1406.89,1010.84 1407.32,1008.89C1407.76,1006.94 1408.09,1004.92 1408.33,1002.81C1408.57,1000.7 1408.69,998.599 1408.69,996.5C1408.69,995.442 1408.62,994.437 1408.5,993.485C1408.38,992.533 1408.19,991.691 1407.93,990.959C1407.68,990.228 1407.35,989.65 1406.95,989.227C1406.56,988.804 1406.09,988.592 1405.54,988.592ZM1441.88,1014.43C1441.88,1015.86 1441.98,1017.07 1442.18,1018.07C1442.39,1019.07 1442.67,1019.88 1443.04,1020.52C1443.41,1021.15 1443.86,1021.61 1444.39,1021.89C1444.92,1022.17 1445.51,1022.31 1446.16,1022.31C1446.92,1022.31 1447.67,1022.03 1448.41,1021.47C1449.15,1020.9 1449.82,1020.12 1450.41,1019.13C1451,1018.13 1451.48,1016.95 1451.84,1015.6C1452.2,1014.24 1452.38,1012.77 1452.38,1011.18C1452.38,1010.14 1452.27,1009.26 1452.05,1008.53C1451.83,1007.81 1451.53,1007.23 1451.15,1006.78C1450.77,1006.33 1450.32,1006 1449.79,1005.8C1449.26,1005.59 1448.68,1005.49 1448.04,1005.49C1446.93,1005.49 1445.99,1005.71 1445.21,1006.13C1444.44,1006.55 1443.8,1007.15 1443.31,1007.93C1442.81,1008.7 1442.45,1009.64 1442.22,1010.74C1441.99,1011.85 1441.88,1013.08 1441.88,1014.43ZM1350.22,1014.14L1262.6,1014.14L1264.47,1006.33L1351.82,1006.33L1350.22,1014.14ZM1555.04,1014.14L1467.42,1014.14L1469.29,1006.33L1556.65,1006.33L1555.04,1014.14Z" style="fill:rgb(232,153,74);"/>
    </g>
</svg>
