<?xml version="1.0" standalone="no"?>
<!DOCTYPE svg PUBLIC "-//W3C//DTD SVG 1.1//EN" "http://www.w3.org/Graphics/SVG/1.1/DTD/svg11.dtd">
<svg width="100%" height="100%" viewBox="0 0 32 32" version="1.1" xmlns="http://www.w3.org/2000/svg" xmlns:xlink="http://www.w3.org/1999/xlink" xml:space="preserve" style="fill-rule:evenodd;clip-rule:evenodd;stroke-linejoin:round;stroke-miterlimit:1.41421;">
    <g transform="matrix(1.14569,0,0,1.14569,-2.27108,-4.45709)">
        <path d="M25.859,30.088L6.036,30.088C3.799,30.088 1.982,28.272 1.982,26.034L1.982,9.677C1.982,7.44 3.799,5.623 6.036,5.623L25.859,5.623C28.097,5.623 29.913,7.44 29.913,9.677L29.913,26.034C29.913,28.272 28.097,30.088 25.859,30.088ZM9.011,28.478L9.011,23.873L3.727,23.873L3.727,25.661C3.727,26.408 4.024,27.125 4.552,27.653C5.081,28.182 5.798,28.478 6.545,28.478L9.011,28.478ZM9.748,23.873L9.748,28.478L15.579,28.478L15.579,23.873L9.748,23.873ZM16.316,23.873L16.316,28.478L22.136,28.478L22.136,23.873L16.316,23.873ZM28.168,23.873L22.873,23.873L22.873,28.478L25.35,28.478C26.098,28.478 26.814,28.182 27.343,27.653C27.871,27.125 28.168,26.408 28.168,25.661L28.168,23.873ZM3.727,18.593L3.727,23.136L9.011,23.136L9.011,18.593L3.727,18.593ZM9.748,18.593L9.748,23.136L15.579,23.136L15.579,18.593L9.748,18.593ZM16.316,18.593L16.316,23.136L22.136,23.136L22.136,18.593L16.316,18.593ZM22.873,18.593L22.873,23.136L28.168,23.136L28.168,18.593L22.873,18.593ZM3.727,13.119L3.727,17.856L9.011,17.856L9.011,13.119L3.727,13.119ZM9.748,13.119L9.748,17.856L15.579,17.856L15.579,13.119L9.748,13.119ZM16.316,13.119L16.316,17.856L22.136,17.856L22.136,13.119L16.316,13.119ZM22.873,13.119L22.873,17.856L28.168,17.856L28.168,13.119L22.873,13.119Z" style="fill:white;"/>
    </g>
</svg>
