<?xml version="1.0" standalone="no"?>
<!DOCTYPE svg PUBLIC "-//W3C//DTD SVG 1.1//EN" "http://www.w3.org/Graphics/SVG/1.1/DTD/svg11.dtd">
<svg width="100%" height="100%" viewBox="0 0 350 353" version="1.1" xmlns="http://www.w3.org/2000/svg" xmlns:xlink="http://www.w3.org/1999/xlink" xml:space="preserve" style="fill-rule:evenodd;clip-rule:evenodd;stroke-linejoin:round;stroke-miterlimit:1.41421;">
    <circle cx="175" cy="176.5" r="175" style="fill:white;"/>
    <g>
        <g transform="matrix(0.980202,0,0,0.980202,3.07161,4.29225)">
            <path d="M175.4,341.586C83.9,341.586 9.501,267.187 9.501,175.686C9.501,84.186 83.9,9.786 175.4,9.786C266.901,9.786 341.301,84.186 341.301,175.686C341.303,267.187 266.901,341.586 175.4,341.586Z" style="fill:rgb(0,111,53);fill-rule:nonzero;"/>
        </g>
        <g transform="matrix(0.980202,0,0,0.980202,3.07161,4.29225)">
            <path d="M133.4,102.186C133.4,87.786 146.6,75.486 169.701,75.486C210.501,75.486 245.301,97.386 268.401,122.286L268.401,78.786C241.701,58.086 208.1,45.786 170.6,45.786C125.6,45.786 75.5,73.387 75.5,124.686C75.5,222.487 224,187.387 224,244.086C224,259.086 204.201,273.187 179.601,273.187C139.401,273.187 99.501,248.887 77.601,217.387L77.601,269.586C100.701,290.286 143.001,306.786 179.601,306.786C245.301,306.786 284.302,259.985 284.302,219.785C284.303,120.186 133.4,162.784 133.4,102.186Z" style="fill:white;fill-rule:nonzero;"/>
        </g>
    </g>
</svg>
