<?xml version="1.0" encoding="utf-8"?>
<!-- Generator: Adobe Illustrator 16.0.4, SVG Export Plug-In . SVG Version: 6.00 Build 0)  -->
<!DOCTYPE svg PUBLIC "-//W3C//DTD SVG 1.1//EN" "http://www.w3.org/Graphics/SVG/1.1/DTD/svg11.dtd">
<svg version="1.1" id="Layer_1" xmlns="http://www.w3.org/2000/svg" xmlns:xlink="http://www.w3.org/1999/xlink" x="0px" y="0px"
	 width="50px" height="37.71px" viewBox="0 0 50 37.71" enable-background="new 0 0 50 37.71" xml:space="preserve">
<g>
	<path fill="#FFFFFF" d="M21.322,18.335C-1.812-4.799-1.564,41.222,21.322,18.335c1.92-1.92,3.636-3.569,3.636-3.569
		c-12.992-12.992,12.939-12.939,0,0c0,0,0.858,0.869,3.557,3.569c22.566,22.568,23.021-23.023,0,0
		c-2.755,2.756-1.898,1.955-3.625,3.681c-14.038,14.031,13.806,13.806,0,0C22.33,19.455,21.322,18.335,21.322,18.335z"/>
	<g>
		<path fill="#828282" d="M21.322,17.71C17.915,14.329,9.238,7.036,5.129,13.565c-2.02,3.21-1.529,9.056,1.843,11.189
			c2.179,1.379,4.925,0.724,7.098-0.297c4.311-2.025,7.522-5.828,10.888-9.066c0.068-0.065,0.068-1.181,0-1.25
			c-1.159-1.174-2.239-2.43-3.019-3.892c-0.28-0.524-0.489-1.083-0.627-1.66c-0.06-0.25-0.008-0.855-0.083-0.132
			c0.023-0.222,0.083-0.437,0.152-0.648c0.497-1.498,2.167-2.145,3.622-2.142c1.465,0.003,2.956,0.741,3.501,2.157
			c0.064,0.165,0.102,0.339,0.135,0.512c0.198,1.013,0.121-0.769-0.023,0.101c-0.093,0.567-0.312,1.109-0.555,1.626
			c-0.726,1.548-1.913,2.873-3.102,4.078c-0.069,0.07-0.069,1.18,0,1.25c3.174,3.213,6.299,6.713,10.369,8.811
			c2.313,1.193,5.224,1.846,7.543,0.324c3.334-2.186,3.617-8.116,1.556-11.227c-1.313-1.983-3.627-2.56-5.869-2.128
			c-4.396,0.846-8.004,4.485-11.019,7.519c-2.555,2.571-6.296,5.507-6.707,9.351c-0.231,2.17,0.289,4.18,2.583,4.856
			c2.571,0.758,5.414-0.726,5.442-3.549C28.908,24.231,24.471,21.192,21.322,17.71c0.203,0.224-0.211,1.016,0,1.25
			c2.632,2.91,6.977,5.893,7.505,10.109c-0.087-0.689-0.052,0.014-0.141,0.309c-0.073,0.244-0.19,0.472-0.32,0.69
			c-0.273,0.46-0.688,0.822-1.136,1.105c-0.899,0.567-2.026,0.729-3.068,0.621c-1.027-0.107-2.021-0.567-2.683-1.37
			c-0.324-0.394-0.512-0.875-0.61-1.37c-0.06-0.299-0.006-0.788-0.047,0.369c0.007-0.207,0.042-0.411,0.078-0.614
			c0.075-0.427,0.221-0.839,0.381-1.239c0.864-2.172,2.598-3.904,4.21-5.532c1.586-1.602,3.125-3.25,4.8-4.762
			c3.57-3.223,11.755-8.451,14.718-1.649c0.201,0.461,0.339,0.949,0.441,1.44c0.053,0.25,0.087,0.504,0.115,0.758
			c0.126,1.121,0.104-0.686,0.009,0.423c-0.091,1.058-0.401,2.095-0.906,3.027c-1.096,2.021-3.172,3.033-5.433,2.88
			c-2.532-0.171-4.887-1.606-6.874-3.073c-2.722-2.007-5.034-4.543-7.403-6.941c0,0.417,0,0.833,0,1.25
			c2.21-2.24,3.813-4.514,3.731-7.716c-0.052-2.045-1.764-3.203-3.687-3.257c-1.896-0.054-3.675,1.107-3.799,3.096
			c-0.202,3.244,1.542,5.636,3.755,7.878c0-0.417,0-0.833,0-1.25c-3.528,3.394-6.877,7.336-11.468,9.328
			c-2.301,0.999-5.064,1.274-7.119-0.397c-0.804-0.653-1.373-1.556-1.757-2.508c-0.19-0.473-0.319-0.97-0.415-1.47
			c-0.048-0.253-0.078-0.51-0.103-0.766c-0.024-0.253,0-0.933-0.027,0.195c0.005-0.208,0.022-0.415,0.043-0.621
			c0.207-2.058,1.244-4.083,3.12-5.071c4.915-2.588,10.985,3.049,14.089,6.13C21.119,18.758,21.535,17.922,21.322,17.71z"/>
	</g>
</g>
</svg>
