<?xml version="1.0" encoding="utf-8"?>
<!-- Generator: Adobe Illustrator 16.0.4, SVG Export Plug-In . SVG Version: 6.00 Build 0)  -->
<!DOCTYPE svg PUBLIC "-//W3C//DTD SVG 1.1//EN" "http://www.w3.org/Graphics/SVG/1.1/DTD/svg11.dtd">
<svg version="1.1" id="Layer_1" xmlns="http://www.w3.org/2000/svg" xmlns:xlink="http://www.w3.org/1999/xlink" x="0px" y="0px"
	 width="200px" height="50px" viewBox="0 0 200 50" enable-background="new 0 0 200 50" xml:space="preserve">
<g>
	<g>
		<g>
			<path fill="#828282" d="M92.198,23.551c3.622,3.012,10.4,7.302,10.637,12.519c0.001-0.409,0.001-0.818,0.002-1.228
				c-0.392,3.56-5.381,2.852-5.784-0.377c0.001,0.388,0.002,0.776,0.003,1.165c0.106-4.653,7.328-10.327,10.685-13.388
				c3.096-2.823,7.898-4.183,11.773-5.458c6.024-1.983,12.307-3.247,18.599-3.982c11.326-1.323,19.067,4.647,28.634,9.743
				c4.897,2.608,10.055,4.491,15.608,4.945c3.701,0.303,10.677,0.261,13.017-3.363c2.515-3.895-4.923-5.86-7.132-6.216
				c-12.19-1.966-22.516,5.709-32.612,11.222c-4.228,2.308-8.556,4.038-13.431,3.897c-5.974-0.172-11.95-1.644-17.667-3.279
				c-7.982-2.283-15.016-5.168-20.918-11.027c0.204,0.203-0.212,1.037,0,1.25c0.103,0.104,0.207,0.207,0.31,0.311
				c0-0.417,0-0.833,0-1.25c-2.848-2.845-7.579-6.106-7.969-10.446c0,0.409,0.001,0.818,0.001,1.228
				c0.234-3.54,5.237-3.438,5.461,0.074c0-0.409,0.001-0.818,0.001-1.228c-0.233,2.698-2.198,4.083-3.383,6.288
				c-0.074,0.136-0.095,1.155,0,1.262c0-0.417,0-0.833,0-1.25c-3.593,2.727-6.244,6.541-9.924,9.204
				c-7.369,5.333-16.587,7.673-25.5,8.593c-11.472,1.184-20.127-2.336-29.601-8.431c-7.534-4.847-15.92-10.635-25.184-6.758
				c-2.83,1.185-4.253,4.35-2.752,7.057c2.009,3.623,8.737,3.34,12.085,3.045c5.067-0.445,9.836-2.955,14.25-5.293
				c4.828-2.558,9.537-5.216,14.729-6.985c5.798-1.977,11.825-1.803,17.824-1.087C72.983,15.383,84.797,17.846,92.198,23.551
				c-0.195-0.151,0.208-1.09,0-1.25c-5.229-4.032-12.653-5.856-18.914-7.462c-9.391-2.409-19.16-3.418-28.465-0.247
				c-7.985,2.722-14.788,8.038-22.786,10.754C17.813,26.78,5.396,28.46,4.508,21.705c0,0.409,0.001,0.818,0.002,1.228
				c0.263-4.096,5.524-5.07,8.736-5.369c4.894-0.456,9.454,1.741,13.572,4.111c9.365,5.387,17.581,12.346,28.911,12.642
				c10.504,0.275,21.579-2.214,30.588-7.71c4.562-2.784,7.519-7.21,11.715-10.395c0.064-0.049,0.064-1.177,0-1.25
				c0,0-0.001-0.001-0.001-0.001c0,0.417,0,0.833,0,1.25c0.152-0.879,1.655-2.131,2.124-2.814c0.769-1.118,1.259-2.435,1.267-3.794
				c0.012-2.069-0.712-3.833-3.149-3.675c-2.068,0.134-2.34,2.111-2.324,3.728c0.043,4.343,5.211,7.869,7.974,10.629
				c-0.204-0.204,0.213-1.037,0-1.25c-0.103-0.104-0.207-0.207-0.31-0.311c0,0.417,0,0.833,0,1.25
				c4.641,4.607,9.441,7.074,15.613,9.312c8.458,3.067,19.479,6.572,28.501,4.447c9.025-2.126,16.675-9.021,25.186-12.547
				c4.94-2.046,10.041-2.605,15.328-2.025c2.385,0.262,6.877,1.101,7.347,4.046c0-0.417,0-0.833,0-1.25
				c-0.675,6.668-16.249,4.101-20.004,3.063c-8.933-2.467-16.255-8.672-24.704-12.25c-7.987-3.381-17.82-0.796-25.862,1.189
				c-8.319,2.053-15.092,4.803-21.144,10.859c-2.107,2.108-11.221,10.743-4.892,13.481c2.444,1.058,3.874-1.031,3.861-3.147
				c-0.032-5.408-6.93-9.763-10.644-12.851C92.397,22.466,91.987,23.376,92.198,23.551z"/>
		</g>
	</g>
	<g>
		<g>
			<path fill="#828282" d="M98.981,22.258c4.892-4.917,9.51-9.493,16.098-12.058c9.677-3.769,23.057-4.697,33.07-2.17
				c7.38,1.862,9.856,8.019,4.207,13.448c-3.569,3.43-20.789,9.213-20.96,0.279c-0.001,0.388-0.002,0.776-0.003,1.165
				c2.487-14.036,37.633,5.818,17.673,14.666c-4.961,2.199-11.135,1.613-16.371,1.246c-5.672-0.398-11.272-1.644-16.479-3.94
				c-7.464-3.292-12.296-9.544-18.215-14.831C90.035,12.947,78.856,8.426,68.523,6.18c-6.88-1.496-18.467-1.414-23.154,4.879
				c-5.491,7.373,5.131,16.81,12.057,17.032c3.07,0.098,7.054-1.286,7.063-4.823c0.01-3.547-4.047-3.997-6.873-4.155
				C51.3,18.76,44.832,24.067,44.814,30.522c-0.025,9.261,10.722,11.005,18.025,11.312c6.162,0.259,11.997-2.868,17.248-5.748
				C86.91,32.345,93.409,27.696,98.981,22.258c0.213-0.208-0.203-1.052,0-1.25C87.143,32.56,65.632,47.79,48.836,37.103
				C33.619,27.419,62.384,13.52,64.483,23.727c0-0.409-0.001-0.818-0.001-1.228c-0.19,3.804-5.363,4.539-8.275,4.265
				c-2.79-0.262-5.384-1.809-7.481-3.573c-4.386-3.691-6.198-9.446-0.957-13.181c7.218-5.144,18.447-3.488,26.323-1.128
				c10.284,3.082,20.023,8.266,27.551,15.966c5.855,5.989,11.815,10.788,19.955,13.29c5.81,1.785,12.004,2.155,18.041,2.212
				c4.499,0.042,9.443-0.639,12.943-3.695c2.573-2.247,2.752-6.149,1.921-9.234c-1.905-7.066-10.246-10.609-16.916-10.3
				c-3.075,0.143-6.209,2.067-6.2,5.341c0.013,4.501,4.906,5.121,8.549,5.04c7.121-0.157,16.075-4.659,16.028-12.698
				c-0.072-12.228-22.686-9.19-29.729-8.399c-11.723,1.317-19.205,6.515-27.253,14.604C98.768,21.222,99.185,22.054,98.981,22.258z"
				/>
		</g>
	</g>
</g>
</svg>
