<?xml version="1.0" encoding="utf-8"?>
<!-- Generator: Adobe Illustrator 16.0.4, SVG Export Plug-In . SVG Version: 6.00 Build 0)  -->
<!DOCTYPE svg PUBLIC "-//W3C//DTD SVG 1.1//EN" "http://www.w3.org/Graphics/SVG/1.1/DTD/svg11.dtd">
<svg version="1.1" id="Layer_1" xmlns="http://www.w3.org/2000/svg" xmlns:xlink="http://www.w3.org/1999/xlink" x="0px" y="0px"
	 width="67px" height="69.333px" viewBox="0 0 67 69.333" enable-background="new 0 0 67 69.333" xml:space="preserve">
<g>
	<g>
		<path fill="#828282" d="M48.418,59.709c6.41-0.856,2.053-7.672-1.417-4.139c-4.271,4.35-14.031-8.91-16.293-11.366
			c-4.065-4.413-9.154-12.692-15.332-14.26c-3.281-0.832-4.381,2.458-4.338,5.001c0.119,6.93,7.423,2.431,10.047-0.083
			c3.197-3.062,6.371-6.153,9.561-9.223c2.335-2.247,6.431-5.417,6.576-9.039c0.106-2.701-0.655-4.89-3.781-5.204
			c-2.923-0.294-4.317,1.994-4.138,4.562c0.392,5.625,7.304,10.22,10.954,13.869c3.117,3.118,6.267,7.352,10.614,8.649
			c4.997,1.491,6.263-6.574,2.905-8.808c-4.021-2.675-9.666,4.595-11.792,7.02c-4.83,5.513-9.286,11.419-14.708,16.381
			c-1.876,1.717-3.439,2.77-6,2.665c-2.047-0.085-4.145-2.764-6.109-0.282c-1.448,1.829,2.324,4.067,3.417,4.256
			c-0.061-0.011,0.079-1.236,0-1.25c-3.021-0.521-4.275-2.779-0.129-2.637c1.814,0.062,2.822,1.706,5.144,1.029
			c5.128-1.497,9.836-8.875,13.095-12.695c3.822-4.483,7.608-10.287,12.979-13.039c2.867-1.47,6.74,0.318,5.608,3.885
			c-2.684,8.449-15.928-7.326-18.48-9.88c-1.988-1.987-10.727-8.901-5.852-11.953c2.474-1.548,6.037,0.051,6.292,2.932
			c-0.001-0.409-0.001-0.818-0.002-1.228c-0.179,4.51-4.989,7.999-7.956,10.821c-3.871,3.684-7.543,8.289-12.141,11.029
			c-6.073,3.62-8.115-5.675-2.314-5.604c3.29,0.04,6.083,3.501,8.106,5.724c3.356,3.686,6.65,7.426,10.055,11.068
			c2.919,3.123,5.896,6.373,9.36,8.906c1.375,1.005,2.474,1.072,4.122,0.433c1.406-0.547,4.271-2.997,5.21-0.095
			c0-0.417,0-0.833,0-1.25c-0.319,1.636-1.721,2.347-3.263,2.553C48.354,58.468,48.463,59.703,48.418,59.709L48.418,59.709z"/>
	</g>
</g>
<g>
	<g>
		<path fill="#828282" d="M29.457,33.725c-5.206-4.98-15.05-12.191-22.728-8.123c-2.203,1.167-1.637,4.179-0.3,5.69
			c0-0.417,0-0.833,0-1.25c-7.661-2.67-6.008,10.331,0,7.917c0-0.417,0-0.833,0-1.25c-1.822,2.106-0.742,5.046,1.416,6.384
			c7.924,4.914,18.35-4.878,23.325-9.82c5.453-5.416,11.182-11.639,11.182-19.806c0-2.478-1.767-10.914-5.802-7.526
			c0,0.417,0,0.833,0,1.25c1.141-2.838,0.238-5.629-3.079-6.293C29.2,0.042,28.914,4.409,29.883,7.19c0-0.417,0-0.833,0-1.25
			c-3.945-3.43-5.115,3.642-5.099,6.341c0.053,8.984,5.813,15.467,11.634,21.636c5.102,5.406,14.505,13.188,22.529,9.176
			c2.307-1.153,3.08-4.417,1.377-6.384c0,0.417,0,0.833,0,1.25c6.008,2.414,7.662-10.587,0-7.917c0,0.417,0,0.833,0,1.25
			c2.394-2.715,0.906-5.67-2.452-6.499c-8.487-2.095-17.078,5.341-22.356,11.002c-3.549,3.805-7.177,7.567-10.932,11.168
			c-1.942,1.862-5.122,4.235-7.927,2.89c-1.7-0.816-1.99-2.968-1.334-4.508c0.986-2.313,3.552-2.202,5.52-1.412
			c4.556,1.829,7.819,6.834,9.397,11.223c1.374,3.819,0.035,8.688,1.898,12.208c1.848,3.491,3.781-3.848,3.888-4.526
			c0.847-5.367,1.609-10.447,5.39-14.628c1.879-2.078,4.943-4.504,7.939-3.969c1.976,0.352,2.888,2.718,2.353,4.435
			c-2.57,8.244-14.571-6.111-16.142-7.806C33.443,38.578,31.335,36.225,29.457,33.725c0.197,0.262-0.204,0.979,0,1.25
			c1.606,2.138,3.401,4.14,5.184,6.129c3.426,3.822,7.156,8.843,12.05,10.842c3.585,1.464,5.335-1.616,5.317-4.677
			c-0.031-5.231-4.755-4.816-8.11-2.48c-4.263,2.967-6.188,7.478-7.187,12.4c-0.47,2.314-0.13,9.055-3.334,9.521
			c-2.642,0.385-2.017-6.385-2.152-7.921c-0.529-6.029-3.502-11.111-8.237-14.817c-3.308-2.59-8.119-2.491-8.148,2.553
			c-0.02,3.307,1.651,5.778,5.299,4.642c4.439-1.384,8.006-6.474,11.09-9.637c2.086-2.14,4.17-4.292,6.16-6.522
			c4.004-4.488,9.833-7.825,15.722-8.958c2.381-0.458,8.288-0.543,8.345,3.091c0.001-0.388,0.002-0.776,0.003-1.164
			c-0.18,0.859-0.556,1.412-1.134,2.067c-0.125,0.142,0.134,1.203,0,1.25c2.722-0.948,4.951-0.231,5.092,2.931
			c0-0.409,0.001-0.818,0.001-1.228c-0.23,2.922-2.143,4.899-5.093,3.714c0.146,0.059-0.132,1.098,0,1.25
			c0.547,0.631,0.818,1.149,0.867,2.013c0.001-0.409,0.001-0.818,0.002-1.228c-0.418,3.777-5.288,4.278-8.233,4.015
			c-6.835-0.612-12.685-6.004-17.149-10.736c-4.631-4.908-8.799-9.736-10.526-16.434c-0.576-2.234-0.18-12.553,4.599-8.398
			c-0.171-0.149,0.085-1.005,0-1.25c-0.331-0.733-0.494-1.504-0.489-2.314c-0.001,0.355-0.003,0.711-0.004,1.067
			c0.788-4.004,7.552-3.108,7.6,0.853c0.002-0.355,0.004-0.711,0.005-1.067C36.937,4.993,36.789,5.48,36.55,5.94
			c-0.098,0.243,0.176,1.103,0,1.25c3.153-2.647,5.34,2.824,5.706,5.125c1.157,7.271-5.793,14.451-10.404,19.031
			c-4.918,4.885-10.026,9.707-17.005,11.261c-3.075,0.685-8.806,0.185-9.28-3.862c0,0.409,0.001,0.818,0.001,1.228
			c0.044-0.864,0.314-1.381,0.86-2.013c0.131-0.152-0.146-1.191,0-1.25c-2.951,1.186-4.862-0.792-5.093-3.714
			c0,0.409,0.001,0.818,0.001,1.228c0.141-3.162,2.369-3.88,5.091-2.931c-0.133-0.047,0.125-1.108,0-1.25
			c-0.605-0.685-1.111-1.327-1.122-2.29c-0.001,0.355-0.003,0.711-0.004,1.066c0.689-3.202,5.305-3.09,7.784-2.86
			c6.331,0.586,11.947,4.785,16.37,9.017C29.253,34.78,29.669,33.929,29.457,33.725z"/>
	</g>
</g>
</svg>
