<?xml version="1.0" encoding="utf-8"?>
<!-- Generator: Adobe Illustrator 16.0.4, SVG Export Plug-In . SVG Version: 6.00 Build 0)  -->
<!DOCTYPE svg PUBLIC "-//W3C//DTD SVG 1.1//EN" "http://www.w3.org/Graphics/SVG/1.1/DTD/svg11.dtd">
<svg version="1.1" id="Layer_1" xmlns="http://www.w3.org/2000/svg" xmlns:xlink="http://www.w3.org/1999/xlink" x="0px" y="0px"
	 width="200px" height="150px" viewBox="0 0 200 150" enable-background="new 0 0 200 150" xml:space="preserve">
<g>
	<g>
		<path fill="#828282" d="M47.443,119.89c-3.392,3.186-9.334,2.437-10.074-2.751c0,0.416,0,0.833,0,1.25
			c0.528-6.046,6.943-7.4,11.798-6.14c4.819,1.252,8.036,1.99,12.077-1.285c5.239-4.245,7.616-11.312,7.578-17.852
			c-0.046-7.929-6.023-16.717-13.904-18.842c-3.474-0.937-4.871,1.786-4.842,4.683c0.056,5.573,6.395,5.17,10.029,3.567
			c4.577-2.018,9.223-5.501,13.167-8.568c4.563-3.548,5.941-8.377,6.572-13.908c0.414-3.626,0.629-8.628-1.661-11.616
			c-2.695-3.516-4.823,1.781-4.83,4.026c-0.026,9.604,13.568,22.445,23.566,19.133c8.216-2.722,9.694-14.347,9.558-21.638
			c-0.218-11.773-5.294-24.175-16.708-29.057c-10.641-4.552-25.356-1.157-28.433,11.076c-3.081,12.249,4.336,25.348,11.096,34.875
			c7.9,11.135,18.051,20.533,28.483,29.239c6.024,5.027,11.748,10.61,16.196,17.105c4.81,7.021,7.77,16.171,0.763,22.748
			c-5.313,4.988-13.605,6.201-20.587,5.617c-6.81-0.569-14.395-3.387-17.774-9.736c-4.889-9.188,3.905-20.059,9.719-26.426
			c7.831-8.575,17.412-15.415,25.754-23.478c7.928-7.662,15.365-16.085,20.92-25.651c4.524-7.793,8.236-18.453,4.077-27.221
			c-4.458-9.397-17.524-11.415-26.591-9.159C101.142,22.931,94.5,36.04,93.672,47.775c-0.551,7.811,0.116,18.302,7.515,22.835
			c4.64,2.843,10.257,0.568,14.387-2.068c4.804-3.067,11.875-8.736,11.911-15.008c0.018-2.918-1.44-5.71-4.826-5.122
			c-3.179,0.552-3.233,4.37-3.063,6.881c0.29,4.292,3.272,8.326,5.418,11.853c3.487,5.734,7.484,11.041,12.666,15.345
			c2.424,2.013,12.85,8.332,12.979,0.758c0.047-2.734-0.952-5.37-4.248-4.854c-4.166,0.651-7.45,6.07-9.67,9.042
			c-3.339,4.468-6.189,9.547-7.165,15.089c-1.775,10.085,6.307,16.837,15.873,17.403c6.312,0.374,19.447-10.024,21.67,0.906
			c-0.001-0.388-0.002-0.776-0.003-1.164c-0.14,5.937-7.412,7.032-10.45,2.647c0.192,0.277-0.198,0.964,0,1.25
			c4.913,7.09,13.275-0.66,9.104-6.982c-3.373-5.111-10.486-0.117-14.541,1.265c-3.995,1.361-8.163,0.896-12.07-0.453
			c-3.18-1.099-5.999-3.073-7.906-5.854c-3.476-5.068-1.142-11.406,1.361-16.338c2.724-5.366,7.068-12.36,12.624-15.166
			c2.72-1.374,5.345,0.324,5.416,3.272c0.001-0.409,0.002-0.818,0.002-1.228c-0.658,8.737-12.941-0.735-15.265-2.819
			c-4.619-4.144-8.039-9.524-11.236-14.781c-2.042-3.357-5.803-8.538-4.082-12.7c1.779-4.303,8.179-1.757,7.133,2.631
			c-1.593,6.677-10.283,12.954-16.363,15.331c-12.288,4.804-17.584-9.671-17.255-19.319c0.426-12.496,7.124-25.682,19.807-29.294
			c9.226-2.627,21.895,0.084,26.591,9.159c7.169,13.854-8.083,31.964-16.422,41.434c-8.715,9.896-18.979,17.96-28.681,26.806
			c-5.209,4.749-10.104,10.068-13.576,16.24c-3.097,5.503-4.73,12.773-1.608,18.641c6.624,12.445,29.157,12.242,38.464,3.505
			c4.422-4.15,4.92-10.514,3.355-16.066C117.06,105.029,99.912,94.672,88.8,84.114c-8.643-8.212-16.576-17.448-22.298-27.953
			c-3.796-6.969-7.01-15.605-5.004-23.582c3.137-12.472,18.782-14.498,28.979-10.135c12.43,5.317,17.441,21.237,15.534,33.68
			c-1.606,10.479-9.242,18.392-19.787,12.491c-5.164-2.89-13.9-10.273-12.709-17.035c0.27-1.531,1.393-3.031,3.064-2.894
			c2.165,0.176,2.889,3.43,3.194,5.051c1.027,5.456-0.511,12.332-4.042,16.639c-3.255,3.97-8.527,6.433-12.73,9.222
			c-3.661,2.429-12.364,5.426-12.919-1.713c0.001,0.389,0.002,0.776,0.003,1.165c0.13-8.173,10.714-0.314,12.916,1.798
			c8.586,8.238,6.558,21.306-1.755,28.865c-3.326,3.025-6.708,2.789-10.838,1.641c-5.091-1.415-12.433-1.133-13.037,5.784
			c-0.501,5.743,6.247,7.596,10.074,4.001C47.656,120.939,47.241,120.08,47.443,119.89L47.443,119.89z"/>
	</g>
</g>
<g>
	<g>
		<path fill="#828282" d="M100,77.691c-16.236-12.417-19.877-35.11-11.762-53.333c2.081-4.672,5.99-10.808,11.76-10.856
			c5.711-0.047,9.689,7.022,11.755,11.381c9.113,19.239,3.31,41.331-13.323,54.003c-9.479,7.222-18.97,16.373-23.566,27.6
			c-1.415,3.454-2.086,7.706-1.046,11.382c2.709,9.574,26.038,5.276,22.707-3.825c-0.937-2.56-3.871,0.27-4.59,1.31
			c-1.486,2.15-2.157,5.171-2.157,7.769c0,5.704,4.266,8.632,9.707,8.774c5.844,0.153,10.561-3.82,10.577-9.712
			c0.006-2.15-0.364-4.229-1.165-6.233c-0.623-1.557-3.9-4.525-4.604-1.432c-1.035,4.547,5.254,7.145,8.499,8.325
			c5.45,1.984,10.997,0.037,11.326-6.316C124.939,100.638,111.749,86.564,100,77.691c0.194,0.146-0.207,1.094,0,1.25
			c6.732,5.085,12.647,10.989,17.369,17.999c3.521,5.229,7.356,12.514,6.674,19.061c-0.387,3.716-2.86,6.199-6.571,6.423
			c-2.756,0.166-13.985-3.11-13.089-7.053c0.31-1.358,1.988-0.919,2.784-0.445c2.604,1.551,3.117,6.596,2.577,9.037
			c-1.079,4.877-6.646,6.778-11.046,6.663c-5.758-0.151-9.732-4.294-8.377-10.046c0.539-2.288,1.641-5.052,3.9-6.113
			c1.276-0.6,2.312,0.428,2.504,1.606c-0.001-0.389-0.002-0.777-0.003-1.165c-0.098,6.978-14.239,7.976-18.899,6.127
			c-8.135-3.227-2.964-14.179,0.028-19.226c6.789-11.448,17.851-17.963,26.978-27.125c6.884-6.91,10.331-16.426,11.1-26
			c0.919-11.458-1.479-25.848-10.349-33.897C93.672,3.979,85.726,28.275,84.525,36.096C82.077,52.051,86.857,68.89,100,78.941
			C99.805,78.792,100.207,77.85,100,77.691z"/>
	</g>
</g>
<g>
	<g>
		<path fill="#828282" d="M21,100.568c-4.87-4.445-9.618-0.417-9.209,5.186c0.359,4.935,7.047,5.353,10.637,5.289
			c5.617-0.098,11.839-1.7,15.38-6.357c3.519-4.628,1.48-11.276-2.387-14.844c-4.305-3.971-10.438-4.554-15.992-4.676
			c-4.392-0.097-11.889-1.624-12.41-7.09c0.001,0.41,0.001,0.819,0.002,1.229c0.483-9.706,16.99-5.086,21.998-9.741
			c2.348-2.183,1.792-6.789-0.83-8.359c-5.009-2.998-9.583,3.81-10.496,7.711c-0.784,3.351-0.418,7.267,0.442,10.531
			c4.884,18.534,28.86,20.906,43.991,15.055c14.28-5.522,20.41-19.242,28.695-30.883c2.863-4.024,6.167-6.964,11.344-6.04
			c6.348,1.133,10.421,7.428,13.512,12.493c8.181,13.407,15.132,29.247,33.173,29.755c15.382,0.434,34.577-7.526,37.054-24.54
			c0.406-2.794,0.239-5.942-0.801-8.559c-1.979-4.984-8.843-6.355-12.08-1.711c-2.296,3.294,0.466,7.227,3.71,8.125
			c4.83,1.336,15.657,0.546,16.084,8.128c0.001-0.409,0.002-0.818,0.002-1.228c-0.306,3.909-5.099,5.146-8.242,5.821
			c-5.329,1.147-10.735-0.231-15.435,3.026c-4.545,3.151-6.301,9.01-5.512,14.285c1.245,8.327,18.386,12.036,19.531,2.366
			c0.601-5.065-3.577-8.932-7.911-4.723c-0.213,0.207,0.203,1.053,0,1.25c3.371-3.274,7.473-1.965,7.918,2.836
			c-0.001-0.355-0.003-0.711-0.004-1.066c-0.11,10.148-17.076,6.265-19.373-1.199c-1.253-4.07,1.344-8.675,4.124-11.468
			c3.922-3.94,9.104-3.167,14.174-3.676c4.284-0.431,11.777-2.176,10.702-7.936c-0.633-3.392-4.132-5.196-7.077-6.279
			c-4.18-1.537-13.079,0.265-13.362-6.03c-0.001,0.409-0.001,0.818-0.002,1.228c0.827-6.351,9.019-6.316,12.068-1.809
			c3.266,4.826,1.024,11.449-1.599,16c-8.345,14.484-32.029,20.446-46.487,12.707c-13.706-7.338-16.546-24.529-26.914-34.946
			c-3.547-3.563-9.29-5.926-13.89-3.009c-4.448,2.821-7.165,8.607-9.852,12.929c-8.963,14.41-20.187,25.085-38.041,25.744
			c-9.208,0.339-18.541-2.18-24.823-9.215c-4.501-5.04-6.849-12.687-4.376-19.147c1.56-4.078,8.219-8.643,11.471-3.621
			c2.043,3.156-2.665,5.711-4.976,6.406c-5.179,1.556-10.365,0.037-15.242,3.124c-2.971,1.88-3.492,5.834-1.533,8.576
			c2.37,3.315,7.593,3.948,11.273,4.198c4.998,0.34,9.442,0.562,13.893,3.14c4.145,2.399,7.295,7.195,5.531,11.988
			c-2.001,5.433-8.632,7.376-13.748,8.055c-3.602,0.479-14.794,0.469-13.103-6.108c1.177-4.573,6.14-4.281,8.999-1.672
			C20.798,101.634,21.212,100.763,21,100.568L21,100.568z"/>
	</g>
</g>
</svg>
