<?xml version="1.0" encoding="utf-8"?>
<!-- Generator: Adobe Illustrator 16.0.4, SVG Export Plug-In . SVG Version: 6.00 Build 0)  -->
<!DOCTYPE svg PUBLIC "-//W3C//DTD SVG 1.1//EN" "http://www.w3.org/Graphics/SVG/1.1/DTD/svg11.dtd">
<svg version="1.1" id="Layer_1" xmlns="http://www.w3.org/2000/svg" xmlns:xlink="http://www.w3.org/1999/xlink" x="0px" y="0px"
	 width="64.083px" height="37.71px" viewBox="0 0 64.083 37.71" enable-background="new 0 0 64.083 37.71" xml:space="preserve">
<g>
	<g>
		<path fill="#828282" d="M23.423,17.71c-5.285-2.441-11.607-4.823-17.512-3.442c-2.234,0.522-3.929,1.84-3.92,4.195
			c0.033,8.946,19.349,1.993,22.505-0.16c2.804-1.913,4.916-4.99,7.195-7.464c0.691-0.75,0.815,0.083,1.34,0.775
			c1.055,1.392,2.194,2.717,3.387,3.991c4.494,4.8,12.361,6.797,18.795,6.837c2.035,0.013,6.967-0.495,7.036-3.436
			c0.048-2.06-0.533-3.219-2.582-4.074c-2.557-1.068-5.638-0.807-8.305-0.45c-4.483,0.6-9.994,1.953-13.468,4.946
			c-1.539,1.325-2.78,3.025-4.002,4.635c-0.516,0.679-1.021,1.364-1.561,2.025c-0.487,0.595-1.289-0.714-1.714-1.14
			C28.216,22.54,25.819,20.125,23.423,17.71c0.204,0.205-0.213,1.036,0,1.25c2.875,2.896,5.749,5.794,8.633,8.681
			c-0.056-0.056,3.699-4.688,3.976-5.019c2.151-2.563,4.467-3.791,7.574-4.908c4.381-1.575,9.259-2.723,13.932-2.082
			c1.783,0.245,4.515,1.094,4.713,3.241c-0.002-0.388-0.003-0.776-0.004-1.165c-0.102,4.36-8.577,3.519-11.033,3.164
			c-3.91-0.566-8.437-1.804-11.806-3.891c-2.88-1.783-5.154-4.925-7.128-7.623c-0.093-0.126-6.31,6.446-7.195,7.227
			c-3.024,2.667-8.233,3.795-12.111,4.526c-2.193,0.414-10.955,1.218-10.97-2.981c-0.002,0.264-0.004,0.527-0.006,0.791
			c0.242-2.487,3.225-3.354,5.282-3.665c5.467-0.825,11.297,1.464,16.144,3.703C23.272,18.891,23.589,17.787,23.423,17.71z"/>
	</g>
</g>
<g>
	<g>
		<path fill="#828282" d="M32,18.874c3.443-3.356,8.505-7.946,13.786-6.541c3.405,0.906,4.949,5.087,4.113,8.213
			c-3.455,12.907-20.511-5.768-24.414-8.205c-6.251-3.903-11.856-1.1-11.733,6.131c0.048,2.847,1.35,5.597,4.036,6.792
			C22.854,27.52,28.798,21.996,32,18.874c0.213-0.208-0.203-1.052,0-1.25c-3.443,3.356-8.505,7.946-13.786,6.542
			c-3.405-0.906-4.95-5.088-4.113-8.213c3.455-12.908,20.511,5.768,24.413,8.205c6.251,3.903,11.856,1.101,11.733-6.131
			c-0.049-2.847-1.351-5.597-4.036-6.792C41.146,8.978,35.203,14.502,32,17.624C31.788,17.832,32.204,18.676,32,18.874z"/>
	</g>
</g>
</svg>
