<?xml version="1.0" encoding="utf-8"?>
<!-- Generator: Adobe Illustrator 16.0.4, SVG Export Plug-In . SVG Version: 6.00 Build 0)  -->
<!DOCTYPE svg PUBLIC "-//W3C//DTD SVG 1.1//EN" "http://www.w3.org/Graphics/SVG/1.1/DTD/svg11.dtd">
<svg version="1.1" id="Layer_1" xmlns="http://www.w3.org/2000/svg" xmlns:xlink="http://www.w3.org/1999/xlink" x="0px" y="0px"
	 width="16px" height="16px" viewBox="0 0 16 16" enable-background="new 0 0 16 16" xml:space="preserve">
<path fill="#828282" d="M9.439,2.927H7.311c0-0.314,0.223-0.585,0.549-0.727C7.849,2.165,7.84,2.129,7.84,2.091
	c0-0.151,0.103-0.283,0.257-0.357V1H7.604V0.578h0.493V0h0.537v0.578h0.494V1H8.634v0.725C8.798,1.797,8.91,1.933,8.91,2.091
	c0,0.039-0.009,0.074-0.021,0.109C9.216,2.342,9.439,2.613,9.439,2.927z M5.736,8.008V4.068H3.589v3.939H5.736z M9.439,7.983V4.092
	H7.293v3.891H9.439z M13.142,7.983V4.092h-2.146v3.891H13.142z M13.987,8.25h-0.909v0.575h-0.811V8.25h-0.908v0.575h-0.811V8.25
	H9.64v0.575H8.829V8.25H7.921v0.575H7.11V8.25H6.202v0.575H5.391V8.25H4.483v0.575H3.672V8.25H2.763v1.663h11.224V8.25z
	 M4.295,2.055l0.368,0.613l0.368-0.613l0.748,0.006L5.399,1.455l0.379-0.607L5.031,0.855L4.663,0.242L4.295,0.855L3.547,0.848
	l0.379,0.607L3.547,2.061L4.295,2.055z M11.7,2.055l0.368,0.613l0.368-0.613l0.747,0.006l-0.379-0.606l0.379-0.607l-0.747,0.007
	l-0.368-0.613L11.7,0.855l-0.747-0.007l0.38,0.607l-0.38,0.606L11.7,2.055z M6.169,3.596V3.438V2.904H5.7V3.19H5.32V2.904H4.85V3.19
	H4.471V2.904H4.002V3.19H3.623V2.904h-0.47v0.534v0.158v0.307h3.016V3.596z M13.577,3.596V3.438V2.904h-0.47V3.19h-0.379V2.904
	h-0.471V3.19h-0.379V2.904h-0.47V3.19H11.03V2.904h-0.47v0.534v0.158v0.307h3.017V3.596z M9.883,3.19H6.867v0.713h3.016V3.19z
	 M2.501,15.168V16H14.25v-0.832H2.501z M6.848,12.269c0-0.659,0.679-1.192,1.518-1.192s1.517,0.533,1.517,1.192v2.617h4.205
	c0,0-0.303-1.092-0.602-2.227c-0.299-1.136-0.345-2.504-0.345-2.504H3.589c0,0,0.017,1.011-0.339,2.365
	c-0.356,1.354-0.607,2.365-0.607,2.365h4.206V12.269z M8.366,11.406c-0.653,0-1.183,0.417-1.183,0.929v2.468h2.365v-2.468
	C9.548,11.823,9.019,11.406,8.366,11.406z"/>
</svg>
