<?xml version="1.0" encoding="utf-8"?>
<!-- Generator: Adobe Illustrator 19.1.0, SVG Export Plug-In . SVG Version: 6.00 Build 0)  -->
<svg version="1.1" id="Layer_1" xmlns="http://www.w3.org/2000/svg" xmlns:xlink="http://www.w3.org/1999/xlink" x="0px" y="0px"
	 viewBox="42 -42 100 100" style="enable-background:new 42 -42 100 100;" xml:space="preserve">
<g id="codepen-logo">
	<path d="M141.8-7.9c0-0.1,0-0.1,0-0.2s0-0.2-0.1-0.4c0-0.1,0-0.1-0.1-0.2c0-0.1-0.1-0.2-0.1-0.3s-0.1-0.1-0.1-0.2
		c0-0.1-0.1-0.2-0.1-0.3s-0.1-0.1-0.1-0.2c-0.1-0.1-0.1-0.2-0.2-0.3c-0.1,0-0.1,0-0.2-0.1c-0.1-0.1-0.1-0.2-0.2-0.2
		c-0.1-0.1-0.1-0.1-0.2-0.2s-0.2-0.1-0.2-0.2c-0.1,0-0.1-0.1-0.2-0.1c0,0,0,0-0.1-0.1L94.3-41.2c-1.4-1-3.3-1-4.8,0L43.8-10.9
		c0,0,0,0-0.1,0.1c-0.1,0-0.1,0.1-0.2,0.1c-0.1,0.1-0.2,0.1-0.2,0.2c-0.1,0.1-0.1,0.1-0.2,0.2C43-10.2,43-10.1,42.9-10l-0.1,0.1
		c-0.1,0.1-0.1,0.2-0.2,0.3c0,0.1-0.1,0.1-0.1,0.1c-0.1,0.1-0.1,0.2-0.1,0.3S42.3-9.1,42.3-9s-0.1,0.2-0.1,0.3s0,0.1-0.1,0.2
		c0,0.1-0.1,0.2-0.1,0.4C42-8,42-8,42-8c0,0.2,0,0.4,0,0.6v30.6c0,0.1,0,0.4,0,0.6V24c0,0.1,0,0.3,0.1,0.4c0,0.1,0,0.1,0.1,0.2
		c0,0.1,0.1,0.3,0.1,0.3c0,0.1,0,0.1,0.1,0.2c0,0.1,0.1,0.1,0.1,0.3l0.1,0.1c0.1,0.1,0.1,0.1,0.1,0.3c0,0,0.1,0.1,0.1,0.2
		c0.1,0,0.1,0,0.3,0.2c0.1,0,0.1,0.1,0.1,0.2c0.1,0.1,0.1,0.1,0.3,0.2c0.1,0,0.1,0.1,0.1,0.1s0,0,0.1,0.1l45.6,30.6
		c0.7,0.5,1.6,0.7,2.4,0.7s1.7-0.2,2.4-0.7L139.8,27c0,0,0,0,0.1-0.1c0.1,0,0.1-0.1,0.2-0.1c0.1-0.1,0.2-0.1,0.2-0.2
		c0.1-0.1,0.1-0.1,0.2-0.2c0.1-0.1,0.1-0.2,0.2-0.2c0-0.1,0.1-0.1,0.1-0.2c0.1-0.1,0.1-0.2,0.2-0.3c0-0.1,0.1-0.1,0.1-0.2
		c0.1-0.1,0.1-0.2,0.1-0.3s0.1-0.1,0.1-0.2s0.1-0.2,0.1-0.3s0-0.1,0.1-0.2c0-0.1,0.1-0.2,0.1-0.4c0-0.1,0-0.1,0-0.2
		c0-0.2,0-0.4,0-0.6V-7.3C141.9-7.5,141.9-7.6,141.8-7.9L141.8-7.9z M96.2-29.8l33.6,22.4l-15,10.1L96.2-9.7V-29.8z M87.6-29.8v20
		L69,2.7l-15.1-10L87.6-29.8L87.6-29.8z M50.5,0.7l10.7,7.2l-10.7,7.2V0.7z M87.6,45.5L53.9,23.2l15-10.1l18.6,12.5L87.6,45.5
		L87.6,45.5z M91.9,18.1L76.7,7.9L91.9-2.2L107.1,8L91.9,18.1z M96.2,45.5v-20L114.8,13l15,10.1L96.2,45.5z M133.3,15.1l-10.7-7.2
		l10.7-7.2V15.1z"/>
</g>
<g id="twitter-logo">
	<path d="M142-14.9c-3.7,1.6-7.6,2.7-11.8,3.2c4.2-2.5,7.5-6.6,9-11.4c-4,2.4-8.4,4.1-13,5c-3.7-4-9.1-6.5-15-6.5
		C99.9-24.5,90.7-15.3,90.7-4c0,1.6,0.2,3.2,0.5,4.7C74.1-0.1,59-8.3,48.9-20.7c-1.8,3-2.8,6.6-2.8,10.3c0,7.1,3.6,13.4,9.1,17.1
		c-3.4-0.1-6.5-1-9.3-2.6c0,0.1,0,0.2,0,0.3c0,9.9,7.1,18.2,16.5,20.1c-1.7,0.5-3.5,0.7-5.4,0.7c-1.3,0-2.6-0.1-3.9-0.4
		C55.7,33,63.3,38.9,72.3,39c-7,5.5-15.9,8.8-25.5,8.8c-1.7,0-3.3-0.1-4.9-0.3c9.1,5.8,19.9,9.2,31.5,9.2
		c37.7,0,58.4-31.3,58.4-58.4c0-0.9,0-1.8-0.1-2.7C135.8-7.1,139.3-10.7,142-14.9z"/>
</g>
<g id="github-logo">
	<path d="M91.9-40.8c-27.6,0-50,22.4-50,50c0,22.1,14.3,40.8,34.2,47.4c2.5,0.5,3.4-1.1,3.4-2.4c0-1.2,0-4.3-0.1-8.5
		c-13.9,3-16.8-6.7-16.8-6.7c-2.3-5.8-5.6-7.3-5.6-7.3c-4.5-3.1,0.3-3,0.3-3c5,0.4,7.7,5.2,7.7,5.2c4.5,7.6,11.7,5.4,14.5,4.2
		c0.5-3.2,1.7-5.4,3.2-6.7c-11.1-1.2-22.8-5.5-22.8-24.7c0-5.5,1.9-9.9,5.1-13.4c-0.5-1.3-2.2-6.4,0.5-13.2c0,0,4.2-1.3,13.7,5.1
		c4-1.1,8.3-1.7,12.5-1.7s8.5,0.6,12.5,1.7c9.5-6.5,13.7-5.1,13.7-5.1c2.7,6.9,1,12,0.5,13.2c3.2,3.5,5.1,8,5.1,13.4
		c0,19.2-11.7,23.4-22.8,24.7c1.8,1.5,3.4,4.6,3.4,9.3c0,6.7-0.1,12.1-0.1,13.7c0,1.3,0.9,2.9,3.4,2.4c20.2-6.8,34.5-25.5,34.5-47.6
		C141.9-18.4,119.5-40.8,91.9-40.8z"/>
</g>
<g id="hamburg-logo">
	<path d="M98.7-23.7H85.3c0-2,1.4-3.7,3.4-4.5c-0.1-0.2-0.1-0.4-0.1-0.7c0-0.9,0.6-1.8,1.6-2.2v-4.6h-3.1v-2.6h3.1V-42h3.4v3.6h3.1
		v2.6h-3.2v4.5c1,0.5,1.7,1.3,1.7,2.3c0,0.2-0.1,0.5-0.1,0.7C97.2-27.4,98.7-25.7,98.7-23.7z M75.4,8.1v-24.7H62V8L75.4,8.1
		L75.4,8.1z M98.7,7.9v-24.3H85.2V7.9H98.7z M121.8,7.9v-24.3h-13.4V7.9H121.8z M127.1,9.6h-5.7v3.6h-5.1V9.6h-5.7v3.6h-5.1V9.6
		h-5.6v3.6h-5V9.6h-5.7v3.6h-5.1V9.6h-5.7v3.6h-5.1V9.6h-5.7v3.6h-5.1V9.6h-5.7V20h70.1C127.1,20,127.1,9.6,127.1,9.6z M66.4-29.2
		l2.3,3.8l2.3-3.8h4.7L73.3-33l2.4-3.8h-4.7l-2.3-3.8l-2.3,3.8h-4.7l2.4,3.8l-2.4,3.8H66.4z M112.8-29.2l2.3,3.8l2.3-3.8h4.7
		l-2.4-3.8l2.4-3.8h-4.7l-2.3-3.8l-2.3,3.8h-4.7l2.4,3.8l-2.4,3.8H112.8z M78.2-19.5v-1v-3.3h-2.9v1.8h-2.4v-1.8h-2.9v1.8h-2.4v-1.8
		h-2.9v1.8h-2.4v-1.8h-2.9v3.3v1v1.9h18.8C78.2-17.6,78.2-19.5,78.2-19.5z M124.4-19.5v-1v-3.3h-2.9v1.8h-2.4v-1.8h-2.9v1.8h-2.4
		v-1.8h-2.9v1.8h-2.4v-1.8h-2.9v3.3v1v1.9h18.9L124.4-19.5L124.4-19.5z M101.3-22.1H82.4v4.5h18.9V-22.1z M55.2,52.8V58h73.4v-5.2
		H55.2z M82.4,34.8c0-4.1,4.2-7.5,9.5-7.5s9.5,3.3,9.5,7.5V51h26.3c0,0-1.9-6.8-3.8-13.9s-2.2-15.6-2.2-15.6H62
		c0,0,0.1,6.3-2.1,14.8s-3.8,14.8-3.8,14.8h26.3V34.8L82.4,34.8z M91.9,29.3c-4.1,0-7.4,2.6-7.4,5.8v15.4h14.7V35.1
		C99.2,32,95.9,29.3,91.9,29.3z"/>
</g>
<g id="rss-logo">
	<circle cx="56.9" cy="43" r="15"/>
	<path d="M41.9-10v20c26.5,0,48,21.5,48,48c0,0,0,0,0,0h20c0,0,0,0,0,0C109.9,20.5,79.4-10,41.9-10z"/>
	<path d="M45-42h-3v20c44.1,0,80,35.9,80,80c0,0,0,0,0,0h20c0,0,0,0,0,0C141.9,3.9,98.7-40.4,45-42z"/>
</g>
<g id="mail-logo">
	<path d="M92.4,26c-1.1,0.2-2.4,0.1-3.5-0.4L42,6.1v43.2c0,4.2,3.4,7.5,7.5,7.5h84.9c4.2,0,7.5-3.4,7.5-7.5V5.9L94.3,25.5
		C93.7,25.8,93,25.9,92.4,26z"/>
	<path d="M142-3.2V-10c0-4.2-3.4-7.5-7.5-7.5H49.5c-4.2,0-7.5,3.4-7.5,7.5v6.9l49.5,20.7L142-3.2z"/>
</g>
</svg>
