<?xml version="1.0" encoding="utf-8"?>
<!-- Generator: Adobe Illustrator 19.1.0, SVG Export Plug-In . SVG Version: 6.00 Build 0)  -->
<svg version="1.1" id="Layer_1" xmlns="http://www.w3.org/2000/svg" xmlns:xlink="http://www.w3.org/1999/xlink" x="0px" y="0px"
	 viewBox="0 0 16 16" style="enable-background:new 0 0 16 16;" xml:space="preserve">
<g>
	<path d="M16,3.8C16,3.3,15.6,3,15,3H1C0.4,3,0,3.3,0,3.8v9.4C0,13.8,0.4,14,1,14H15c0.5,0,1-0.2,1-0.7V3.8z M14.9,4L15,3.8v0.1
		L8.2,8.8c-0.2,0.1-0.4,0.1-0.5,0L1,3.9V4H14.9z M1,13v-8l6.1,4.5c0.2,0.2,0.5,0.3,0.8,0.3c0.3,0,0.6-0.1,0.8-0.3l6.1-4.5l0,7.9
		L1,13z"/>
</g>
</svg>
