<?xml version="1.0" standalone="no"?>
<!DOCTYPE svg PUBLIC "-//W3C//DTD SVG 1.1//EN" "http://www.w3.org/Graphics/SVG/1.1/DTD/svg11.dtd">
<svg version="1.1" xmlns="http://www.w3.org/2000/svg" xmlns:xlink="http://www.w3.org/1999/xlink" xml:space="preserve" style="fill-rule:evenodd;clip-rule:evenodd;stroke-linejoin:round;stroke-miterlimit:1.41421;">

    <view id="fingerprint-sprite" viewBox="0 0 100 100"/>
    <view id="key-sprite" viewBox="108 0 100 100"/>
    <view id="mail-sprite" viewBox="215 0 100 100"/>
    <view id="rss-sprite" viewBox="326 0 100 100"/>
    <view id="hamburg-sprite" viewBox="432 0 100 100"/>
    <view id="key-sprite" viewBox="108 0 100 100"/>
    <view id="github-sprite" viewBox="0 116 100 100"/>
    <view id="twitter-sprite" viewBox="108 108 100 100"/>
    <view id="codepen-sprite" viewBox="218 116 100 100"/>
    <view id="heart-sprite" viewBox="329 116 100 100"/>


    <g id="heart" transform="matrix(1,0,0,1,327.682,116.852)">
        <g id="heart-logo" transform="matrix(1.37517,0,0,1.37517,-472.828,-179.792)">
            <path d="M380.632,200.275C372.99,183.995 346.171,180.854 346.013,160.609C345.855,140.363 369.54,128.938 380.192,148.419C392.753,128.879 414.553,142.423 414.517,158.857C414.467,181.755 387.228,183.942 380.632,200.275Z" style="fill:black;"/>
        </g>
    </g>
    <g id="codepen" transform="matrix(1,0,0,1,218.457,116.852)">
        <clipPath id="_clip1">
            <rect x="0" y="0" width="100" height="100"/>
        </clipPath>
        <g clip-path="url(#_clip1)">
            <g id="codepen-logo" transform="matrix(1,0,0,1,-42.0151,41.95)">
                <path d="M141.8,-7.9C141.8,-8 141.8,-8 141.8,-8.1C141.8,-8.2 141.8,-8.3 141.7,-8.5C141.7,-8.6 141.7,-8.6 141.6,-8.7C141.6,-8.8 141.5,-8.9 141.5,-9C141.5,-9.1 141.4,-9.1 141.4,-9.2C141.4,-9.3 141.3,-9.4 141.3,-9.5C141.3,-9.6 141.2,-9.6 141.2,-9.7C141.1,-9.8 141.1,-9.9 141,-10C140.9,-10 140.9,-10 140.8,-10.1C140.7,-10.2 140.7,-10.3 140.6,-10.3C140.5,-10.4 140.5,-10.4 140.4,-10.5C140.3,-10.6 140.2,-10.6 140.2,-10.7C140.1,-10.7 140.1,-10.8 140,-10.8L139.9,-10.9L94.3,-41.2C92.9,-42.2 91,-42.2 89.5,-41.2L43.8,-10.9L43.7,-10.8C43.6,-10.8 43.6,-10.7 43.5,-10.7C43.4,-10.6 43.3,-10.6 43.3,-10.5C43.2,-10.4 43.2,-10.4 43.1,-10.3C43,-10.2 43,-10.1 42.9,-10L42.8,-9.9C42.7,-9.8 42.7,-9.7 42.6,-9.6C42.6,-9.5 42.5,-9.5 42.5,-9.5C42.4,-9.4 42.4,-9.3 42.4,-9.2C42.4,-9.1 42.3,-9.1 42.3,-9C42.3,-8.9 42.2,-8.8 42.2,-8.7C42.2,-8.6 42.2,-8.6 42.1,-8.5C42.1,-8.4 42,-8.3 42,-8.1L42,24C42,24.1 42,24.3 42.1,24.4C42.1,24.5 42.1,24.5 42.2,24.6C42.2,24.7 42.3,24.9 42.3,24.9C42.3,25 42.3,25 42.4,25.1C42.4,25.2 42.5,25.2 42.5,25.4L42.6,25.5C42.7,25.6 42.7,25.6 42.7,25.8C42.7,25.8 42.8,25.9 42.8,26C42.9,26 42.9,26 43.1,26.2C43.2,26.2 43.2,26.3 43.2,26.4C43.3,26.5 43.3,26.5 43.5,26.6C43.6,26.6 43.6,26.7 43.6,26.7L43.7,26.8L89.3,57.4C90,57.9 90.9,58.1 91.7,58.1C92.5,58.1 93.4,57.9 94.1,57.4L139.8,27L139.9,26.9C140,26.9 140,26.8 140.1,26.8C140.2,26.7 140.3,26.7 140.3,26.6C140.4,26.5 140.4,26.5 140.5,26.4C140.6,26.3 140.6,26.2 140.7,26.2C140.7,26.1 140.8,26.1 140.8,26C140.9,25.9 140.9,25.8 141,25.7C141,25.6 141.1,25.6 141.1,25.5C141.2,25.4 141.2,25.3 141.2,25.2C141.2,25.1 141.3,25.1 141.3,25C141.3,24.9 141.4,24.8 141.4,24.7C141.4,24.6 141.4,24.6 141.5,24.5C141.5,24.4 141.6,24.3 141.6,24.1C141.6,24 141.6,24 141.6,23.9C141.6,23.7 141.6,23.5 141.6,23.3L141.6,-7.3C141.9,-7.5 141.9,-7.6 141.8,-7.9ZM96.2,-29.8L129.8,-7.4L114.8,2.7L96.2,-9.7L96.2,-29.8ZM87.6,-29.8L87.6,-9.8L69,2.7L53.9,-7.3L87.6,-29.8ZM50.5,0.7L61.2,7.9L50.5,15.1L50.5,0.7ZM87.6,45.5L53.9,23.2L68.9,13.1L87.5,25.6L87.6,45.5ZM91.9,18.1L76.7,7.9L91.9,-2.2L107.1,8L91.9,18.1ZM96.2,45.5L96.2,25.5L114.8,13L129.8,23.1L96.2,45.5ZM133.3,15.1L122.6,7.9L133.3,0.7L133.3,15.1Z" style="fill:black;fill-rule:nonzero;"/>
            </g>
        </g>
    </g>
    <g id="twitter" transform="matrix(1,0,0,1,109.231,116.852)">
        <clipPath id="_clip2">
            <rect x="0" y="0" width="100" height="100"/>
        </clipPath>
        <g clip-path="url(#_clip2)">
            <g id="twitter-logo" transform="matrix(1,0,0,1,-41.9,33.95)">
                <path d="M142,-14.9C138.3,-13.3 134.4,-12.2 130.2,-11.7C134.4,-14.2 137.7,-18.3 139.2,-23.1C135.2,-20.7 130.8,-19 126.2,-18.1C122.5,-22.1 117.1,-24.6 111.2,-24.6C99.9,-24.5 90.7,-15.3 90.7,-4C90.7,-2.4 90.9,-0.8 91.2,0.7C74.1,-0.1 59,-8.3 48.9,-20.7C47.1,-17.7 46.1,-14.1 46.1,-10.4C46.1,-3.3 49.7,3 55.2,6.7C51.8,6.6 48.7,5.7 45.9,4.1C45.9,4.2 45.9,4.3 45.9,4.4C45.9,14.3 53,22.6 62.4,24.5C60.7,25 58.9,25.2 57,25.2C55.7,25.2 54.4,25.1 53.1,24.8C55.7,33 63.3,38.9 72.3,39C65.3,44.5 56.4,47.8 46.8,47.8C45.1,47.8 43.5,47.7 41.9,47.5C51,53.3 61.8,56.7 73.4,56.7C111.1,56.7 131.8,25.4 131.8,-1.7C131.8,-2.6 131.8,-3.5 131.7,-4.4C135.8,-7.1 139.3,-10.7 142,-14.9Z" style="fill:black;fill-rule:nonzero;"/>
            </g>
        </g>
    </g>
    <g id="github" transform="matrix(1,0,0,1,0.00578774,116.852)">
        <clipPath id="_clip3">
            <rect x="0" y="0" width="100" height="100"/>
        </clipPath>
        <g clip-path="url(#_clip3)">
            <g id="github-logo" transform="matrix(1,0,0,1,-42.0058,41.9531)">
                <path d="M91.9,-40.8C64.3,-40.8 41.9,-18.4 41.9,9.2C41.9,31.3 56.2,50 76.1,56.6C78.6,57.1 79.5,55.5 79.5,54.2C79.5,53 79.5,49.9 79.4,45.7C65.5,48.7 62.6,39 62.6,39C60.3,33.2 57,31.7 57,31.7C52.5,28.6 57.3,28.7 57.3,28.7C62.3,29.1 65,33.9 65,33.9C69.5,41.5 76.7,39.3 79.5,38.1C80,34.9 81.2,32.7 82.7,31.4C71.6,30.2 59.9,25.9 59.9,6.7C59.9,1.2 61.8,-3.2 65,-6.7C64.5,-8 62.8,-13.1 65.5,-19.9C65.5,-19.9 69.7,-21.2 79.2,-14.8C83.2,-15.9 87.5,-16.5 91.7,-16.5C95.9,-16.5 100.2,-15.9 104.2,-14.8C113.7,-21.3 117.9,-19.9 117.9,-19.9C120.6,-13 118.9,-7.9 118.4,-6.7C121.6,-3.2 123.5,1.3 123.5,6.7C123.5,25.9 111.8,30.1 100.7,31.4C102.5,32.9 104.1,36 104.1,40.7C104.1,47.4 104,52.8 104,54.4C104,55.7 104.9,57.3 107.4,56.8C127.6,50 141.9,31.3 141.9,9.2C141.9,-18.4 119.5,-40.8 91.9,-40.8Z" style="fill:black;fill-rule:nonzero;"/>
            </g>
        </g>
    </g>
    <g id="hamburg" transform="matrix(1,0,0,1,436.89,0)">
        <g id="hamburg-logo" transform="matrix(1,0,0,1,-41.9,42)">
            <path d="M98.7,-23.7L85.3,-23.7C85.3,-25.7 86.7,-27.4 88.7,-28.2C88.6,-28.4 88.6,-28.6 88.6,-28.9C88.6,-29.8 89.2,-30.7 90.2,-31.1L90.2,-35.7L87.1,-35.7L87.1,-38.3L90.2,-38.3L90.2,-42L93.6,-42L93.6,-38.4L96.7,-38.4L96.7,-35.8L93.5,-35.8L93.5,-31.3C94.5,-30.8 95.2,-30 95.2,-29C95.2,-28.8 95.1,-28.5 95.1,-28.3C97.2,-27.4 98.7,-25.7 98.7,-23.7ZM75.4,8.1L75.4,-16.6L62,-16.6L62,8L75.4,8.1ZM98.7,7.9L98.7,-16.4L85.2,-16.4L85.2,7.9L98.7,7.9ZM121.8,7.9L121.8,-16.4L108.4,-16.4L108.4,7.9L121.8,7.9ZM127.1,9.6L121.4,9.6L121.4,13.2L116.3,13.2L116.3,9.6L110.6,9.6L110.6,13.2L105.5,13.2L105.5,9.6L99.9,9.6L99.9,13.2L94.9,13.2L94.9,9.6L89.2,9.6L89.2,13.2L84.1,13.2L84.1,9.6L78.4,9.6L78.4,13.2L73.3,13.2L73.3,9.6L67.6,9.6L67.6,13.2L62.5,13.2L62.5,9.6L56.8,9.6L56.8,20L126.9,20C127.1,20 127.1,9.6 127.1,9.6ZM66.4,-29.2L68.7,-25.4L71,-29.2L75.7,-29.2L73.3,-33L75.7,-36.8L71,-36.8L68.7,-40.6L66.4,-36.8L61.7,-36.8L64.1,-33L61.7,-29.2L66.4,-29.2ZM112.8,-29.2L115.1,-25.4L117.4,-29.2L122.1,-29.2L119.7,-33L122.1,-36.8L117.4,-36.8L115.1,-40.6L112.8,-36.8L108.1,-36.8L110.5,-33L108.1,-29.2L112.8,-29.2ZM78.2,-19.5L78.2,-20.5L78.2,-23.8L75.3,-23.8L75.3,-22L72.9,-22L72.9,-23.8L70,-23.8L70,-22L67.6,-22L67.6,-23.8L64.7,-23.8L64.7,-22L62.3,-22L62.3,-23.8L59.4,-23.8L59.4,-17.6L78.2,-17.6L78.2,-19.5ZM124.4,-19.5L124.4,-20.5L124.4,-23.8L121.5,-23.8L121.5,-22L119.1,-22L119.1,-23.8L116.2,-23.8L116.2,-22L113.8,-22L113.8,-23.8L110.9,-23.8L110.9,-22L108.5,-22L108.5,-23.8L105.6,-23.8L105.6,-17.6L124.5,-17.6L124.4,-19.5ZM101.3,-22.1L82.4,-22.1L82.4,-17.6L101.3,-17.6L101.3,-22.1L101.3,-22.1ZM55.2,52.8L55.2,58L128.6,58L128.6,52.8L55.2,52.8ZM82.4,34.8C82.4,30.7 86.6,27.3 91.9,27.3C97.2,27.3 101.4,30.6 101.4,34.8L101.4,51L127.7,51C127.7,51 125.8,44.2 123.9,37.1C122,30 121.7,21.5 121.7,21.5L62,21.5C62,21.5 62.1,27.8 59.9,36.3C57.7,44.8 56.1,51.1 56.1,51.1L82.4,51.1L82.4,34.8ZM91.9,29.3C87.8,29.3 84.5,31.9 84.5,35.1L84.5,50.5L99.2,50.5L99.2,35.1C99.2,32 95.9,29.3 91.9,29.3Z" style="fill:black;fill-rule:nonzero;"/>
        </g>
    </g>
    <g id="rss" transform="matrix(1,0,0,1,327.667,0)">
        <clipPath id="_clip4">
            <rect x="0" y="0" width="100" height="100"/>
        </clipPath>
        <g clip-path="url(#_clip4)">
            <path id="rss-logo" d="M14.9,70C23.179,70 29.9,76.721 29.9,85C29.9,93.279 23.179,100 14.9,100C6.621,100 -0.1,93.279 -0.1,85C-0.1,76.721 6.621,70 14.9,70ZM67.9,100L47.9,100C47.9,73.5 26.4,52 -0.1,52L-0.1,32C37.4,32 67.9,62.5 67.9,100ZM3,0C56.7,1.6 99.9,45.9 100,100L80,100C80,55.9 44.1,20 0,20L0,0L3,0Z" style="fill:black;"/>
        </g>
    </g>
    <g id="mail" transform="matrix(1,0,0,1,218.445,0)">
        <clipPath id="_clip5">
            <rect x="0" y="0" width="100" height="100"/>
        </clipPath>
        <g clip-path="url(#_clip5)">
            <g id="mail-logo" transform="matrix(1,-5.55112e-17,5.55112e-17,1,0.524021,7.10543e-15)">
                <path d="M50.4,68C49.3,68.2 48,68.1 46.9,67.6L0,48.1L0,91.3C0,95.5 3.4,98.8 7.5,98.8L92.4,98.8C96.6,98.8 99.9,95.4 99.9,91.3L99.9,47.9L52.3,67.5C51.7,67.8 51,67.9 50.4,68ZM92.5,24.5C96.6,24.5 100,27.8 100,32L100,38.8L49.5,59.6L0,38.9L0,32C0,27.9 3.3,24.5 7.5,24.5L92.5,24.5Z" style="fill:black;"/>
            </g>
        </g>
    </g>
    <g id="key" transform="matrix(1,0,0,1,109.222,0)">
        <g id="key-logo" transform="matrix(0.815541,1.06905,-1.06905,0.815541,81.5678,-27.0277)">
            <path d="M25.821,13.892C25.82,13.875 25.82,13.857 25.82,13.84C25.82,12.697 26.748,11.769 27.891,11.769C29.035,11.769 29.963,12.697 29.963,13.84C29.963,13.851 29.963,13.862 29.963,13.872C30.628,13.312 31.364,12.896 32.104,12.709C32.366,12.616 32.635,12.536 32.91,12.469C38.164,11.199 44.012,16.27 45.569,22.712C47.127,29.154 44.248,35.797 38.994,37.067C38.783,37.118 38.593,37.138 38.284,37.212C35.981,37.769 32.639,36.482 31.249,34.427L31.249,36.524C32.024,36.525 32.653,37.155 32.653,37.93C32.653,38.705 32.024,39.335 31.249,39.336L31.249,40.056C32.024,40.057 32.653,40.686 32.653,41.462C32.653,42.237 32.024,42.867 31.249,42.868L31.249,70.242L33.78,70.242C34.056,70.242 34.321,70.352 34.517,70.547C34.712,70.743 34.822,71.008 34.822,71.285C34.822,72.541 34.822,74.485 34.822,74.485L38.639,74.485C38.639,74.485 38.639,72.541 38.639,71.285C38.639,70.709 39.105,70.242 39.681,70.242C41.769,70.242 46.443,70.242 48.531,70.242C49.107,70.242 49.574,70.709 49.574,71.285C49.574,72.84 49.574,75.75 49.574,77.305C49.574,77.881 49.107,78.347 48.531,78.347C47.956,78.347 47.243,78.347 46.668,78.347C46.092,78.347 45.625,77.881 45.625,77.305C45.625,76.055 45.625,74.125 45.625,74.125L41.809,74.125C41.809,74.125 41.809,76.055 41.809,77.305C41.809,77.881 41.342,78.347 40.766,78.347C38.817,78.347 34.816,78.347 34.816,78.347L34.816,82.185C34.816,82.185 38.817,82.185 40.766,82.185C41.342,82.185 41.809,82.651 41.809,83.227C41.809,84.363 41.809,86.021 41.809,86.021L45.625,86.021C45.625,86.021 45.625,84.363 45.625,83.227C45.625,82.651 46.092,82.185 46.668,82.185C47.243,82.185 47.956,82.185 48.531,82.185C49.107,82.185 49.574,82.651 49.574,83.227C49.574,84.752 49.574,87.574 49.574,89.099C49.574,89.375 49.464,89.641 49.268,89.836C49.073,90.032 48.808,90.141 48.531,90.141C46.466,90.141 41.874,90.141 39.808,90.141C39.532,90.141 39.267,90.032 39.071,89.836C38.876,89.641 38.766,89.375 38.766,89.099L38.766,86.412L34.949,86.412L34.949,89.159C34.949,89.701 34.509,90.141 33.967,90.141C32.87,90.141 31.249,90.141 31.249,90.141C31.249,90.141 31.249,92.259 31.249,93.927C31.249,94.452 31.041,94.955 30.67,95.326C30.298,95.697 29.795,95.906 29.27,95.906C28.411,95.906 27.407,95.906 26.548,95.906C25.455,95.906 24.569,95.02 24.569,93.927L24.569,42.868L24.548,42.868C23.772,42.868 23.142,42.238 23.142,41.462C23.142,40.686 23.772,40.056 24.548,40.056L24.569,40.056L24.569,39.336L24.548,39.336C23.772,39.336 23.142,38.706 23.142,37.93C23.142,37.154 23.772,36.524 24.548,36.524L24.569,36.524L24.569,34.338C23.217,36.445 19.812,37.777 17.476,37.212C17.167,37.138 16.977,37.118 16.766,37.067C11.513,35.797 8.633,29.154 10.191,22.712C11.748,16.27 17.596,11.199 22.85,12.469C23.125,12.536 23.394,12.616 23.656,12.709C24.404,12.898 25.149,13.321 25.821,13.892ZM31.079,29.749C31.726,28.443 32.924,27.422 34.45,27.053C38.538,26.064 37.252,31.424 35.123,31.589C34.759,31.617 34.746,31.405 34.601,31.599C33.523,33.045 36.783,34.561 38.764,32.599C41.09,30.807 42.398,27.078 41.532,23.497C40.663,19.899 38.042,17.288 35.138,16.772C35.119,16.802 35.143,16.789 35.125,16.785C30.789,15.725 31.028,18.876 31.897,19.906C32.187,20.25 32.481,19.345 33.032,19.334C36.195,19.268 35.113,23.224 33.551,23.602C31.262,24.155 28.957,23.066 27.88,21.092C26.803,23.066 24.498,24.155 22.21,23.602C20.648,23.224 19.565,19.268 22.728,19.334C23.328,19.346 23.466,20.376 23.863,19.906C24.732,18.876 24.953,15.707 20.616,16.766C20.599,16.77 20.641,16.802 20.622,16.772C17.719,17.288 15.097,19.899 14.228,23.497C13.362,27.078 14.67,30.807 16.996,32.599C18.977,34.561 22.238,33.045 21.159,31.599C21.014,31.405 21.001,31.617 20.637,31.589C18.508,31.424 17.222,26.064 21.31,27.053C22.861,27.428 24.074,28.477 24.712,29.814C24.814,29.555 24.969,29.316 25.17,29.115C25.555,28.731 26.077,28.514 26.621,28.514C27.439,28.514 28.379,28.514 29.197,28.514C29.741,28.514 30.263,28.731 30.648,29.115C30.832,29.299 30.978,29.515 31.079,29.749Z" style="fill:black;"/>
        </g>
    </g>
    <clipPath id="_clip6">
        <rect id="fingerprint" x="0" y="0" width="100" height="100"/>
    </clipPath>
    <g clip-path="url(#_clip6)">
        <g id="fingerprint-logo" transform="matrix(1.04049,0,0,1.04049,-2.18563,-1.95566)">
            <path d="M63.137,75.823C63.245,75.835 63.272,75.836 63.378,75.856C63.618,75.902 63.85,75.986 64.062,76.106C64.274,76.226 64.467,76.38 64.63,76.562C64.766,76.713 64.881,76.882 64.972,77.064C65.135,77.392 65.216,77.758 65.206,78.124C65.2,78.357 65.153,78.586 65.096,78.81C64.999,79.194 64.861,79.567 64.705,79.931C64.613,80.147 64.513,80.359 64.409,80.569C64.299,80.791 64.184,81.009 64.065,81.226C63.874,81.574 63.673,81.917 63.465,82.256C63.003,83.011 62.51,83.747 62.001,84.472C61.441,85.27 60.861,86.053 60.266,86.826C58.94,88.548 57.547,90.22 56.084,91.828C55.148,92.858 54.184,93.866 53.158,94.807C52.755,95.177 52.343,95.537 51.911,95.872C51.568,96.139 51.213,96.393 50.836,96.61C50.268,96.936 49.635,97.177 48.971,97.175C48.514,97.173 48.06,97.059 47.663,96.831C46.87,96.375 46.333,95.474 46.388,94.551C46.4,94.349 46.44,94.148 46.506,93.955C46.572,93.763 46.664,93.58 46.779,93.413C46.917,93.212 47.087,93.034 47.282,92.887C47.51,92.716 47.77,92.589 48.044,92.515C48.344,92.433 48.655,92.417 48.963,92.461C49.057,92.392 49.149,92.32 49.24,92.248C49.866,91.744 50.45,91.191 51.019,90.625C51.721,89.926 52.397,89.202 53.058,88.465C53.848,87.584 54.614,86.682 55.364,85.766C56.16,84.793 56.931,83.799 57.674,82.784C58.426,81.757 59.155,80.707 59.805,79.611C60.028,79.235 60.243,78.852 60.432,78.458C60.507,78.304 60.577,78.147 60.639,77.987C60.677,77.89 60.713,77.791 60.738,77.69C60.741,77.675 60.744,77.66 60.747,77.645C60.791,77.445 60.849,77.253 60.94,77.069C61.194,76.556 61.642,76.153 62.179,75.955C62.331,75.899 62.49,75.859 62.651,75.837C62.758,75.822 62.785,75.823 62.893,75.817C63.016,75.817 63.015,75.817 63.137,75.823ZM71.846,52.488C71.83,51.791 71.797,51.093 71.749,50.397C71.654,49.016 71.501,47.637 71.275,46.271C71.073,45.055 70.816,43.846 70.465,42.664C70.36,42.31 70.246,41.957 70.121,41.608C70.006,41.287 69.882,40.969 69.746,40.656C69.643,40.418 69.532,40.184 69.414,39.954C69.327,39.787 69.236,39.623 69.14,39.462C68.918,39.093 68.668,38.735 68.363,38.429C68.137,38.202 67.879,38.005 67.572,37.904L67.359,37.823C67.292,37.788 67.222,37.757 67.156,37.72C66.892,37.569 66.659,37.364 66.476,37.121C66.154,36.695 65.993,36.158 66.027,35.624C66.041,35.397 66.09,35.171 66.172,34.959C66.254,34.746 66.368,34.545 66.51,34.367C66.652,34.188 66.821,34.032 67.01,33.904C67.262,33.733 67.548,33.614 67.847,33.557C68.046,33.518 68.098,33.524 68.3,33.516C68.376,33.521 68.452,33.526 68.528,33.531C68.603,33.543 68.678,33.552 68.753,33.568C68.927,33.606 69.098,33.667 69.264,33.73C69.602,33.859 69.927,34.02 70.236,34.208C71.464,34.954 72.395,36.098 73.106,37.329C73.319,37.699 73.514,38.078 73.694,38.465C73.91,38.928 74.105,39.402 74.282,39.882C74.735,41.109 75.079,42.375 75.356,43.652C75.662,45.065 75.884,46.497 76.045,47.934C76.237,49.653 76.341,51.382 76.356,53.112C76.369,54.57 76.322,56.032 76.168,57.482C76.124,57.901 76.07,58.319 76.003,58.735C75.936,59.152 75.853,59.566 75.781,59.982C75.738,60.237 75.697,60.493 75.658,60.749C75.273,63.328 75.078,65.933 74.998,68.538C74.913,71.284 74.955,74.032 75.114,76.774L75.119,76.9C75.133,77.835 74.959,78.764 74.759,79.674C74.52,80.765 74.223,81.843 73.905,82.914C73.382,84.68 72.795,86.428 72.167,88.159C71.627,89.645 71.057,91.122 70.425,92.571C70.291,92.878 70.154,93.183 70.013,93.486C69.885,93.76 69.754,94.032 69.617,94.301C69.534,94.465 69.448,94.627 69.359,94.788C68.962,95.507 68.491,96.251 67.749,96.654C67.656,96.705 67.558,96.751 67.459,96.79C67.358,96.829 67.283,96.854 67.183,96.878C67.113,96.894 67.044,96.913 66.973,96.922C66.83,96.94 66.754,96.952 66.622,96.954C66.492,96.957 66.365,96.945 66.237,96.929L66.224,96.927C66.094,96.904 66.094,96.904 65.965,96.873L65.953,96.87C65.825,96.831 65.825,96.831 65.701,96.785L65.689,96.78C65.568,96.727 65.569,96.727 65.452,96.668C65.373,96.627 65.301,96.577 65.227,96.528C65.093,96.439 64.978,96.329 64.864,96.216C64.803,96.156 64.767,96.115 64.716,96.046C64.671,95.985 64.625,95.924 64.584,95.86C64.461,95.668 64.368,95.458 64.308,95.237C64.268,95.091 64.243,94.94 64.233,94.788C64.219,94.561 64.24,94.331 64.294,94.11C64.349,93.888 64.437,93.675 64.555,93.48C64.713,93.22 64.924,92.993 65.171,92.816C65.233,92.772 65.299,92.734 65.363,92.693L65.38,92.685C65.674,92.157 65.929,91.608 66.175,91.056C66.501,90.324 66.806,89.581 67.1,88.835C67.889,86.835 68.605,84.803 69.25,82.752C69.625,81.557 69.978,80.354 70.266,79.136C70.367,78.71 70.46,78.282 70.532,77.85C70.558,77.695 70.581,77.539 70.598,77.382C70.611,77.266 70.622,77.148 70.621,77.031C70.613,76.851 70.6,76.671 70.591,76.491C70.576,76.22 70.563,75.95 70.551,75.68C70.455,73.435 70.429,71.188 70.485,68.942C69.892,70.037 69.262,71.111 68.568,72.144L68.494,72.247C68.424,72.334 68.408,72.358 68.331,72.439C68.157,72.622 67.952,72.776 67.728,72.891C67.465,73.026 67.177,73.108 66.883,73.132C66.674,73.149 66.462,73.136 66.255,73.095C65.717,72.986 65.228,72.678 64.899,72.238C64.773,72.069 64.67,71.883 64.596,71.686C64.507,71.45 64.457,71.199 64.451,70.947C64.443,70.652 64.494,70.356 64.6,70.081C64.646,69.963 64.703,69.852 64.765,69.741C64.869,69.576 64.979,69.415 65.086,69.252C66.02,67.8 66.835,66.275 67.595,64.726C68.433,63.018 69.202,61.274 69.89,59.501C70.376,58.249 70.824,56.981 71.195,55.691C71.338,55.19 71.47,54.686 71.582,54.178C71.698,53.65 71.791,53.118 71.836,52.579L71.846,52.488ZM55.274,70.51C55.407,70.523 55.44,70.523 55.572,70.55C55.768,70.59 55.959,70.656 56.138,70.747C56.317,70.837 56.484,70.951 56.633,71.086C57.044,71.457 57.307,71.978 57.363,72.529C57.388,72.781 57.366,73.029 57.313,73.276C57.265,73.498 57.192,73.715 57.109,73.926C56.959,74.306 56.765,74.669 56.551,75.017C56.285,75.448 55.986,75.859 55.673,76.257C55.294,76.739 54.892,77.202 54.478,77.654C53.352,78.883 52.142,80.035 50.905,81.15C49.386,82.52 47.815,83.833 46.213,85.104C44.473,86.485 42.693,87.817 40.872,89.089C39.313,90.177 37.724,91.226 36.082,92.184C35.578,92.479 35.068,92.765 34.55,93.037C34.156,93.244 33.758,93.444 33.354,93.631C33.092,93.753 32.827,93.869 32.56,93.978C32.343,94.067 32.123,94.151 31.902,94.228C31.759,94.278 31.615,94.325 31.47,94.368C30.585,94.634 29.622,94.783 28.719,94.516C28.563,94.471 28.411,94.413 28.265,94.344C28.048,94.241 27.844,94.113 27.659,93.96C27.462,93.799 27.288,93.611 27.141,93.403C26.931,93.107 26.773,92.768 26.705,92.41C26.65,92.114 26.654,91.808 26.719,91.514C26.87,90.821 27.352,90.228 28,89.94C28.183,89.858 28.377,89.801 28.575,89.77C28.823,89.732 29.077,89.736 29.324,89.781C29.599,89.832 29.859,89.935 30.098,90.081C30.185,90.056 30.271,90.029 30.357,90C30.799,89.849 31.228,89.661 31.649,89.46C32.146,89.223 32.633,88.965 33.114,88.697C34.414,87.974 35.672,87.176 36.909,86.348C38.647,85.185 40.341,83.956 42.001,82.683C43.764,81.331 45.489,79.928 47.158,78.461C47.944,77.77 48.718,77.065 49.47,76.338C50.049,75.779 50.616,75.208 51.159,74.615C51.558,74.179 51.946,73.732 52.302,73.26C52.436,73.081 52.567,72.898 52.687,72.709C52.771,72.575 52.853,72.437 52.916,72.291C52.921,72.278 52.927,72.264 52.931,72.251L52.935,72.234L52.975,72.089C52.991,72.042 53.006,71.994 53.024,71.947C53.078,71.807 53.146,71.672 53.227,71.545C53.525,71.078 53.995,70.732 54.529,70.585C54.674,70.545 54.823,70.52 54.973,70.51C55.023,70.507 55.073,70.507 55.123,70.505C55.173,70.507 55.224,70.508 55.274,70.51ZM50.729,93.865C50.716,93.832 50.716,93.833 50.701,93.8C50.71,93.822 50.72,93.843 50.729,93.865ZM68.241,93.248C68.18,93.171 68.179,93.173 68.112,93.101C68.155,93.15 68.198,93.199 68.241,93.248ZM68.078,93.066C68.049,93.035 68.048,93.036 68.016,93.008C68.037,93.027 68.057,93.046 68.078,93.066ZM30.94,91.009C30.926,90.981 30.926,90.982 30.911,90.955C30.92,90.973 30.93,90.991 30.94,91.009ZM48.694,58.964C49.27,57.488 49.725,55.962 49.999,54.4C50.24,53.022 50.339,51.616 50.239,50.219C50.188,49.518 50.084,48.824 49.934,48.138L49.903,47.964C49.888,47.808 49.88,47.768 49.883,47.611C49.887,47.434 49.911,47.258 49.956,47.087C50.092,46.572 50.412,46.115 50.849,45.811C51.042,45.676 51.257,45.573 51.483,45.505C51.652,45.454 51.827,45.423 52.003,45.412C52.062,45.409 52.121,45.41 52.18,45.409C52.239,45.413 52.298,45.416 52.356,45.42C52.415,45.428 52.473,45.434 52.531,45.444C52.705,45.476 52.875,45.527 53.037,45.599C53.58,45.837 54.014,46.29 54.229,46.842C54.296,47.015 54.335,47.194 54.374,47.375C54.418,47.584 54.458,47.793 54.495,48.003C54.653,48.908 54.743,49.825 54.769,50.743C54.836,53.086 54.489,55.429 53.862,57.683C53.039,60.644 51.744,63.463 50.183,66.104C48.899,68.276 47.428,70.337 45.821,72.281C44.173,74.275 42.378,76.149 40.452,77.876C39.115,79.074 37.713,80.203 36.24,81.23C35.012,82.087 33.732,82.875 32.392,83.546C31.526,83.979 30.633,84.364 29.713,84.666C28.958,84.914 28.183,85.107 27.395,85.209C27.157,85.24 26.918,85.263 26.678,85.275C26.484,85.286 26.286,85.296 26.092,85.283C25.798,85.263 25.508,85.185 25.244,85.054C25.033,84.95 24.838,84.812 24.67,84.647C24.501,84.483 24.359,84.291 24.249,84.083C23.917,83.45 23.908,82.68 24.225,82.04C24.329,81.829 24.467,81.634 24.632,81.466C24.962,81.127 25.398,80.899 25.863,80.82C26.077,80.783 26.294,80.79 26.509,80.777C26.612,80.769 26.714,80.759 26.816,80.746C27.475,80.656 28.116,80.471 28.739,80.24C29.386,80.001 30.014,79.712 30.627,79.395C31.583,78.9 32.503,78.335 33.392,77.728C34.456,77.002 35.477,76.214 36.462,75.384C37.834,74.225 39.136,72.981 40.364,71.671C41.651,70.3 42.858,68.854 43.973,67.339C44.826,66.18 45.624,64.98 46.353,63.739C46.236,63.76 46.12,63.781 46.003,63.804C45.221,63.955 44.447,64.152 43.694,64.411C42.456,64.837 41.253,65.431 40.277,66.317L40.175,66.404L40.068,66.486C39.871,66.617 39.669,66.741 39.471,66.872C38.552,67.491 37.687,68.184 36.834,68.89C36.282,69.348 35.732,69.809 35.178,70.264C34.962,70.44 34.745,70.615 34.528,70.789C33.459,71.635 32.359,72.442 31.174,73.118C30.408,73.556 29.61,73.939 28.782,74.246C27.956,74.553 27.102,74.784 26.233,74.929C25.658,75.025 25.076,75.084 24.494,75.106C24.372,75.11 24.255,75.113 24.133,75.115C23.977,75.117 23.821,75.118 23.666,75.098C23.467,75.072 23.271,75.02 23.086,74.943C22.808,74.827 22.555,74.656 22.344,74.441C22.169,74.261 22.024,74.053 21.917,73.826C21.831,73.645 21.77,73.452 21.735,73.254C21.631,72.658 21.776,72.033 22.132,71.543C22.25,71.381 22.389,71.234 22.546,71.109C22.781,70.921 23.054,70.781 23.343,70.7C23.49,70.659 23.636,70.638 23.787,70.622C23.965,70.615 24.144,70.615 24.322,70.609C25.015,70.578 25.701,70.48 26.371,70.299C26.621,70.231 26.868,70.153 27.111,70.066C28.982,69.394 30.596,68.184 32.126,66.946C32.884,66.328 33.631,65.696 34.388,65.076C35.112,64.487 35.847,63.911 36.612,63.376C36.872,63.194 37.137,63.015 37.406,62.847C37.5,62.763 37.597,62.683 37.693,62.602C38.029,62.328 38.377,62.071 38.739,61.833C40.069,60.96 41.551,60.336 43.073,59.887C44.019,59.609 44.983,59.398 45.956,59.244C46.863,59.1 47.777,59.006 48.694,58.964ZM78.988,28.514C79.188,28.544 79.189,28.541 79.384,28.591C79.487,28.616 79.588,28.653 79.687,28.689C79.895,28.766 80.097,28.86 80.29,28.968C81.224,29.493 81.933,30.334 82.486,31.237C82.812,31.769 83.089,32.331 83.336,32.904C83.629,33.586 83.879,34.287 84.102,34.995C84.389,35.905 84.632,36.829 84.846,37.759C85.017,38.503 85.171,39.252 85.308,40.003C85.692,42.105 85.976,44.224 86.188,46.35C86.367,48.146 86.495,49.946 86.579,51.749C86.673,53.748 86.713,55.75 86.695,57.751C86.679,59.692 86.609,61.633 86.47,63.569C86.373,64.926 86.242,66.281 86.064,67.63C85.901,68.861 85.699,70.088 85.436,71.302C85.239,72.21 85.007,73.111 84.72,73.994C84.461,74.788 84.158,75.571 83.777,76.315C83.539,76.779 83.27,77.229 82.96,77.649C82.867,77.774 82.771,77.895 82.671,78.014C82.557,78.15 82.436,78.28 82.297,78.393C81.982,78.647 81.6,78.813 81.199,78.87C80.999,78.899 80.796,78.9 80.595,78.874C80.395,78.848 80.198,78.795 80.012,78.717C79.45,78.481 78.999,78.016 78.782,77.447C78.685,77.195 78.635,76.927 78.633,76.657C78.63,76.253 78.739,75.85 78.944,75.501C78.978,75.443 79.015,75.387 79.054,75.332C79.132,75.224 79.222,75.126 79.304,75.022C79.345,74.968 79.385,74.913 79.423,74.858C79.738,74.388 79.974,73.871 80.177,73.345C80.415,72.732 80.606,72.1 80.772,71.464C81.005,70.574 81.188,69.672 81.343,68.766C81.533,67.651 81.678,66.529 81.794,65.405C81.961,63.784 82.067,62.157 82.13,60.529C82.203,58.634 82.216,56.737 82.18,54.841C82.143,52.929 82.054,51.018 81.911,49.112C81.776,47.3 81.592,45.492 81.343,43.693C81.132,42.161 80.875,40.635 80.541,39.125C80.282,37.953 79.979,36.787 79.58,35.655C79.347,34.997 79.084,34.342 78.736,33.735C78.635,33.559 78.525,33.386 78.402,33.223C78.316,33.11 78.222,32.997 78.109,32.909L78.099,32.902L77.947,32.85L77.762,32.769C77.703,32.736 77.643,32.706 77.586,32.671C77.356,32.53 77.152,32.348 76.987,32.136C76.821,31.923 76.694,31.681 76.614,31.424C76.39,30.709 76.545,29.91 77.018,29.33C77.146,29.174 77.295,29.034 77.46,28.918C77.734,28.723 78.052,28.591 78.385,28.534C78.562,28.504 78.608,28.509 78.787,28.503C78.854,28.507 78.921,28.51 78.988,28.514ZM61.027,59.631C61.283,59.643 61.535,59.692 61.774,59.786C62.427,60.042 62.932,60.602 63.12,61.278C63.237,61.701 63.217,62.15 63.134,62.578C63.02,63.172 62.764,63.727 62.455,64.243C62.241,64.6 61.999,64.939 61.771,65.287C61.721,65.364 61.672,65.442 61.626,65.522L61.621,65.531C61.614,65.583 61.606,65.635 61.596,65.687C61.532,65.992 61.413,66.281 61.234,66.538C60.822,67.128 60.135,67.492 59.415,67.5C59.196,67.503 58.977,67.473 58.766,67.412C58.52,67.341 58.287,67.228 58.079,67.079C57.856,66.92 57.663,66.719 57.512,66.491C57.351,66.247 57.238,65.972 57.181,65.685C57.15,65.523 57.136,65.359 57.14,65.194C57.143,65.015 57.161,64.838 57.193,64.662C57.284,64.16 57.488,63.685 57.743,63.247C57.918,62.947 58.112,62.661 58.306,62.374C58.388,62.252 58.47,62.129 58.549,62.005C58.595,61.93 58.64,61.854 58.682,61.776C58.69,61.759 58.699,61.741 58.707,61.724C58.711,61.669 58.718,61.614 58.725,61.56C58.733,61.506 58.743,61.452 58.754,61.398C58.8,61.202 58.866,61.012 58.96,60.834C59.216,60.346 59.651,59.964 60.167,59.772C60.391,59.688 60.624,59.644 60.862,59.632C60.917,59.63 60.972,59.63 61.027,59.631ZM44.196,49.596C44.32,49.611 44.352,49.612 44.475,49.638C44.705,49.689 44.927,49.775 45.131,49.894C45.375,50.037 45.592,50.226 45.766,50.448C45.912,50.634 46.028,50.842 46.109,51.063C46.337,51.688 46.274,52.397 45.938,52.972C45.819,53.175 45.668,53.36 45.492,53.517C45.281,53.705 45.035,53.852 44.769,53.95C44.635,53.999 44.499,54.03 44.359,54.057C44.185,54.08 44.011,54.097 43.837,54.121C42.103,54.381 40.499,55.18 39.026,56.1C37.914,56.794 36.857,57.573 35.821,58.374C34.77,59.185 33.739,60.023 32.7,60.848C32.465,61.034 32.23,61.219 31.994,61.403C31.58,61.724 31.165,62.044 30.745,62.356C29.382,63.367 27.964,64.323 26.434,65.065C25.245,65.641 23.983,66.084 22.672,66.275C22.262,66.335 21.85,66.367 21.436,66.378L21.336,66.379C21.21,66.377 21.179,66.38 21.054,66.366C20.82,66.339 20.59,66.276 20.375,66.179C20.117,66.062 19.883,65.896 19.686,65.692C19.325,65.318 19.101,64.821 19.061,64.302C19.043,64.067 19.063,63.829 19.118,63.6C19.173,63.371 19.265,63.151 19.389,62.95C19.512,62.75 19.667,62.569 19.847,62.416C20.098,62.202 20.397,62.045 20.715,61.958C20.853,61.921 20.991,61.902 21.132,61.886C21.285,61.879 21.438,61.878 21.59,61.868C22.388,61.81 23.159,61.585 23.894,61.277C24.565,60.996 25.206,60.648 25.827,60.269C26.894,59.619 27.903,58.876 28.893,58.114C29.937,57.309 30.961,56.477 31.994,55.656C32.232,55.468 32.47,55.281 32.708,55.093C34.103,54.009 35.522,52.951 37.038,52.04C38.096,51.404 39.2,50.84 40.357,50.408C41.162,50.107 41.992,49.872 42.839,49.724C43.034,49.69 43.23,49.66 43.427,49.636C43.588,49.616 43.751,49.594 43.913,49.588C43.96,49.586 44.007,49.588 44.055,49.587C44.102,49.59 44.149,49.593 44.196,49.596ZM61.638,65.317C61.638,65.311 61.638,65.312 61.638,65.306C61.638,65.31 61.638,65.313 61.638,65.317ZM37.399,62.852L37.331,62.914C37.354,62.894 37.425,62.836 37.399,62.852ZM37.406,62.847L37.404,62.849C37.405,62.848 37.408,62.846 37.406,62.847ZM53.391,36.477C54.159,36.487 54.923,36.572 55.672,36.747C56.141,36.856 56.602,36.998 57.051,37.171C57.389,37.301 57.721,37.449 58.045,37.612C60.248,38.724 62.033,40.547 63.336,42.623C63.549,42.961 63.749,43.307 63.937,43.66C64.183,44.123 64.409,44.596 64.612,45.079C64.884,45.724 65.116,46.385 65.305,47.058C65.422,47.472 65.521,47.891 65.602,48.313C65.669,48.665 65.724,49.02 65.763,49.377C65.795,49.667 65.817,49.958 65.827,50.25C65.882,51.756 65.636,53.344 64.773,54.611C64.579,54.896 64.336,55.138 64.039,55.316C63.875,55.414 63.699,55.49 63.515,55.544C62.962,55.705 62.357,55.645 61.846,55.379C61.62,55.261 61.414,55.105 61.24,54.918C61.067,54.732 60.925,54.516 60.823,54.283C60.593,53.754 60.575,53.146 60.775,52.605C60.819,52.486 60.873,52.37 60.937,52.26C60.988,52.171 61.051,52.091 61.099,52.001C61.126,51.948 61.148,51.894 61.169,51.838C61.245,51.621 61.286,51.391 61.309,51.162C61.338,50.879 61.34,50.593 61.326,50.309C61.301,49.838 61.231,49.371 61.131,48.911C61.017,48.382 60.862,47.863 60.674,47.356C60.508,46.906 60.316,46.465 60.1,46.037C59.924,45.687 59.732,45.346 59.525,45.015C59.369,44.767 59.205,44.525 59.031,44.29C58.085,43.006 56.836,41.875 55.317,41.327C55.119,41.255 54.916,41.194 54.712,41.144C54.334,41.052 53.947,40.997 53.559,40.981C53.135,40.964 52.709,40.99 52.286,41.028C51.638,41.087 50.993,41.187 50.354,41.311C49.662,41.444 48.975,41.607 48.294,41.788C46.629,42.232 44.993,42.786 43.383,43.399C41.171,44.241 39.004,45.199 36.878,46.238C34.707,47.3 32.577,48.449 30.509,49.702C29.553,50.281 28.61,50.882 27.689,51.516C26.914,52.05 26.152,52.606 25.423,53.202C24.944,53.594 24.476,54.002 24.046,54.446C23.899,54.598 23.757,54.754 23.624,54.917C23.515,55.05 23.412,55.188 23.327,55.337L23.326,55.339L23.31,55.506L23.275,55.694C23.23,55.857 23.224,55.9 23.158,56.057C23.011,56.411 22.773,56.724 22.473,56.96C22.272,57.118 22.045,57.241 21.804,57.323C21.563,57.405 21.308,57.445 21.053,57.442C20.477,57.434 19.915,57.2 19.504,56.796C19.368,56.662 19.249,56.511 19.151,56.347C19.02,56.128 18.927,55.888 18.876,55.638C18.791,55.216 18.825,54.768 18.92,54.351C19.04,53.823 19.273,53.327 19.559,52.87C19.914,52.305 20.35,51.794 20.813,51.316C21.065,51.056 21.325,50.806 21.593,50.563C21.912,50.272 22.24,49.992 22.575,49.718C23.01,49.362 23.455,49.019 23.907,48.686C25.008,47.873 26.148,47.114 27.307,46.388C28.602,45.578 29.923,44.811 31.263,44.078C32.903,43.182 34.572,42.336 36.264,41.543C37.852,40.799 39.462,40.1 41.094,39.46C43.174,38.643 45.293,37.913 47.458,37.356C49.274,36.888 51.135,36.534 53.015,36.48C53.14,36.478 53.265,36.476 53.391,36.477ZM23.33,55.179C23.331,55.162 23.33,55.145 23.331,55.128L23.331,55.125C23.33,55.143 23.33,55.161 23.33,55.179ZM53.323,27.875C55.821,27.893 58.343,28.202 60.689,29.095C61.133,29.263 61.569,29.453 61.994,29.664C62.101,29.717 62.204,29.77 62.31,29.826C62.405,29.877 62.519,29.937 62.609,29.996C62.812,30.127 62.994,30.291 63.145,30.48C63.295,30.669 63.416,30.882 63.499,31.109C63.752,31.797 63.648,32.583 63.225,33.182C63.086,33.38 62.914,33.554 62.72,33.698C62.525,33.841 62.307,33.952 62.077,34.026C61.616,34.175 61.11,34.17 60.652,34.011C60.42,33.931 60.209,33.804 59.99,33.694C59.881,33.64 59.772,33.589 59.662,33.538C59.395,33.42 59.125,33.31 58.85,33.213C58.084,32.941 57.29,32.751 56.488,32.621C55.542,32.467 54.584,32.394 53.625,32.378C52.054,32.352 50.481,32.475 48.925,32.69C47.127,32.937 45.348,33.309 43.592,33.764C42.166,34.134 40.755,34.56 39.361,35.033C37.587,35.635 35.839,36.312 34.124,37.065C33.069,37.527 32.027,38.018 31.003,38.543C30.136,38.988 29.28,39.458 28.448,39.966C27.871,40.318 27.303,40.688 26.764,41.096C26.573,41.241 26.386,41.391 26.207,41.551C26.077,41.666 25.948,41.786 25.839,41.922C25.828,41.936 25.818,41.951 25.808,41.967L25.704,42.115L25.589,42.255C25.546,42.298 25.506,42.343 25.462,42.385C25.375,42.468 25.28,42.544 25.18,42.612C24.83,42.85 24.414,42.987 23.99,43.001C23.749,43.009 23.506,42.978 23.274,42.909C23.043,42.841 22.822,42.735 22.624,42.596C22.075,42.212 21.72,41.588 21.67,40.919C21.652,40.678 21.673,40.435 21.733,40.2C21.777,40.024 21.843,39.854 21.928,39.694C22.018,39.526 22.129,39.367 22.244,39.215C22.508,38.867 22.814,38.553 23.136,38.26C23.718,37.731 24.356,37.264 25.008,36.825C25.841,36.265 26.706,35.752 27.584,35.266C29.227,34.358 30.922,33.545 32.645,32.8C34.733,31.898 36.865,31.097 39.031,30.403C41.053,29.756 43.105,29.202 45.184,28.773C47.614,28.271 50.081,27.942 52.563,27.882C52.816,27.877 53.07,27.875 53.323,27.875ZM52.148,19.59C52.761,19.597 53.374,19.614 53.987,19.645C56.158,19.758 58.32,20.026 60.459,20.414C62.567,20.796 64.658,21.293 66.704,21.928C68.005,22.331 69.295,22.789 70.535,23.355C71.021,23.577 71.499,23.816 71.96,24.087C72.337,24.31 72.704,24.553 73.041,24.834C73.275,25.031 73.492,25.245 73.685,25.483C73.99,25.86 74.218,26.306 74.319,26.782C74.356,26.957 74.377,27.136 74.379,27.315C74.382,27.508 74.364,27.701 74.325,27.891C74.276,28.126 74.196,28.355 74.085,28.568C73.963,28.8 73.801,29.011 73.608,29.187C73.463,29.319 73.3,29.433 73.126,29.523C72.951,29.613 72.765,29.68 72.573,29.722C71.929,29.863 71.24,29.709 70.718,29.306C70.51,29.146 70.331,28.95 70.191,28.728C70.072,28.54 69.981,28.335 69.924,28.119C69.843,28.066 69.761,28.016 69.677,27.966C69.228,27.705 68.758,27.483 68.281,27.278C67.734,27.043 67.176,26.832 66.614,26.635C65.144,26.121 63.64,25.703 62.123,25.351C60.148,24.893 58.145,24.547 56.129,24.33C54.341,24.138 52.538,24.045 50.74,24.108C49.109,24.165 47.486,24.37 45.873,24.609C43.834,24.912 41.806,25.285 39.788,25.699C37.72,26.124 35.659,26.591 33.618,27.13C32.867,27.328 32.119,27.536 31.378,27.765C30.821,27.937 30.263,28.117 29.726,28.345L29.681,28.365L29.586,28.463L29.439,28.593C29.386,28.631 29.335,28.672 29.28,28.709C29.063,28.854 28.819,28.961 28.565,29.023C28.31,29.085 28.045,29.102 27.785,29.073C27.525,29.044 27.27,28.97 27.035,28.854C26.8,28.738 26.586,28.581 26.405,28.391C26.27,28.249 26.153,28.089 26.058,27.917C25.964,27.745 25.893,27.56 25.846,27.37C25.76,27.018 25.756,26.63 25.848,26.278C25.875,26.176 25.902,26.071 25.941,25.973C26.057,25.685 26.221,25.423 26.43,25.193C26.731,24.862 27.11,24.617 27.507,24.416C27.916,24.21 28.344,24.043 28.774,23.888C29.405,23.661 30.045,23.462 30.688,23.273C31.536,23.024 32.389,22.796 33.245,22.578C34.663,22.217 36.089,21.887 37.519,21.578C39.189,21.218 40.866,20.887 42.549,20.591C43.717,20.386 44.888,20.198 46.064,20.036C47.163,19.885 48.266,19.755 49.373,19.675C49.949,19.634 50.525,19.61 51.103,19.597C51.451,19.591 51.799,19.589 52.148,19.59ZM30.243,27.25L30.249,27.223L30.263,27.118C30.256,27.162 30.249,27.206 30.243,27.25ZM30.269,27.072C30.281,26.98 30.279,26.98 30.281,26.888C30.277,26.949 30.273,27.011 30.269,27.072ZM70.001,26.693L69.967,26.787L69.965,26.795C69.995,26.715 70.034,26.614 70.001,26.693ZM63.581,13.389C65.188,13.407 66.792,13.59 68.372,13.875C69.088,14.004 69.8,14.155 70.505,14.335C71.161,14.501 71.811,14.691 72.448,14.919C73.712,15.372 74.906,15.997 76.111,16.584C76.341,16.694 76.571,16.803 76.802,16.909C77.551,17.248 78.321,17.552 79.131,17.713C79.557,17.797 79.988,17.836 80.422,17.84L80.544,17.844C80.666,17.855 80.786,17.869 80.905,17.896C81.183,17.96 81.447,18.077 81.681,18.238C81.849,18.354 82,18.492 82.13,18.648C82.55,19.151 82.732,19.827 82.62,20.473C82.578,20.713 82.498,20.946 82.382,21.161C82.246,21.411 82.063,21.635 81.845,21.817C81.626,21.999 81.373,22.139 81.103,22.228C80.948,22.279 80.789,22.312 80.627,22.328C80.429,22.348 80.227,22.34 80.029,22.333C79.607,22.319 79.186,22.28 78.769,22.216C77.685,22.053 76.636,21.724 75.625,21.305C74.621,20.888 73.655,20.386 72.677,19.912C72.442,19.8 72.206,19.69 71.97,19.582C71.627,19.429 71.283,19.282 70.93,19.155C70.427,18.975 69.914,18.827 69.397,18.696C68.794,18.543 68.186,18.414 67.574,18.303C66.207,18.057 64.817,17.893 63.426,17.888L63.305,17.884C63.182,17.874 63.063,17.86 62.943,17.834C62.625,17.762 62.325,17.622 62.066,17.424C61.905,17.3 61.761,17.155 61.639,16.993C61.294,16.536 61.135,15.954 61.199,15.386C61.222,15.184 61.272,14.986 61.348,14.797C61.439,14.571 61.567,14.36 61.726,14.175C61.911,13.959 62.137,13.778 62.389,13.646C62.605,13.533 62.839,13.455 63.08,13.416C63.187,13.399 63.214,13.399 63.322,13.391C63.451,13.388 63.451,13.388 63.581,13.389ZM52.923,11.326C53.451,11.33 53.979,11.344 54.506,11.381C54.925,11.412 55.345,11.456 55.759,11.531C55.938,11.564 56.115,11.603 56.291,11.65C56.407,11.681 56.522,11.716 56.633,11.762C56.984,11.906 57.296,12.139 57.534,12.435C57.959,12.965 58.123,13.674 57.974,14.337C57.928,14.542 57.853,14.741 57.752,14.925C57.651,15.11 57.524,15.28 57.375,15.429C57.197,15.608 56.989,15.757 56.762,15.868C56.383,16.052 55.954,16.126 55.535,16.08C55.451,16.071 55.368,16.057 55.286,16.039C55.206,16.021 55.129,15.996 55.05,15.978C54.974,15.962 54.898,15.949 54.822,15.937C54.325,15.866 53.822,15.843 53.321,15.832C52.648,15.817 51.975,15.829 51.303,15.853C49.681,15.912 48.061,16.043 46.448,16.219C44.993,16.378 43.54,16.573 42.1,16.831C41.519,16.935 40.941,17.05 40.367,17.186C39.953,17.285 39.539,17.392 39.139,17.537L39.128,17.551C39.052,17.634 39.035,17.657 38.953,17.733C38.767,17.904 38.553,18.044 38.322,18.145C38.09,18.246 37.842,18.307 37.59,18.325C37.338,18.344 37.083,18.32 36.839,18.254C36.636,18.199 36.441,18.116 36.261,18.007C35.679,17.656 35.281,17.045 35.193,16.372C35.148,16.02 35.184,15.66 35.293,15.322C35.344,15.164 35.412,15.011 35.493,14.865C35.561,14.744 35.639,14.629 35.725,14.519C36.242,13.863 37.029,13.502 37.801,13.237C37.93,13.193 38.06,13.152 38.19,13.112C38.372,13.057 38.555,13.005 38.738,12.956C39.035,12.877 39.333,12.805 39.632,12.737C40.426,12.558 41.227,12.41 42.03,12.277C43.065,12.106 44.105,11.963 45.147,11.838C47.499,11.558 49.864,11.369 52.232,11.329C52.462,11.327 52.693,11.325 52.923,11.326ZM39.665,16.283C39.672,16.226 39.671,16.227 39.673,16.169C39.67,16.207 39.668,16.245 39.665,16.283ZM57.068,2.815C58.368,2.829 59.667,2.888 60.963,2.999C61.971,3.086 62.976,3.202 63.976,3.35C64.845,3.479 65.711,3.632 66.569,3.816C67.212,3.954 67.852,4.11 68.484,4.29C69,4.437 69.511,4.599 70.014,4.784C70.286,4.884 70.556,4.991 70.821,5.106C71.014,5.189 71.205,5.277 71.394,5.37C72.391,5.864 73.365,6.522 73.969,7.478C74.055,7.615 74.133,7.757 74.201,7.903C74.274,8.058 74.335,8.217 74.385,8.38C74.45,8.594 74.495,8.814 74.517,9.036C74.559,9.442 74.536,9.865 74.398,10.251C74.299,10.529 74.146,10.786 73.948,11.005C73.751,11.224 73.51,11.403 73.244,11.529C73.067,11.613 72.878,11.674 72.685,11.71C72.053,11.826 71.387,11.661 70.883,11.262C70.69,11.109 70.523,10.926 70.39,10.719C70.256,10.513 70.157,10.285 70.097,10.047C70.067,9.928 70.066,9.905 70.049,9.791C69.989,9.746 69.928,9.704 69.865,9.664C69.601,9.497 69.32,9.36 69.034,9.236C68.687,9.085 68.331,8.956 67.972,8.838C66.987,8.514 65.975,8.277 64.958,8.08C63.26,7.752 61.539,7.544 59.815,7.424C58.091,7.304 56.358,7.272 54.633,7.371C53.982,7.409 53.331,7.466 52.685,7.552C52.135,7.626 51.587,7.719 51.048,7.85C50.66,7.943 50.274,8.055 49.904,8.206C49.682,8.297 49.458,8.4 49.266,8.546L49.232,8.572C49.112,8.661 48.993,8.743 48.86,8.81C48.598,8.944 48.309,9.025 48.015,9.048C47.77,9.067 47.523,9.046 47.285,8.986C46.563,8.802 45.967,8.258 45.718,7.556C45.653,7.37 45.612,7.177 45.596,6.981C45.573,6.687 45.608,6.389 45.7,6.109C45.806,5.782 45.988,5.481 46.228,5.235C46.343,5.117 46.472,5.015 46.604,4.917C46.72,4.831 46.84,4.749 46.963,4.671C47.477,4.344 48.035,4.091 48.607,3.885C49.278,3.644 49.97,3.466 50.668,3.326C51.139,3.232 51.614,3.155 52.09,3.092C52.675,3.014 53.263,2.956 53.852,2.913C54.559,2.861 55.267,2.834 55.975,2.82C56.34,2.815 56.704,2.813 57.068,2.815Z" style="fill:black;"/>
        </g>
    </g>
</svg>
